<svg xmlns="http://www.w3.org/2000/svg" xmlns:xlink="http://www.w3.org/1999/xlink" width="39" height="39" viewBox="0 0 39 39">
  <defs>
    <clipPath id="clip-path">
      <rect id="Rect치ngulo_345876" data-name="Rect치ngulo 345876" width="32.689" height="32.736" fill="#12263f"/>
    </clipPath>
  </defs>
  <g id="Grupo_1002604" data-name="Grupo 1002604" transform="translate(-6)">
    <rect id="Rect치ngulo_345871" data-name="Rect치ngulo 345871" width="39" height="39" rx="5" transform="translate(6)" fill="#3076b6"/>
    <g id="Grupo_1001153" data-name="Grupo 1001153" transform="translate(8.798 3.637)">
      <g id="Grupo_1001153-2" data-name="Grupo 1001153" clip-path="url(#clip-path)">
        <path id="Trazado_707564" data-name="Trazado 707564" d="M16.56,0c1.118.739,2.234,1.482,3.359,2.211a.8.8,0,0,0,.443.113c1.235-.056,2.47-.127,3.7-.2a.794.794,0,0,1,.815.495c.537,1.077,1.078,2.152,1.633,3.219a.967.967,0,0,0,.386.388c1.057.552,2.125,1.084,3.188,1.624a.791.791,0,0,1,.524.946c-.075,1.213-.147,2.426-.2,3.64a.749.749,0,0,0,.136.406c.642.993,1.288,1.984,1.948,2.966a.927.927,0,0,1,0,1.147q-.992,1.471-1.953,2.962a.907.907,0,0,0-.135.5c.052,1.193.114,2.386.2,3.577a.868.868,0,0,1-.547.939q-1.579.771-3.135,1.587a1.082,1.082,0,0,0-.428.432q-.824,1.57-1.606,3.162a.854.854,0,0,1-.924.521c-1.223-.082-2.448-.149-3.672-.209a.689.689,0,0,0-.378.121c-1,.651-2,1.3-2.986,1.975a.889.889,0,0,1-1.138.006C14.8,31.859,13.8,31.207,12.8,30.56a.848.848,0,0,0-.471-.121c-1.225.058-2.448.132-3.672.2a.791.791,0,0,1-.816-.49c-.518-1.039-1.053-2.069-1.568-3.109a1.159,1.159,0,0,0-.56-.57C4.7,25.977,3.7,25.446,2.682,24.956A.927.927,0,0,1,2.1,23.942c.084-1.18.143-2.362.194-3.545a.912.912,0,0,0-.14-.5Q1.182,18.391.184,16.9a.846.846,0,0,1,0-1.058q1-1.482,1.972-2.988a.906.906,0,0,0,.136-.5c-.051-1.172-.107-2.343-.2-3.513A.963.963,0,0,1,2.724,7.79c1.056-.507,2.1-1.046,3.136-1.585a.8.8,0,0,0,.323-.323c.543-1.05,1.071-2.107,1.6-3.162.27-.535.438-.627,1.035-.591,1.2.072,2.405.143,3.608.2a.694.694,0,0,0,.377-.127C13.809,1.553,14.8.893,15.8.236c.124-.082.251-.158.376-.236Zm5.194,29.143c.564.033,1.129.056,1.692.1a.448.448,0,0,0,.517-.29c.478-.987.97-1.968,1.487-2.934a1.4,1.4,0,0,1,.544-.544c.976-.522,1.968-1.016,2.963-1.5a.4.4,0,0,0,.267-.462c-.075-1.117-.144-2.234-.181-3.353a1.393,1.393,0,0,1,.205-.742c.589-.938,1.206-1.859,1.826-2.778a.38.38,0,0,0,.006-.5c-.622-.917-1.238-1.839-1.828-2.777a1.4,1.4,0,0,1-.209-.742c.035-1.108.1-2.215.178-3.321a.448.448,0,0,0-.287-.515c-.968-.468-1.92-.969-2.886-1.442a1.369,1.369,0,0,1-.655-.664c-.479-.974-.981-1.937-1.46-2.912a.368.368,0,0,0-.415-.244c-1.1.072-2.193.122-3.288.194a1.4,1.4,0,0,1-.928-.256c-.88-.6-1.781-1.171-2.659-1.773a.441.441,0,0,0-.587.011c-.882.6-1.781,1.171-2.662,1.77a1.363,1.363,0,0,1-.9.248c-1.1-.07-2.193-.121-3.288-.195a.388.388,0,0,0-.434.26c-.485.984-.992,1.956-1.476,2.94a1.288,1.288,0,0,1-.618.613c-.983.487-1.956.993-2.941,1.475a.366.366,0,0,0-.241.416c.071,1.106.122,2.214.194,3.32a1.285,1.285,0,0,1-.23.84c-.607.9-1.2,1.816-1.806,2.715a.422.422,0,0,0-.007.563c.578.844,1.117,1.714,1.705,2.551a1.849,1.849,0,0,1,.324,1.29c-.081,1.02-.115,2.043-.181,3.065a.346.346,0,0,0,.231.389c.975.478,1.94.978,2.916,1.454a1.4,1.4,0,0,1,.685.676c.458.938.949,1.859,1.4,2.8a.521.521,0,0,0,.6.355c1.084-.083,2.17-.145,3.257-.179a1.392,1.392,0,0,1,.74.211c.946.6,1.876,1.22,2.8,1.845a.343.343,0,0,0,.451,0c.919-.618,1.839-1.237,2.779-1.824a1.652,1.652,0,0,1,.8-.231c.531-.013,1.064.046,1.6.075" transform="translate(0)" fill="#12263f"/>
        <path id="Trazado_707565" data-name="Trazado 707565" d="M95.971,106.731a10.2,10.2,0,1,1,10.139,10.224,10.216,10.216,0,0,1-10.139-10.224m19.041.046a8.833,8.833,0,1,0-8.882,8.816,8.857,8.857,0,0,0,8.882-8.816" transform="translate(-89.817 -90.377)" fill="#12263f"/>
        <path id="Trazado_707566" data-name="Trazado 707566" d="M183.973,210.01l2.737-2.584c.643-.607,1.283-1.217,1.932-1.818a1.132,1.132,0,0,1,.42-.274.631.631,0,0,1,.751.275.614.614,0,0,1-.051.8c-.195.224-.42.423-.637.627q-2.312,2.183-4.627,4.364c-.516.487-.831.483-1.329-.025q-1.253-1.278-2.5-2.564a1.829,1.829,0,0,1-.242-.3.663.663,0,0,1,.923-.9,2.279,2.279,0,0,1,.289.249l2.332,2.155" transform="translate(-168.765 -192.136)" fill="#12263f"/>
      </g>
    </g>
  </g>
</svg>
