<svg id="Grupo_1002286" data-name="Grupo 1002286" xmlns="http://www.w3.org/2000/svg" xmlns:xlink="http://www.w3.org/1999/xlink" width="341" height="259.583" viewBox="0 0 341 259.583">
  <defs>
    <clipPath id="clip-path">
      <rect id="Rectángulo_346437" data-name="Rectángulo 346437" width="341" height="259.583" fill="none"/>
    </clipPath>
    <clipPath id="clip-path-2">
      <rect id="Rectángulo_346436" data-name="Rectángulo 346436" width="341.001" height="259.583" fill="none"/>
    </clipPath>
    <clipPath id="clip-path-3">
      <rect id="Rectángulo_346408" data-name="Rectángulo 346408" width="63.484" height="3.939" fill="none"/>
    </clipPath>
    <clipPath id="clip-path-4">
      <rect id="Rectángulo_346409" data-name="Rectángulo 346409" width="96.341" height="2.688" fill="none"/>
    </clipPath>
    <clipPath id="clip-path-5">
      <rect id="Rectángulo_346410" data-name="Rectángulo 346410" width="114.959" height="3.505" fill="none"/>
    </clipPath>
    <clipPath id="clip-path-6">
      <rect id="Rectángulo_346435" data-name="Rectángulo 346435" width="155.034" height="5.848" fill="none"/>
    </clipPath>
  </defs>
  <g id="Grupo_1002285" data-name="Grupo 1002285" clip-path="url(#clip-path)">
    <g id="Grupo_1002284" data-name="Grupo 1002284">
      <g id="Grupo_1002283" data-name="Grupo 1002283" clip-path="url(#clip-path-2)">
        <path id="Trazado_710533" data-name="Trazado 710533" d="M863.579,279.648c1.172-5.45,4.171-24.335-6.951-37.571-.328-.39-.958.031-1.011.678-.454,5.6-1.235,24.248,6.929,37.383.272.437.9.143,1.033-.49" transform="translate(-567.99 -160.648)" fill="#9ed1e3"/>
        <path id="Trazado_710534" data-name="Trazado 710534" d="M861.477,279.639a1.13,1.13,0,0,1-.966-.55c-8.295-13.344-7.482-32.323-7.035-37.822a1.644,1.644,0,0,1,1.06-1.435,1.126,1.126,0,0,1,1.225.351c11.318,13.47,8.3,32.636,7.1,38.188a1.562,1.562,0,0,1-1.187,1.251,1.172,1.172,0,0,1-.2.017m-6.564-38.214c-.434,5.382-1.2,23.572,6.571,36.487,1.172-5.54,3.919-23.657-6.571-36.487" transform="translate(-566.569 -159.219)" fill="#424243"/>
        <path id="Trazado_710535" data-name="Trazado 710535" d="M860.269,278.966c-8.308-13.367-7.5-32.369-7.048-37.875a1.707,1.707,0,0,1,1.119-1.51,1.21,1.21,0,0,1,1.317.377c11.343,13.5,8.32,32.7,7.123,38.261a1.648,1.648,0,0,1-1.257,1.317,1.247,1.247,0,0,1-.216.019,1.214,1.214,0,0,1-1.038-.59m1.008-1.456c1.186-5.744,3.711-23.406-6.464-36.032-.432,5.6-1.074,23.32,6.464,36.032" transform="translate(-566.4 -159.05)" fill="#424243"/>
        <path id="Trazado_710536" data-name="Trazado 710536" d="M859.881,278.847a1.939,1.939,0,0,1-1.652-.932c-8.424-13.553-7.605-32.752-7.154-38.313a2.434,2.434,0,0,1,1.621-2.14,1.919,1.919,0,0,1,2.088.6c11.555,13.751,8.491,33.235,7.276,38.879a2.376,2.376,0,0,1-1.839,1.877,1.934,1.934,0,0,1-.34.03m-.425-1.695a.5.5,0,0,0,.334.242l-.562-.947c-7.7-12.983-6.969-31.187-6.562-36.457l.065-.853a1.125,1.125,0,0,0-.217.582c-.442,5.45-1.249,24.256,6.941,37.434Zm-6.137-38.341.63.781c10.468,12.989,7.7,31.322,6.609,36.632l-.2.953a1.1,1.1,0,0,0,.286-.542c1.179-5.481,4.162-24.4-6.97-37.644a.487.487,0,0,0-.358-.18m.665,3.23c-.321,6.439-.248,20.784,5.521,31.925,1.067-6.476,2.244-20.875-5.521-31.925" transform="translate(-564.974 -157.618)" fill="#424243"/>
        <rect id="Rectángulo_346407" data-name="Rectángulo 346407" width="4.499" height="108.033" transform="translate(292.192 122.838)" fill="#9ed1e3"/>
        <path id="Trazado_710537" data-name="Trazado 710537" d="M866.919,361.565h6.375V472.329h-6.375Zm4.5,2.731H868.8V469.6h2.622Z" transform="translate(-575.666 -240.092)" fill="#424243"/>
        <path id="Trazado_710538" data-name="Trazado 710538" d="M796.612,363.412c-5.562-.38-24.681-.643-36.188,12.26-.339.381.168.944.816.9,5.6-.352,24.175-2.25,36-12.211.394-.332.013-.909-.632-.953" transform="translate(-504.876 -241.239)" fill="#9ed1e3"/>
        <path id="Trazado_710539" data-name="Trazado 710539" d="M759.749,375.873a1.63,1.63,0,0,1-1.463-.847,1.126,1.126,0,0,1,.172-1.263c11.708-13.13,31.106-12.888,36.777-12.5a1.563,1.563,0,0,1,1.408,1,1.126,1.126,0,0,1-.359,1.23c-12.021,10.121-30.919,12.034-36.426,12.379-.036,0-.073,0-.109,0m31.762-13.285c-7.692,0-22.244,1.511-31.7,11.837,5.39-.342,23.5-2.189,35.169-11.729-.875-.056-2.055-.108-3.466-.108" transform="translate(-503.449 -239.812)" fill="#424243"/>
        <path id="Trazado_710540" data-name="Trazado 710540" d="M758.038,374.9a1.211,1.211,0,0,1,.185-1.358c11.735-13.159,31.17-12.916,36.847-12.528a1.649,1.649,0,0,1,1.484,1.055,1.212,1.212,0,0,1-.386,1.323c-12.039,10.136-30.962,12.053-36.475,12.4-.04,0-.079,0-.119,0a1.694,1.694,0,0,1-1.536-.9m1.809-.739c5.606-.375,23.234-2.277,34.736-11.557-5.855-.351-23.7-.321-34.736,11.557" transform="translate(-503.279 -239.643)" fill="#424243"/>
        <path id="Trazado_710541" data-name="Trazado 710541" d="M758.141,375.084a2.415,2.415,0,0,1-2.186-1.3,1.923,1.923,0,0,1,.294-2.154c11.954-13.4,31.677-13.165,37.436-12.768a2.373,2.373,0,0,1,2.121,1.551,1.923,1.923,0,0,1-.607,2.1c-12.209,10.278-31.326,12.218-36.9,12.567-.053,0-.109.006-.164.006m-.534-1.579a1.117,1.117,0,0,0,.534.134l.072,0c5.459-.343,24.187-2.238,36.057-12.231a.5.5,0,0,0,.19-.366l-.856.691c-11.747,9.479-29.867,11.364-35.141,11.716Zm32.314-13.323c-7.894,0-22.929,1.573-32.593,12.408a.487.487,0,0,0-.127.38l.683-.734c11.355-12.22,29.895-12.108,35.308-11.787l.972.058a1.1,1.1,0,0,0-.577-.205c-.9-.062-2.152-.12-3.667-.12m.084,1.62c-6.968,0-20.4,1.269-29.7,10.047,6.419-.6,20.606-2.731,30.806-10.036-.346-.007-.715-.011-1.1-.011" transform="translate(-501.847 -238.214)" fill="#424243"/>
        <path id="Trazado_710542" data-name="Trazado 710542" d="M883.789,367.287c3.3,4.5,15.425,19.278,32.707,19.751.51.014.613-.737.165-1.206-3.883-4.056-17.31-17.025-32.552-19.643-.508-.087-.7.576-.32,1.1" transform="translate(-586.734 -243.158)" fill="#9ed1e3"/>
        <path id="Trazado_710543" data-name="Trazado 710543" d="M915.082,386.335h-.034c-17.585-.482-29.912-15.465-33.27-20.046h0a1.564,1.564,0,0,1-.146-1.719,1.133,1.133,0,0,1,1.172-.519c15.486,2.66,29.136,15.871,32.952,19.856a1.643,1.643,0,0,1,.369,1.746,1.126,1.126,0,0,1-1.042.683m-32.045-20.774c3.364,4.553,15.089,18.639,31.645,19.315-3.736-3.9-16.829-16.549-31.645-19.315" transform="translate(-585.306 -241.732)" fill="#424243"/>
        <path id="Trazado_710544" data-name="Trazado 710544" d="M914.877,386.25c-17.626-.483-29.973-15.493-33.337-20.082a1.648,1.648,0,0,1-.151-1.814,1.213,1.213,0,0,1,1.26-.558c15.511,2.664,29.179,15.89,33,19.881a1.707,1.707,0,0,1,.386,1.839,1.21,1.21,0,0,1-1.12.735h-.036m-.575-1.64c-3.9-4.043-16.723-16.289-31.234-19.094,3.507,4.7,15.036,18.317,31.234,19.094" transform="translate(-585.137 -241.561)" fill="#424243"/>
        <path id="Trazado_710545" data-name="Trazado 710545" d="M913.489,385.541h-.055c-17.954-.492-30.487-15.72-33.9-20.376a2.375,2.375,0,0,1-.182-2.622,1.923,1.923,0,0,1,1.995-.891c15.732,2.7,29.542,16.063,33.4,20.094a2.434,2.434,0,0,1,.524,2.631,1.927,1.927,0,0,1-1.781,1.164m-33.006-21.805a1.1,1.1,0,0,0,.216.574c3.315,4.522,15.477,19.313,32.774,19.786h.012a.488.488,0,0,0,.36-.147l-1-.048c-16.664-.8-28.536-15.039-31.778-19.384Zm.218-.57,1.08.209c14.821,2.865,27.947,15.5,31.617,19.3l.594.616a1.12,1.12,0,0,0-.29-.548c-3.781-3.951-17.305-17.042-32.6-19.669a.5.5,0,0,0-.4.09m2.75,2.062c4.133,5.1,14.119,15.54,27.537,17.072-4.6-4.515-15.376-13.986-27.537-17.072" transform="translate(-583.713 -240.13)" fill="#424243"/>
        <path id="Trazado_710546" data-name="Trazado 710546" d="M864.035,359.318a4.157,4.157,0,1,0,4.156-4.157,4.156,4.156,0,0,0-4.156,4.157" transform="translate(-573.75 -235.84)" fill="#fff"/>
        <path id="Trazado_710547" data-name="Trazado 710547" d="M867.24,363a4.639,4.639,0,1,1,4.639-4.639A4.644,4.644,0,0,1,867.24,363m0-8.313a3.675,3.675,0,1,0,3.675,3.674,3.678,3.678,0,0,0-3.675-3.674" transform="translate(-572.799 -234.887)" fill="#424243"/>
        <path id="Trazado_710548" data-name="Trazado 710548" d="M860.9,357.236a5.21,5.21,0,1,1,5.209,5.21,5.216,5.216,0,0,1-5.209-5.21m2.106,0a3.1,3.1,0,1,0,3.1-3.1,3.107,3.107,0,0,0-3.1,3.1" transform="translate(-571.669 -233.758)" fill="#424243"/>
        <path id="Trazado_710549" data-name="Trazado 710549" d="M865.159,361.975a5.692,5.692,0,1,1,5.692-5.692,5.7,5.7,0,0,1-5.692,5.692m0-10.42a4.728,4.728,0,1,0,4.728,4.728,4.733,4.733,0,0,0-4.728-4.728m0,8.313a3.586,3.586,0,1,1,3.585-3.585,3.59,3.59,0,0,1-3.585,3.585m0-6.207a2.622,2.622,0,1,0,2.622,2.622,2.625,2.625,0,0,0-2.622-2.622" transform="translate(-570.717 -232.806)" fill="#424243"/>
        <g id="Grupo_1002273" data-name="Grupo 1002273" transform="translate(79.855 255.644)" opacity="0.48">
          <g id="Grupo_1002272" data-name="Grupo 1002272">
            <g id="Grupo_1002271" data-name="Grupo 1002271" clip-path="url(#clip-path-3)">
              <path id="Trazado_710550" data-name="Trazado 710550" d="M299.667,764.866H239.2a1.51,1.51,0,0,1-1.506-1.506v-.927a1.51,1.51,0,0,1,1.506-1.506h60.472a1.51,1.51,0,0,1,1.506,1.506v.927a1.51,1.51,0,0,1-1.506,1.506" transform="translate(-237.689 -760.927)" fill="#424243"/>
            </g>
          </g>
        </g>
        <g id="Grupo_1002276" data-name="Grupo 1002276" transform="translate(66.953 240.726)" opacity="0.48">
          <g id="Grupo_1002275" data-name="Grupo 1002275">
            <g id="Grupo_1002274" data-name="Grupo 1002274" clip-path="url(#clip-path-4)">
              <path id="Trazado_710551" data-name="Trazado 710551" d="M294.2,719.21H200.718a1.344,1.344,0,0,1-1.431-1.225v-.239a1.344,1.344,0,0,1,1.431-1.225H294.2a1.344,1.344,0,0,1,1.431,1.225v.239a1.344,1.344,0,0,1-1.431,1.225" transform="translate(-199.287 -716.522)" fill="#424243"/>
            </g>
          </g>
        </g>
        <g id="Grupo_1002279" data-name="Grupo 1002279" transform="translate(149.193 246.061)" opacity="0.48">
          <g id="Grupo_1002278" data-name="Grupo 1002278">
            <g id="Grupo_1002277" data-name="Grupo 1002277" clip-path="url(#clip-path-5)">
              <path id="Trazado_710552" data-name="Trazado 710552" d="M557.506,735.907H445.6a1.434,1.434,0,0,1-1.527-1.306v-.893A1.434,1.434,0,0,1,445.6,732.4H557.506a1.434,1.434,0,0,1,1.527,1.306v.893a1.434,1.434,0,0,1-1.527,1.306" transform="translate(-444.073 -732.402)" fill="#424243"/>
            </g>
          </g>
        </g>
        <rect id="Rectángulo_346411" data-name="Rectángulo 346411" width="187.834" height="7.975" transform="translate(74.857 221.808)" fill="#f0f1f1"/>
        <path id="Trazado_710553" data-name="Trazado 710553" d="M221.132,665.072V657.1l-1.721,1.473H399.6a62.487,62.487,0,0,0,7.313,0,2.778,2.778,0,0,1,.331,0l-1.721-1.473v7.975c0,1.9,3.442,1.9,3.442,0V657.1a1.635,1.635,0,0,0-1.721-1.473H242.524c-7.576,0-15.21-.237-22.782,0-.11,0-.221,0-.331,0a1.635,1.635,0,0,0-1.721,1.473v7.975c0,1.9,3.442,1.9,3.442,0" transform="translate(-144.554 -435.288)" fill="#424243"/>
        <rect id="Rectángulo_346412" data-name="Rectángulo 346412" width="158.497" height="172.241" transform="translate(88.192 49.137)" fill="#f0f1f1"/>
        <path id="Trazado_710554" data-name="Trazado 710554" d="M417.462,312.863H265.432c-1.974,0-4.244-.339-6.2,0a1.614,1.614,0,0,1-.267,0l1.673,1.809V149.461a48.352,48.352,0,0,0,0-6.742,2.046,2.046,0,0,1,0-.287l-1.673,1.809h152.03c1.973,0,4.244.339,6.2,0a1.615,1.615,0,0,1,.267,0l-1.673-1.809V293.4c0,6.972-.264,14.012,0,20.979,0,.1,0,.192,0,.288a1.674,1.674,0,1,0,3.346,0V163.7c0-6.972.264-14.012,0-20.98,0-.1,0-.192,0-.287a1.77,1.77,0,0,0-1.673-1.809H278.507c-6.405,0-12.873-.285-19.275,0-.089,0-.178,0-.267,0a1.77,1.77,0,0,0-1.673,1.809V293.4c0,6.972-.264,14.012,0,20.979,0,.1,0,.192,0,.288a1.771,1.771,0,0,0,1.673,1.809H397.919c6.405,0,12.873.284,19.275,0,.089,0,.178,0,.267,0,2.152,0,2.156-3.618,0-3.618" transform="translate(-170.773 -93.294)" fill="#424243"/>
        <rect id="Rectángulo_346413" data-name="Rectángulo 346413" width="175.471" height="9.034" transform="translate(79.831 40.103)" fill="#ffa031"/>
        <path id="Trazado_710555" data-name="Trazado 710555" d="M409.782,113.723H255.907c-7.079,0-14.218-.294-21.293,0-.1,0-.2,0-.3,0a1.77,1.77,0,0,0-1.672,1.809v9.034a1.77,1.77,0,0,0,1.672,1.809H388.187c7.078,0,14.218.294,21.293,0,.1,0,.2,0,.3,0a1.77,1.77,0,0,0,1.673-1.809v-9.034a1.674,1.674,0,1,0-3.346,0v9.034l1.673-1.809H241.507c-2.206,0-4.706-.358-6.894,0a1.928,1.928,0,0,1-.3,0l1.673,1.809v-9.034l-1.673,1.809H388.187c7.078,0,14.218.294,21.293,0,.1,0,.2,0,.3,0,2.153,0,2.156-3.618,0-3.618" transform="translate(-154.481 -75.43)" fill="#424243"/>
        <rect id="Rectángulo_346414" data-name="Rectángulo 346414" width="175.674" height="8.406" transform="translate(79.627 95.223)" fill="#4db1f0"/>
        <path id="Trazado_710556" data-name="Trazado 710556" d="M409.38,278.18H255.39c-7.109,0-14.278-.274-21.383,0-.1,0-.2,0-.3,0a1.7,1.7,0,0,0-1.673,1.683v8.406a1.7,1.7,0,0,0,1.673,1.683H387.7c7.108,0,14.278.275,21.383,0,.1,0,.2,0,.3,0a1.7,1.7,0,0,0,1.673-1.683v-8.406a1.673,1.673,0,0,0-3.346,0v8.406l1.673-1.684H240.892a47.672,47.672,0,0,0-6.885,0,2.048,2.048,0,0,1-.3,0l1.672,1.684v-8.406l-1.672,1.684H387.7c7.108,0,14.278.274,21.383,0,.1,0,.2,0,.3,0a1.685,1.685,0,0,0,0-3.367" transform="translate(-154.078 -184.641)" fill="#424243"/>
        <rect id="Rectángulo_346415" data-name="Rectángulo 346415" width="8.623" height="25.902" transform="translate(117.005 60.523)" fill="#2b3d4d"/>
        <rect id="Rectángulo_346416" data-name="Rectángulo 346416" width="8.623" height="25.902" transform="translate(140.13 60.523)" fill="#2b3d4d"/>
        <rect id="Rectángulo_346417" data-name="Rectángulo 346417" width="8.623" height="25.902" transform="translate(163.255 60.523)" fill="#2b3d4d"/>
        <rect id="Rectángulo_346418" data-name="Rectángulo 346418" width="8.623" height="25.902" transform="translate(186.379 60.523)" fill="#2b3d4d"/>
        <rect id="Rectángulo_346419" data-name="Rectángulo 346419" width="8.623" height="25.902" transform="translate(209.504 60.523)" fill="#2b3d4d"/>
        <path id="Trazado_710557" data-name="Trazado 710557" d="M352.975,199.4H339.506l.784.616V168.7l-.784.616h13.468l-.784-.616v31.314c0,.793,1.568.794,1.568,0V168.7a.726.726,0,0,0-.784-.616H339.506a.726.726,0,0,0-.784.616v31.314a.726.726,0,0,0,.784.616h13.468c1.009,0,1.011-1.232,0-1.232" transform="translate(-224.924 -111.616)" fill="#424243"/>
        <rect id="Rectángulo_346420" data-name="Rectángulo 346420" width="10.033" height="38.277" transform="translate(108.862 132.639)" fill="#2b3d4d"/>
        <path id="Trazado_710558" data-name="Trazado 710558" d="M329.507,426.463H313.835l.912.91V381.1l-.912.91h15.671l-.912-.91v46.276a.913.913,0,0,0,1.824,0V381.1a.924.924,0,0,0-.912-.91H313.835a.924.924,0,0,0-.912.91v46.276a.924.924,0,0,0,.912.91h15.671a.911.911,0,0,0,0-1.82" transform="translate(-207.792 -252.458)" fill="#424243"/>
        <rect id="Rectángulo_346421" data-name="Rectángulo 346421" width="10.033" height="38.277" transform="translate(135.769 132.639)" fill="#2b3d4d"/>
        <path id="Trazado_710559" data-name="Trazado 710559" d="M409.595,426.463H393.923l.912.91V381.1l-.912.91h15.671l-.912-.91v46.276a.913.913,0,0,0,1.824,0V381.1a.924.924,0,0,0-.912-.91H393.923a.924.924,0,0,0-.912.91v46.276a.924.924,0,0,0,.912.91h15.671a.911.911,0,0,0,0-1.82" transform="translate(-260.973 -252.458)" fill="#424243"/>
        <rect id="Rectángulo_346422" data-name="Rectángulo 346422" width="10.033" height="38.277" transform="translate(162.675 132.639)" fill="#2b3d4d"/>
        <path id="Trazado_710560" data-name="Trazado 710560" d="M489.683,426.463H474.011l.912.91V381.1l-.912.91h15.671l-.912-.91v46.276a.913.913,0,0,0,1.824,0V381.1a.924.924,0,0,0-.912-.91H474.011a.924.924,0,0,0-.912.91v46.276a.924.924,0,0,0,.912.91h15.671a.911.911,0,0,0,0-1.82" transform="translate(-314.155 -252.458)" fill="#424243"/>
        <rect id="Rectángulo_346423" data-name="Rectángulo 346423" width="10.033" height="38.277" transform="translate(189.582 132.639)" fill="#2b3d4d"/>
        <path id="Trazado_710561" data-name="Trazado 710561" d="M569.771,426.463H554.1l.912.91V381.1l-.912.91h15.671l-.912-.91v46.276a.913.913,0,0,0,1.825,0V381.1a.924.924,0,0,0-.912-.91H554.1a.924.924,0,0,0-.912.91v46.276a.925.925,0,0,0,.912.91h15.671a.911.911,0,0,0,0-1.82" transform="translate(-367.337 -252.458)" fill="#424243"/>
        <rect id="Rectángulo_346424" data-name="Rectángulo 346424" width="10.033" height="38.277" transform="translate(216.489 132.639)" fill="#2b3d4d"/>
        <path id="Trazado_710562" data-name="Trazado 710562" d="M649.859,426.463H634.188l.912.91V381.1l-.912.91h15.671l-.912-.91v46.276a.913.913,0,0,0,1.824,0V381.1a.924.924,0,0,0-.912-.91H634.188a.924.924,0,0,0-.912.91v46.276a.925.925,0,0,0,.912.91h15.671a.911.911,0,0,0,0-1.82" transform="translate(-420.518 -252.458)" fill="#424243"/>
        <path id="Trazado_710563" data-name="Trazado 710563" d="M421.806,199.4H408.337l.784.616V168.7l-.784.616h13.468l-.784-.616v31.314c0,.793,1.568.794,1.568,0V168.7a.726.726,0,0,0-.784-.616H408.337a.726.726,0,0,0-.784.616v31.314a.726.726,0,0,0,.784.616h13.468c1.009,0,1.011-1.232,0-1.232" transform="translate(-270.63 -111.616)" fill="#424243"/>
        <path id="Trazado_710564" data-name="Trazado 710564" d="M490.959,199.4H477.49l.784.616V168.7l-.784.616h13.468l-.784-.616v31.314c0,.793,1.568.794,1.568,0V168.7a.726.726,0,0,0-.784-.616H477.49a.726.726,0,0,0-.784.616v31.314a.726.726,0,0,0,.784.616h13.468c1.009,0,1.011-1.232,0-1.232" transform="translate(-316.55 -111.616)" fill="#424243"/>
        <path id="Trazado_710565" data-name="Trazado 710565" d="M559.468,199.4H546l.784.616V168.7l-.784.616h13.468l-.784-.616v31.314c0,.793,1.568.794,1.568,0V168.7a.726.726,0,0,0-.784-.616H546a.726.726,0,0,0-.784.616v31.314a.726.726,0,0,0,.784.616h13.468c1.009,0,1.011-1.232,0-1.232" transform="translate(-362.042 -111.616)" fill="#424243"/>
        <path id="Trazado_710566" data-name="Trazado 710566" d="M628.3,199.4H614.83l.784.616V168.7l-.784.616H628.3l-.784-.616v31.314c0,.793,1.568.794,1.568,0V168.7a.726.726,0,0,0-.784-.616H614.83a.726.726,0,0,0-.784.616v31.314a.726.726,0,0,0,.784.616H628.3c1.009,0,1.011-1.232,0-1.232" transform="translate(-407.749 -111.616)" fill="#424243"/>
        <rect id="Rectángulo_346425" data-name="Rectángulo 346425" width="9.941" height="29.861" transform="translate(110.086 187.623)" fill="#2b3d4d"/>
        <rect id="Rectángulo_346426" data-name="Rectángulo 346426" width="9.941" height="29.861" transform="translate(136.745 187.623)" fill="#2b3d4d"/>
        <rect id="Rectángulo_346427" data-name="Rectángulo 346427" width="9.941" height="29.861" transform="translate(163.404 187.623)" fill="#2b3d4d"/>
        <rect id="Rectángulo_346428" data-name="Rectángulo 346428" width="9.941" height="29.861" transform="translate(190.064 187.623)" fill="#2b3d4d"/>
        <rect id="Rectángulo_346429" data-name="Rectángulo 346429" width="9.941" height="29.861" transform="translate(216.724 187.623)" fill="#2b3d4d"/>
        <path id="Trazado_710567" data-name="Trazado 710567" d="M333.1,580.661H317.571l.9.71v-36.1l-.9.71H333.1l-.9-.71v36.1c0,.914,1.807.915,1.807,0v-36.1a.837.837,0,0,0-.9-.71H317.571a.837.837,0,0,0-.9.71v36.1a.837.837,0,0,0,.9.71H333.1c1.163,0,1.165-1.42,0-1.42" transform="translate(-210.278 -361.607)" fill="#424243"/>
        <path id="Trazado_710568" data-name="Trazado 710568" d="M412.451,580.661H396.924l.9.71v-36.1l-.9.71h15.527l-.9-.71v36.1c0,.914,1.807.915,1.807,0v-36.1a.837.837,0,0,0-.9-.71H396.924a.837.837,0,0,0-.9.71v36.1a.837.837,0,0,0,.9.71h15.527c1.163,0,1.165-1.42,0-1.42" transform="translate(-262.972 -361.607)" fill="#424243"/>
        <path id="Trazado_710569" data-name="Trazado 710569" d="M492.175,580.661H476.648l.9.71v-36.1l-.9.71h15.527l-.9-.71v36.1c0,.914,1.807.915,1.807,0v-36.1a.837.837,0,0,0-.9-.71H476.648a.837.837,0,0,0-.9.71v36.1a.837.837,0,0,0,.9.71h15.527c1.163,0,1.165-1.42,0-1.42" transform="translate(-315.911 -361.607)" fill="#424243"/>
        <path id="Trazado_710570" data-name="Trazado 710570" d="M571.156,580.661H555.628l.9.71v-36.1l-.9.71h15.528l-.9-.71v36.1c0,.914,1.807.915,1.807,0v-36.1a.837.837,0,0,0-.9-.71H555.628a.837.837,0,0,0-.9.71v36.1a.837.837,0,0,0,.9.71h15.528c1.163,0,1.165-1.42,0-1.42" transform="translate(-368.357 -361.607)" fill="#424243"/>
        <path id="Trazado_710571" data-name="Trazado 710571" d="M650.508,580.661H634.981l.9.71v-36.1l-.9.71h15.527l-.9-.71v36.1c0,.914,1.807.915,1.807,0v-36.1a.837.837,0,0,0-.9-.71H634.981a.837.837,0,0,0-.9.71v36.1a.837.837,0,0,0,.9.71h15.527c1.163,0,1.165-1.42,0-1.42" transform="translate(-421.05 -361.607)" fill="#424243"/>
        <path id="Trazado_710572" data-name="Trazado 710572" d="M545.3,2.984,528.4,28.146l54.511.668L596.882,3.4Z" transform="translate(-350.874 -1.982)" fill="#f0f1f1"/>
        <path id="Trazado_710573" data-name="Trazado 710573" d="M580.527,27.836H527.353a1.936,1.936,0,0,1-1.611-3.01h0L541.71.864A1.931,1.931,0,0,1,543.321,0h50.807a1.936,1.936,0,0,1,1.684,2.892l-13.6,23.962a1.939,1.939,0,0,1-1.684.981m-53.046-2h53.006L594.011,2.005H543.357Z" transform="translate(-348.896 -0.001)" fill="#424243"/>
        <path id="Trazado_710574" data-name="Trazado 710574" d="M648.107,27.836a1,1,0,0,1-.859-1.518L662.732.487a1,1,0,0,1,1.719,1.031L648.967,27.349a1,1,0,0,1-.86.487" transform="translate(-429.701 0)" fill="#424243"/>
        <path id="Trazado_710575" data-name="Trazado 710575" d="M607.119,27.836a1,1,0,0,1-.859-1.518L621.743.487a1,1,0,0,1,1.719,1.031L607.979,27.349a1,1,0,0,1-.86.487" transform="translate(-402.484 0)" fill="#424243"/>
        <path id="Trazado_710576" data-name="Trazado 710576" d="M567.785,27.836a1,1,0,0,1-.859-1.518L582.41.487a1,1,0,0,1,1.719,1.031L568.645,27.349a1,1,0,0,1-.86.487" transform="translate(-376.364 0)" fill="#424243"/>
        <path id="Trazado_710577" data-name="Trazado 710577" d="M613.278,25.494H559.587a1,1,0,1,1,0-2h53.691a1,1,0,1,1,0,2" transform="translate(-370.921 -15.598)" fill="#424243"/>
        <path id="Trazado_710578" data-name="Trazado 710578" d="M596.145,53.89H542.454a1,1,0,1,1,0-2h53.691a1,1,0,1,1,0,2" transform="translate(-359.544 -34.454)" fill="#424243"/>
        <rect id="Rectángulo_346430" data-name="Rectángulo 346430" width="3.279" height="12.992" transform="translate(203.996 26.833)" fill="#424243"/>
        <path id="Trazado_710579" data-name="Trazado 710579" d="M334.524,2.984l-16.9,25.162,54.511.668L386.106,3.4Z" transform="translate(-210.912 -1.982)" fill="#f0f1f1"/>
        <path id="Trazado_710580" data-name="Trazado 710580" d="M369.75,27.836H316.577a1.936,1.936,0,0,1-1.611-3.01h0L330.934.864A1.931,1.931,0,0,1,332.545,0h50.807a1.936,1.936,0,0,1,1.684,2.892l-13.6,23.962a1.939,1.939,0,0,1-1.684.981m-53.046-2h53.006L383.235,2.005H332.581Z" transform="translate(-208.933 -0.001)" fill="#424243"/>
        <path id="Trazado_710581" data-name="Trazado 710581" d="M437.331,27.836a1,1,0,0,1-.859-1.518L451.956.487a1,1,0,0,1,1.719,1.031L438.191,27.349a1,1,0,0,1-.86.487" transform="translate(-289.738 0)" fill="#424243"/>
        <path id="Trazado_710582" data-name="Trazado 710582" d="M396.343,27.836a1,1,0,0,1-.859-1.518L410.968.487a1,1,0,0,1,1.719,1.031L397.2,27.349a1,1,0,0,1-.86.487" transform="translate(-262.521 0)" fill="#424243"/>
        <path id="Trazado_710583" data-name="Trazado 710583" d="M357.009,27.836a1,1,0,0,1-.859-1.518L371.634.487a1,1,0,0,1,1.719,1.031L357.869,27.349a1,1,0,0,1-.86.487" transform="translate(-236.402 0)" fill="#424243"/>
        <path id="Trazado_710584" data-name="Trazado 710584" d="M402.5,25.494H348.811a1,1,0,0,1,0-2H402.5a1,1,0,0,1,0,2" transform="translate(-230.958 -15.598)" fill="#424243"/>
        <path id="Trazado_710585" data-name="Trazado 710585" d="M385.369,53.89H331.678a1,1,0,0,1,0-2h53.691a1,1,0,0,1,0,2" transform="translate(-219.581 -34.454)" fill="#424243"/>
        <rect id="Rectángulo_346431" data-name="Rectángulo 346431" width="3.279" height="12.992" transform="translate(133.183 26.833)" fill="#424243"/>
        <path id="Trazado_710586" data-name="Trazado 710586" d="M809.5,500.044a27.34,27.34,0,1,1-27.34-27.34,27.341,27.341,0,0,1,27.34,27.34" transform="translate(-501.227 -313.892)" fill="#008b8a"/>
        <path id="Trazado_710587" data-name="Trazado 710587" d="M803.924,496.3A25.427,25.427,0,1,1,783.5,471.36a25.683,25.683,0,0,1,20.427,24.94c.024,2.459,3.848,2.465,3.824,0a29.255,29.255,0,1,0-23.489,28.679c13.6-2.636,23.356-14.975,23.489-28.679.024-2.461-3.8-2.463-3.824,0" transform="translate(-497.564 -310.148)" fill="#424243"/>
        <path id="Trazado_710588" data-name="Trazado 710588" d="M804.45,568.884l8.986,10.324-.56-1.352v29.6a1.913,1.913,0,0,0,3.824,0v-28.27a5.508,5.508,0,0,0-.165-2.072,12,12,0,0,0-2.193-2.68l-7.189-8.26c-1.619-1.86-4.313.854-2.7,2.7" transform="translate(-533.855 -375.55)" fill="#424243"/>
        <path id="Trazado_710589" data-name="Trazado 710589" d="M833.575,590.142l12.045-9.575c1.926-1.531-.8-4.22-2.7-2.7l-12.045,9.575c-1.926,1.531.8,4.22,2.7,2.7" transform="translate(-551.291 -383.424)" fill="#424243"/>
        <path id="Trazado_710590" data-name="Trazado 710590" d="M917.862,545.879a23.132,23.132,0,1,1-23.132-23.132,23.132,23.132,0,0,1,23.132,23.132" transform="translate(-578.773 -347.123)" fill="#00d3d0"/>
        <path id="Trazado_710591" data-name="Trazado 710591" d="M912.273,542.133a21.219,21.219,0,1,1-17.258-20.855,21.446,21.446,0,0,1,17.258,20.855c.028,2.459,3.852,2.465,3.824,0a25.047,25.047,0,1,0-20.32,24.592c11.751-2.164,20.186-12.787,20.32-24.592.028-2.461-3.8-2.463-3.824,0" transform="translate(-575.096 -343.377)" fill="#424243"/>
        <path id="Trazado_710592" data-name="Trazado 710592" d="M912.819,603.729l7.6,8.735-.56-1.352v25.047a1.913,1.913,0,0,0,3.824,0V612.211a4.239,4.239,0,0,0-.261-2.063,13.035,13.035,0,0,0-1.777-2.086l-6.124-7.036c-1.619-1.859-4.313.854-2.7,2.7" transform="translate(-605.816 -398.688)" fill="#424243"/>
        <path id="Trazado_710593" data-name="Trazado 710593" d="M937.827,621.767l10.191-8.1c1.926-1.531-.8-4.22-2.7-2.7l-10.191,8.1c-1.926,1.531.8,4.22,2.7,2.7" transform="translate(-620.518 -405.403)" fill="#424243"/>
        <path id="Trazado_710594" data-name="Trazado 710594" d="M120.79,574.91c-.022-.275-.038-.551-.038-.831,0-6.453,6.042-11.741,13.723-12.249,2.365-4.22,7.547-7.151,13.563-7.151,6.8,0,12.535,3.744,14.339,8.863.067,0,.134,0,.2,0,7.189,0,13.017,4.8,13.017,10.716,0,.22-.011.438-.027.656Z" transform="translate(-80.184 -368.328)" fill="#5dd0cf"/>
        <path id="Trazado_710595" data-name="Trazado 710595" d="M116.628,572.961c-.341-7.508,6.234-13.478,15.1-14.258l-1.222.584c6.616-11.015,25.988-9.636,30.489,1.994l-1.365-.865c8.306-.172,14.881,5.763,14.607,12.546a1.337,1.337,0,0,1-1.415,1.179H118.043a1.192,1.192,0,1,1,0-2.358h54.779l-1.415,1.179c.224-5.53-4.964-10.329-11.777-10.188a1.431,1.431,0,0,1-1.365-.865c-3.17-8.192-16.122-10.774-23.13-4.21-1.09,1.02-1.673,2.855-3.219,3.343-.984.31-2.216.268-3.25.551a14.943,14.943,0,0,0-3.086,1.223,10.806,10.806,0,0,0-6.121,10.147c.069,1.518-2.762,1.515-2.831,0" transform="translate(-77.437 -366.378)" fill="#424243"/>
        <rect id="Rectángulo_346432" data-name="Rectángulo 346432" width="57.987" height="4.649" transform="translate(38.383 203.917)" fill="#f0f1f1"/>
        <path id="Trazado_710596" data-name="Trazado 710596" d="M111.567,608.82h57.987l-1.356.937v-4.649l1.356.937H111.567l1.355-.937v4.649c0,1.205-2.711,1.207-2.711,0v-4.649c0-.507.621-.937,1.355-.937h57.987c.733,0,1.355.429,1.355.937v4.649c0,.506-.621.937-1.355.937H111.567c-1.744,0-1.747-1.874,0-1.874" transform="translate(-73.185 -401.191)" fill="#424243"/>
        <rect id="Rectángulo_346433" data-name="Rectángulo 346433" width="46.594" height="23.765" transform="translate(44.079 208.52)" fill="#f0f1f1"/>
        <path id="Trazado_710597" data-name="Trazado 710597" d="M128.522,641.639h46.594l-1.355.937V618.811l1.355.937H128.522l1.355-.937v23.765c0,1.205-2.711,1.207-2.711,0V618.811c0-.506.621-.937,1.355-.937h46.594c.733,0,1.356.429,1.356.937v23.765c0,.506-.621.937-1.356.937H128.522c-1.744,0-1.747-1.874,0-1.874" transform="translate(-84.443 -410.291)" fill="#424243"/>
        <path id="Trazado_710598" data-name="Trazado 710598" d="M51.8,530.783a23.132,23.132,0,1,1-23.132-23.132A23.132,23.132,0,0,1,51.8,530.783" transform="translate(-3.677 -337.099)" fill="#008e8b"/>
        <path id="Trazado_710599" data-name="Trazado 710599" d="M46.212,527.037a21.446,21.446,0,0,1-13.79,19.889,21.228,21.228,0,1,1-3.467-40.744,21.472,21.472,0,0,1,17.258,20.855c.028,2.459,3.852,2.465,3.824,0a25.374,25.374,0,0,0-16.358-23.488,25.2,25.2,0,0,0-27.907,7.447,25.034,25.034,0,0,0,23.944,40.634c11.751-2.164,20.186-12.787,20.32-24.592.028-2.461-3.8-2.463-3.824,0" transform="translate(0 -333.352)" fill="#424243"/>
        <path id="Trazado_710600" data-name="Trazado 710600" d="M46.758,588.632l7.6,8.735-.56-1.352v25.047a1.913,1.913,0,0,0,3.824,0V597.113a4.239,4.239,0,0,0-.261-2.063,13.035,13.035,0,0,0-1.777-2.086l-6.124-7.036c-1.619-1.86-4.313.854-2.7,2.7" transform="translate(-30.721 -388.663)" fill="#424243"/>
        <path id="Trazado_710601" data-name="Trazado 710601" d="M71.766,606.671l10.191-8.1c1.926-1.531-.8-4.22-2.7-2.7l-10.191,8.1c-1.926,1.531.8,4.22,2.7,2.7" transform="translate(-45.422 -395.379)" fill="#424243"/>
        <g id="Grupo_1002282" data-name="Grupo 1002282" transform="translate(89.982 104.979)" opacity="0.18">
          <g id="Grupo_1002281" data-name="Grupo 1002281">
            <g id="Grupo_1002280" data-name="Grupo 1002280" clip-path="url(#clip-path-6)">
              <rect id="Rectángulo_346434" data-name="Rectángulo 346434" width="155.034" height="5.848" transform="translate(0 0)" fill="#272525"/>
            </g>
          </g>
        </g>
      </g>
    </g>
  </g>
</svg>
