<svg id="Grupo_1002603" data-name="Grupo 1002603" xmlns="http://www.w3.org/2000/svg" xmlns:xlink="http://www.w3.org/1999/xlink" width="224.784" height="176.423" viewBox="0 0 224.784 176.423">
  <defs>
    <clipPath id="clip-path">
      <rect id="Rectángulo_346612" data-name="Rectángulo 346612" width="224.784" height="176.423" fill="none"/>
    </clipPath>
    <clipPath id="clip-path-5">
      <rect id="Rectángulo_346597" data-name="Rectángulo 346597" width="10.493" height="105.336" fill="none"/>
    </clipPath>
    <clipPath id="clip-path-7">
      <rect id="Rectángulo_346600" data-name="Rectángulo 346600" width="28.63" height="14.594" fill="none"/>
    </clipPath>
    <clipPath id="clip-path-8">
      <rect id="Rectángulo_346601" data-name="Rectángulo 346601" width="36.872" height="18.795" fill="none"/>
    </clipPath>
    <clipPath id="clip-path-9">
      <rect id="Rectángulo_346602" data-name="Rectángulo 346602" width="29.957" height="10.761" fill="none"/>
    </clipPath>
    <clipPath id="clip-path-13">
      <rect id="Rectángulo_346606" data-name="Rectángulo 346606" width="1.178" height="1.175" fill="none"/>
    </clipPath>
    <clipPath id="clip-path-15">
      <rect id="Rectángulo_346608" data-name="Rectángulo 346608" width="17.709" height="1.572" fill="none"/>
    </clipPath>
    <clipPath id="clip-path-16">
      <rect id="Rectángulo_346609" data-name="Rectángulo 346609" width="17.217" height="5.676" fill="none"/>
    </clipPath>
    <clipPath id="clip-path-17">
      <rect id="Rectángulo_346610" data-name="Rectángulo 346610" width="7.829" height="16.816" fill="none"/>
    </clipPath>
  </defs>
  <g id="Grupo_1002602" data-name="Grupo 1002602" clip-path="url(#clip-path)">
    <path id="Trazado_711699" data-name="Trazado 711699" d="M0,101.4l7.371,5.256,16.576,4.038,6.571-24.61L6.015,79.6Z" transform="translate(0 -47.856)" fill="#f5f5f5"/>
    <g id="Grupo_1002563" data-name="Grupo 1002563">
      <g id="Grupo_1002562" data-name="Grupo 1002562" clip-path="url(#clip-path)">
        <path id="Trazado_711700" data-name="Trazado 711700" d="M3.2,131.813l-3.2.976a9.73,9.73,0,0,0,2.589,3.017,14.062,14.062,0,0,0,4.782,2.239A9.343,9.343,0,0,1,3.2,131.813" transform="translate(0 -79.246)" fill="#ebebeb"/>
        <path id="Trazado_711701" data-name="Trazado 711701" d="M36.429,106.139c-.011.041-4.191-1.028-9.335-2.386s-9.308-2.493-9.3-2.533,4.19,1.027,9.336,2.386,9.307,2.492,9.3,2.533" transform="translate(-10.699 -60.853)" fill="#e0e0e0"/>
        <path id="Trazado_711702" data-name="Trazado 711702" d="M34,114.511c-.011.041-4.191-1.028-9.335-2.386s-9.308-2.493-9.3-2.533,4.19,1.028,9.336,2.386,9.307,2.492,9.3,2.533" transform="translate(-9.239 -65.886)" fill="#e0e0e0"/>
        <path id="Trazado_711703" data-name="Trazado 711703" d="M32.288,122.05c-.011.041-4.191-1.028-9.335-2.386s-9.308-2.493-9.3-2.533,4.19,1.027,9.336,2.386,9.307,2.492,9.3,2.533" transform="translate(-8.21 -70.418)" fill="#e0e0e0"/>
        <path id="Trazado_711704" data-name="Trazado 711704" d="M30.34,129.228c-.011.041-4.191-1.028-9.335-2.386s-9.308-2.493-9.3-2.533,4.19,1.028,9.336,2.386,9.307,2.492,9.3,2.533" transform="translate(-7.039 -74.734)" fill="#e0e0e0"/>
        <path id="Trazado_711705" data-name="Trazado 711705" d="M509.87,246.765l-4.587,16.625L510.9,267.4l12.642,3.08,5.012-18.77Z" transform="translate(-303.775 -148.355)" fill="#f5f5f5"/>
        <path id="Trazado_711706" data-name="Trazado 711706" d="M507.725,286.587l-2.442.744a7.422,7.422,0,0,0,1.974,2.3,10.723,10.723,0,0,0,3.647,1.708,7.127,7.127,0,0,1-3.18-4.753" transform="translate(-303.775 -172.296)" fill="#ebebeb"/>
        <path id="Trazado_711707" data-name="Trazado 711707" d="M533.067,267.006c-.008.031-3.2-.784-7.12-1.82s-7.1-1.9-7.091-1.932,3.2.784,7.12,1.82,7.1,1.9,7.09,1.932" transform="translate(-311.936 -158.268)" fill="#e0e0e0"/>
        <path id="Trazado_711708" data-name="Trazado 711708" d="M531.213,273.391c-.008.031-3.2-.784-7.12-1.82s-7.1-1.9-7.091-1.932,3.2.784,7.12,1.82,7.1,1.9,7.09,1.932" transform="translate(-310.821 -162.106)" fill="#e0e0e0"/>
        <path id="Trazado_711709" data-name="Trazado 711709" d="M529.909,279.14c-.008.031-3.2-.784-7.12-1.819s-7.1-1.9-7.091-1.932,3.2.784,7.12,1.82,7.1,1.9,7.09,1.932" transform="translate(-310.037 -165.563)" fill="#e0e0e0"/>
        <path id="Trazado_711710" data-name="Trazado 711710" d="M528.423,284.615c-.008.031-3.2-.784-7.12-1.819s-7.1-1.9-7.091-1.932,3.2.784,7.12,1.82,7.1,1.9,7.09,1.932" transform="translate(-309.144 -168.854)" fill="#e0e0e0"/>
      </g>
    </g>
    <g id="Grupo_1002565" data-name="Grupo 1002565">
      <g id="Grupo_1002564" data-name="Grupo 1002564" clip-path="url(#clip-path)">
        <path id="Trazado_711711" data-name="Trazado 711711" d="M252.3,429.827s.219-.008.668-.012l2.049-.011v.046l-97.72.081-71.03-.03-21.525-.033-5.852-.02-1.522-.01c-.343,0-.519-.011-.519-.011s.176-.007.519-.011l1.522-.01,5.852-.02,21.525-.033,71.03-.03,97.72.081v.046l-2.049-.011c-.449,0-.668-.012-.668-.012" transform="translate(-34.178 -258.349)" fill="#263238"/>
      </g>
    </g>
    <g id="Grupo_1002570" data-name="Grupo 1002570">
      <g id="Grupo_1002569" data-name="Grupo 1002569" clip-path="url(#clip-path)">
        <path id="Trazado_711712" data-name="Trazado 711712" d="M141.2,25.652H120.973a1.714,1.714,0,0,1-1.712-1.8l.41-8.57a1.715,1.715,0,0,1,1.712-1.632h20.228a1.715,1.715,0,0,1,1.712,1.8l-.41,8.57a1.714,1.714,0,0,1-1.712,1.632" transform="translate(-71.698 -8.208)" fill="#fafafa"/>
        <path id="Trazado_711713" data-name="Trazado 711713" d="M141.056,25.5a2.116,2.116,0,0,0,.667-.159,1.7,1.7,0,0,0,1.008-1.553c.076-1.739.184-4.238.318-7.321-.007-.758.249-1.642-.317-2.283a1.612,1.612,0,0,0-1.048-.584c-.415-.032-.879-.007-1.329-.014l-5.808.01-13.308.008a1.62,1.62,0,0,0-1.378.776,1.643,1.643,0,0,0-.234.777q-.02.434-.041.864-.084,1.723-.164,3.392t-.16,3.273q-.02.4-.039.8a2.012,2.012,0,0,0,.051.751,1.624,1.624,0,0,0,.95,1.05,1.77,1.77,0,0,0,.71.119h.753l1.474,0,2.819.005,5.06.013,7.328.033,1.992.02.518.01a1.112,1.112,0,0,1,.177.011,1.113,1.113,0,0,1-.177.011l-.518.01-1.992.02-7.328.033-5.06.013-2.819.005-1.474,0h-.753a1.961,1.961,0,0,1-.782-.13,1.814,1.814,0,0,1-1.065-1.173,2.185,2.185,0,0,1-.061-.816q.019-.4.037-.8.076-1.6.155-3.274t.161-3.392q.021-.43.041-.864a1.819,1.819,0,0,1,1.818-1.751l13.308.008,5.808.01c.459.009.891-.016,1.351.021a1.778,1.778,0,0,1,1.151.648,1.8,1.8,0,0,1,.4,1.2l-.06,1.186c-.161,3.082-.292,5.58-.383,7.318a1.762,1.762,0,0,1-.394,1.081,1.719,1.719,0,0,1-.679.506,1.739,1.739,0,0,1-.506.122c-.118,0-.177,0-.177,0" transform="translate(-71.552 -8.052)" fill="#263238"/>
        <path id="Trazado_711714" data-name="Trazado 711714" d="M332.084,32.518l.866-5.416,3.69-2.144,3.029,3.248-.913,5.555Z" transform="translate(-199.648 -15.005)" fill="#12263f"/>
        <path id="Trazado_711715" data-name="Trazado 711715" d="M252.783,47.61l-4.477,98.272-72.2-2.052-4.3-7.5,7.765-91.333,67.2-4.448Z" transform="translate(-103.29 -24.376)" fill="#e0e0e0"/>
        <g id="Grupo_1002568" data-name="Grupo 1002568" transform="translate(139 16.17)" opacity="0.3">
          <g id="Grupo_1002567" data-name="Grupo 1002567">
            <g id="Grupo_1002566" data-name="Grupo 1002566" clip-path="url(#clip-path-5)">
              <path id="Trazado_711716" data-name="Trazado 711716" d="M354.561,145.883l-6.016-7.064,4.477-98.272,6.016,7.064Z" transform="translate(-348.545 -40.547)"/>
            </g>
          </g>
        </g>
        <path id="Trazado_711717" data-name="Trazado 711717" d="M246.768,39.048l-4.477,98.272-70.483-2.492,5.332-96.774Z" transform="translate(-103.29 -22.878)" fill="#fafafa"/>
        <path id="Trazado_711718" data-name="Trazado 711718" d="M246.6,38.92l-69.63-.91.085-.079c-1.484,27.043-3.323,60.541-5.312,96.775l-.1-.11,1.164.041,69.319,2.46-.1.09c2.7-58.036,4.533-97.429,4.572-98.268-.037.838-1.794,40.236-4.383,98.277l0,.093-.094,0L172.8,134.846l-1.163-.041-.106,0,.006-.106c2-36.233,3.856-69.73,5.352-96.773l0-.081h.081L246.6,38.92" transform="translate(-103.125 -22.75)" fill="#263238"/>
        <path id="Trazado_711719" data-name="Trazado 711719" d="M204.148,93.261l24.614.722a.936.936,0,0,0,.963-.908l.027-.922a.936.936,0,0,0-.908-.963l-24.614-.721a.936.936,0,0,0-.963.908l-.027.922a.936.936,0,0,0,.908.963" transform="translate(-122.188 -54.389)" fill="#e0e0e0"/>
        <path id="Trazado_711720" data-name="Trazado 711720" d="M203.553,106.807l24.614.722a.936.936,0,0,0,.963-.908l.027-.922a.936.936,0,0,0-.908-.963l-24.614-.721a.936.936,0,0,0-.963.908l-.027.922a.936.936,0,0,0,.908.963" transform="translate(-121.83 -62.532)" fill="#e0e0e0"/>
        <path id="Trazado_711721" data-name="Trazado 711721" d="M202.958,120.353l24.614.722a.936.936,0,0,0,.963-.908l.027-.922a.936.936,0,0,0-.908-.963l-24.614-.721a.936.936,0,0,0-.963.908l-.027.922a.936.936,0,0,0,.908.963" transform="translate(-121.472 -70.676)" fill="#e0e0e0"/>
        <path id="Trazado_711722" data-name="Trazado 711722" d="M202.363,133.9l24.614.722a.936.936,0,0,0,.963-.908l.027-.922a.936.936,0,0,0-.908-.963l-24.614-.721a.936.936,0,0,0-.963.908l-.027.922a.936.936,0,0,0,.908.963" transform="translate(-121.114 -78.819)" fill="#e0e0e0"/>
        <path id="Trazado_711723" data-name="Trazado 711723" d="M201.768,147.444l24.614.722a.936.936,0,0,0,.963-.908l.027-.922a.936.936,0,0,0-.908-.963l-24.614-.721a.936.936,0,0,0-.963.908l-.027.922a.936.936,0,0,0,.908.963" transform="translate(-120.757 -86.963)" fill="#e0e0e0"/>
        <path id="Trazado_711724" data-name="Trazado 711724" d="M201.173,160.99l24.614.722a.936.936,0,0,0,.963-.908l.027-.922a.936.936,0,0,0-.908-.963l-24.614-.721a.936.936,0,0,0-.963.908l-.027.922a.936.936,0,0,0,.908.963" transform="translate(-120.399 -95.107)" fill="#e0e0e0"/>
        <path id="Trazado_711725" data-name="Trazado 711725" d="M200.578,174.536l24.614.722a.936.936,0,0,0,.963-.908l.028-.922a.936.936,0,0,0-.908-.963l-24.614-.721a.936.936,0,0,0-.963.908l-.027.922a.935.935,0,0,0,.908.963" transform="translate(-120.041 -103.251)" fill="#e0e0e0"/>
        <path id="Trazado_711726" data-name="Trazado 711726" d="M274.375,163.016l24.614.722a.936.936,0,0,0,.963-.908l.027-.922a.936.936,0,0,0-.908-.963l-24.614-.721a.936.936,0,0,0-.963.908l-.027.922a.936.936,0,0,0,.908.963" transform="translate(-164.408 -96.325)" fill="#e0e0e0"/>
        <path id="Trazado_711727" data-name="Trazado 711727" d="M273.78,176.562l24.614.722a.936.936,0,0,0,.963-.908l.027-.922a.936.936,0,0,0-.908-.963l-24.614-.721a.936.936,0,0,0-.963.908l-.027.922a.936.936,0,0,0,.908.963" transform="translate(-164.05 -104.469)" fill="#e0e0e0"/>
        <path id="Trazado_711728" data-name="Trazado 711728" d="M273.062,190.846l24.614.721a.935.935,0,0,0,.963-.908l.027-.922a.936.936,0,0,0-.908-.963l-24.614-.721a.936.936,0,0,0-.963.908l-.027.922a.936.936,0,0,0,.908.963" transform="translate(-163.618 -113.056)" fill="#e0e0e0"/>
        <path id="Trazado_711729" data-name="Trazado 711729" d="M272.344,205.131l24.614.721a.935.935,0,0,0,.963-.908l.027-.922a.936.936,0,0,0-.908-.963l-24.614-.721a.936.936,0,0,0-.963.908l-.027.922a.936.936,0,0,0,.908.963" transform="translate(-163.187 -121.645)" fill="#e0e0e0"/>
        <path id="Trazado_711730" data-name="Trazado 711730" d="M271.626,219.415l24.614.722a.936.936,0,0,0,.963-.908l.027-.922a.936.936,0,0,0-.908-.963l-24.614-.721a.936.936,0,0,0-.963.908l-.027.922a.936.936,0,0,0,.908.963" transform="translate(-162.755 -130.232)" fill="#e0e0e0"/>
        <path id="Trazado_711731" data-name="Trazado 711731" d="M270.907,233.7l24.614.721a.935.935,0,0,0,.963-.908l.027-.922a.936.936,0,0,0-.908-.963l-24.614-.721a.936.936,0,0,0-.963.908l-.027.922a.936.936,0,0,0,.908.963" transform="translate(-162.323 -138.82)" fill="#e0e0e0"/>
        <path id="Trazado_711732" data-name="Trazado 711732" d="M270.189,247.983l24.614.721a.935.935,0,0,0,.963-.908l.027-.922a.936.936,0,0,0-.908-.963l-24.614-.721a.936.936,0,0,0-.963.908l-.027.922a.936.936,0,0,0,.908.963" transform="translate(-161.891 -147.407)" fill="#e0e0e0"/>
        <path id="Trazado_711733" data-name="Trazado 711733" d="M194.518,258.632l54.324,1.593a.936.936,0,0,0,.963-.908l.027-.922a.936.936,0,0,0-.908-.963L194.6,255.838a.936.936,0,0,0-.963.908l-.027.922a.936.936,0,0,0,.908.963" transform="translate(-116.398 -153.809)" fill="#e0e0e0"/>
        <path id="Trazado_711734" data-name="Trazado 711734" d="M205.215,75.623l16.6.487a.936.936,0,0,0,.963-.908l.027-.922a.935.935,0,0,0-.908-.963l-16.6-.487a.936.936,0,0,0-.963.908l-.027.922a.936.936,0,0,0,.908.963" transform="translate(-122.829 -43.785)" fill="#e0e0e0"/>
        <path id="Trazado_711735" data-name="Trazado 711735" d="M181.572,149.775s.116.01.343.021l1.01.043,3.9.148,14.475.51,48.9,1.651.1,0,0-.1c.185-3.886.378-7.961.575-12.109,1.043-22.288,1.988-42.462,2.672-57.071.331-7.3.6-13.207.785-17.3.088-2.039.156-3.623.2-4.7q.031-.8.047-1.223c.009-.276.009-.417.009-.417s-.014.141-.031.416-.039.689-.069,1.222l-.243,4.7c-.2,4.088-.493,9.994-.853,17.292-.7,14.607-1.667,34.781-2.735,57.067-.2,4.148-.389,8.222-.573,12.109l.11-.1-48.9-1.58-14.477-.446-3.9-.11-1.011-.024c-.227,0-.344,0-.344,0" transform="translate(-109.161 -35.608)" fill="#263238"/>
        <path id="Trazado_711736" data-name="Trazado 711736" d="M195.932,155.194s.109.01.324.022l.953.043,3.684.15,13.7.523,46.463,1.7.1,0,.006-.1c.247-4.689.5-9.566.768-14.549,1.146-21.992,2.184-41.9,2.935-56.312.365-7.2.66-13.032.865-17.066.1-2.012.173-3.574.224-4.64q.035-.791.053-1.207c.011-.272.01-.412.01-.412s-.014.139-.032.41-.042.68-.074,1.206c-.061,1.066-.15,2.628-.265,4.638-.221,4.033-.539,9.861-.933,17.062-.767,14.413-1.827,34.319-3,56.309-.262,4.984-.518,9.861-.764,14.549l.109-.1-46.465-1.632-13.7-.46-3.685-.114-.954-.025c-.215,0-.325,0-.325,0" transform="translate(-117.794 -38.086)" fill="#263238"/>
        <path id="Trazado_711737" data-name="Trazado 711737" d="M254.456,35.829l1.064-1.042,12.693.062.615,1.161Z" transform="translate(-152.978 -20.914)" fill="#263238"/>
        <rect id="Rectángulo_346598" data-name="Rectángulo 346598" width="6.048" height="14.373" transform="translate(101.401 20.962) rotate(-89.278)" fill="#263238"/>
        <path id="Trazado_711738" data-name="Trazado 711738" d="M268.347,52.173l0-.209a.5.5,0,0,0-.493-.506l-14.371-.181a.5.5,0,0,0-.506.493l0,.209a.5.5,0,0,0,.493.506l14.371.181a.5.5,0,0,0,.506-.493" transform="translate(-152.089 -30.828)" fill="#263238"/>
        <path id="Trazado_711739" data-name="Trazado 711739" d="M269.9,31.424h-.007l-6.321-.08a.558.558,0,0,1-.516-.752l1.862-5.007a3.3,3.3,0,1,1,3.85.064l1.662,5.043a.557.557,0,0,1-.529.732m-3.013-11.389h-.077a2.948,2.948,0,0,0-2.826,2.944,2.905,2.905,0,0,0,1.285,2.366l.13.088-1.97,5.3a.158.158,0,0,0,.018.145.156.156,0,0,0,.129.069l6.321.08a.153.153,0,0,0,.13-.065.158.158,0,0,0,.023-.144l-1.759-5.336.132-.083a2.9,2.9,0,0,0-1.537-5.363" transform="translate(-158.128 -11.805)" fill="#455a64"/>
        <path id="Trazado_711740" data-name="Trazado 711740" d="M268.671,51.438a.7.7,0,0,0-.145-.008l-.412-.01-1.519-.032-5.014-.082-5.015-.056-1.52,0-.413,0a.68.68,0,0,0-.144.01.671.671,0,0,0,.144.014l.413.018,1.519.042c1.283.03,3.056.063,5.015.091s3.731.044,5.014.047c.642,0,1.161,0,1.52-.006.18,0,.319-.006.414-.012a.651.651,0,0,0,.143-.016" transform="translate(-152.998 -30.808)" fill="#455a64"/>
        <path id="Trazado_711741" data-name="Trazado 711741" d="M269.186,37.251a.7.7,0,0,0-.145-.008l-.412-.01-1.519-.032-5.014-.082-5.015-.056-1.52,0-.413,0a.68.68,0,0,0-.144.01.672.672,0,0,0,.144.014l.413.018,1.519.042c1.283.03,3.056.063,5.015.091s3.731.044,5.014.047c.642,0,1.161,0,1.52-.006.18,0,.319-.006.414-.012a.653.653,0,0,0,.144-.016" transform="translate(-153.307 -22.279)" fill="#455a64"/>
        <path id="Trazado_711742" data-name="Trazado 711742" d="M219.324,211.851l-17.363-.509a3.56,3.56,0,0,1-3.454-3.662l.445-15.162a3.559,3.559,0,0,1,3.662-3.453l17.364.509a3.559,3.559,0,0,1,3.453,3.662l-.444,15.162a3.56,3.56,0,0,1-3.662,3.454" transform="translate(-119.341 -113.664)" fill="#ebebeb"/>
        <path id="Trazado_711743" data-name="Trazado 711743" d="M198.527,216.887a.6.6,0,0,1,.264-.475l8.014-5.378a1.658,1.658,0,0,1,2.118.039.552.552,0,0,0,.106.073l3.632,1.865a.6.6,0,0,0,.692-.1l5.5-5.381a1.708,1.708,0,0,1,2.473.211l1.766,2.217a.6.6,0,0,1,.13.378l-.084,8.953a3.381,3.381,0,0,1-3.488,3.348l-17.916-.566a3.382,3.382,0,0,1-3.272-3.5Z" transform="translate(-119.316 -124.503)" fill="#e0e0e0"/>
        <path id="Trazado_711744" data-name="Trazado 711744" d="M220.924,200.573a2.448,2.448,0,1,1-2.557-2.333,2.448,2.448,0,0,1,2.557,2.333" transform="translate(-129.877 -119.18)" fill="#e0e0e0"/>
        <path id="Trazado_711745" data-name="Trazado 711745" d="M298.645,117.269l-17.363-.509a3.56,3.56,0,0,1-3.454-3.662l.445-15.162a3.559,3.559,0,0,1,3.662-3.453l17.364.509a3.559,3.559,0,0,1,3.453,3.662l-.444,15.162a3.56,3.56,0,0,1-3.662,3.454" transform="translate(-167.029 -56.802)" fill="#ebebeb"/>
        <path id="Trazado_711746" data-name="Trazado 711746" d="M277.89,122l8.268-5.548a1.658,1.658,0,0,1,2.167.082l4.073,2.091,5.811-5.682a1.708,1.708,0,0,1,2.473.211l1.9,2.383-.08,8.571a3.963,3.963,0,0,1-4.088,3.924l-16.738-.529a3.963,3.963,0,0,1-3.835-4.106Z" transform="translate(-167.035 -67.641)" fill="#e0e0e0"/>
        <path id="Trazado_711747" data-name="Trazado 711747" d="M300.245,105.992a2.448,2.448,0,1,1-2.557-2.333,2.448,2.448,0,0,1,2.557,2.333" transform="translate(-177.565 -62.318)" fill="#e0e0e0"/>
        <path id="Trazado_711748" data-name="Trazado 711748" d="M205.792,119.01a1.049,1.049,0,0,1-.321-.09,1.77,1.77,0,0,1-.73-.617,2.073,2.073,0,0,1-.356-1.463,2.912,2.912,0,0,1,.968-1.747,5.082,5.082,0,0,1,2.18-1.072,11.988,11.988,0,0,1,2.765-.357,12.181,12.181,0,0,1,6.138,1.557,4.479,4.479,0,0,1,1.3,1.092,2.708,2.708,0,0,1,.584,1.552,2.072,2.072,0,0,1-.583,1.49,3.426,3.426,0,0,1-1.3.814,8.784,8.784,0,0,1-2.754.445,15.689,15.689,0,0,1-2.424-.1,15.176,15.176,0,0,1-3.405-.822c-.388-.144-.684-.269-.881-.363a1.892,1.892,0,0,1-.3-.15,2.047,2.047,0,0,1,.313.112c.2.081.5.193.892.325a16.213,16.213,0,0,0,3.4.752,15.914,15.914,0,0,0,2.4.079,8.711,8.711,0,0,0,2.693-.452,3.242,3.242,0,0,0,1.22-.77,1.873,1.873,0,0,0,.524-1.349,2.509,2.509,0,0,0-.544-1.431,4.294,4.294,0,0,0-1.242-1.039,12.1,12.1,0,0,0-6.031-1.545,11.967,11.967,0,0,0-2.724.333,4.968,4.968,0,0,0-2.124,1.015,2.8,2.8,0,0,0-.951,1.654,2.006,2.006,0,0,0,.308,1.4,1.809,1.809,0,0,0,.681.624c.193.095.307.116.3.128" transform="translate(-122.864 -68.334)" fill="#263238"/>
        <path id="Trazado_711749" data-name="Trazado 711749" d="M231.638,258.706a1.049,1.049,0,0,1-.321-.09,1.77,1.77,0,0,1-.73-.617,2.076,2.076,0,0,1-.357-1.463,2.913,2.913,0,0,1,.968-1.747,5.078,5.078,0,0,1,2.18-1.072,11.991,11.991,0,0,1,2.765-.357,12.18,12.18,0,0,1,6.138,1.557,4.486,4.486,0,0,1,1.3,1.092,2.708,2.708,0,0,1,.584,1.552,2.075,2.075,0,0,1-.583,1.49,3.424,3.424,0,0,1-1.3.814,8.784,8.784,0,0,1-2.754.445,15.64,15.64,0,0,1-2.424-.1,15.176,15.176,0,0,1-3.405-.822c-.388-.144-.684-.269-.881-.363a1.892,1.892,0,0,1-.3-.15,2.032,2.032,0,0,1,.313.112c.2.081.5.193.892.325a16.212,16.212,0,0,0,3.4.752,15.916,15.916,0,0,0,2.4.079,8.72,8.72,0,0,0,2.693-.452,3.245,3.245,0,0,0,1.22-.77,1.873,1.873,0,0,0,.524-1.349,2.509,2.509,0,0,0-.544-1.431,4.3,4.3,0,0,0-1.243-1.039,12.1,12.1,0,0,0-6.031-1.545,11.96,11.96,0,0,0-2.724.333A4.966,4.966,0,0,0,231.3,254.9a2.8,2.8,0,0,0-.952,1.654,2.006,2.006,0,0,0,.309,1.4,1.812,1.812,0,0,0,.681.624c.193.095.307.116.3.128" transform="translate(-138.403 -152.319)" fill="#263238"/>
        <path id="Trazado_711750" data-name="Trazado 711750" d="M201.637,73.261a1.049,1.049,0,0,1-.321-.09,1.77,1.77,0,0,1-.73-.617,2.075,2.075,0,0,1-.356-1.463,2.912,2.912,0,0,1,.968-1.747,5.082,5.082,0,0,1,2.181-1.072,11.982,11.982,0,0,1,2.764-.357,12.18,12.18,0,0,1,6.138,1.557,4.491,4.491,0,0,1,1.3,1.092,2.71,2.71,0,0,1,.584,1.552,2.071,2.071,0,0,1-.583,1.49,3.422,3.422,0,0,1-1.3.814,8.784,8.784,0,0,1-2.754.445,15.688,15.688,0,0,1-2.424-.1,15.175,15.175,0,0,1-3.405-.822c-.388-.144-.684-.269-.881-.363a1.937,1.937,0,0,1-.3-.15,2.046,2.046,0,0,1,.313.112c.2.081.5.193.892.325a16.213,16.213,0,0,0,3.4.752,15.913,15.913,0,0,0,2.4.079,8.71,8.71,0,0,0,2.693-.452,3.242,3.242,0,0,0,1.22-.77,1.873,1.873,0,0,0,.524-1.349,2.51,2.51,0,0,0-.544-1.431,4.287,4.287,0,0,0-1.242-1.039,12.1,12.1,0,0,0-6.031-1.545,11.961,11.961,0,0,0-2.724.333,4.967,4.967,0,0,0-2.125,1.015,2.806,2.806,0,0,0-.951,1.654,2.006,2.006,0,0,0,.308,1.4,1.812,1.812,0,0,0,.681.624c.193.095.307.116.3.128" transform="translate(-120.366 -40.829)" fill="#263238"/>
        <path id="Trazado_711751" data-name="Trazado 711751" d="M356.716,221.631l5.483.137,2.616,3.371L362,228.575l-5.627-.165Z" transform="translate(-214.251 -133.244)" fill="#008b8a"/>
        <path id="Trazado_711752" data-name="Trazado 711752" d="M358.018,197.514l5.483.137,2.616,3.371-2.816,3.435-5.627-.165Z" transform="translate(-215.034 -118.745)" fill="#455a64"/>
        <path id="Trazado_711753" data-name="Trazado 711753" d="M144.721,24.109H127.377a.206.206,0,0,0-.206.206V24.4a.206.206,0,0,0,.206.206h17.345a.206.206,0,0,0,.206-.206v-.086a.206.206,0,0,0-.206-.206" transform="translate(-76.455 -14.494)" fill="#e0e0e0"/>
        <path id="Trazado_711754" data-name="Trazado 711754" d="M144.721,28.072H127.377a.206.206,0,0,0-.206.206v.086a.206.206,0,0,0,.206.206h17.345a.206.206,0,0,0,.206-.206v-.086a.206.206,0,0,0-.206-.206" transform="translate(-76.455 -16.877)" fill="#e0e0e0"/>
        <path id="Trazado_711755" data-name="Trazado 711755" d="M144.721,32.036H127.377a.206.206,0,0,0-.206.206v.086a.206.206,0,0,0,.206.206h17.345a.206.206,0,0,0,.206-.206v-.086a.206.206,0,0,0-.206-.206" transform="translate(-76.455 -19.26)" fill="#e0e0e0"/>
        <path id="Trazado_711756" data-name="Trazado 711756" d="M179.722,27.807c.046-.035,2.806,3.539,6.163,7.981s6.044,8.073,6,8.107-2.805-3.538-6.164-7.982-6.044-8.072-6-8.106" transform="translate(-108.048 -16.717)" fill="#263238"/>
        <path id="Trazado_711757" data-name="Trazado 711757" d="M179.124,25.985a.675.675,0,1,1-.676-.676.676.676,0,0,1,.676.676" transform="translate(-106.877 -15.216)" fill="#263238"/>
        <path id="Trazado_711758" data-name="Trazado 711758" d="M193.5,352.139H173.269a1.714,1.714,0,0,1-1.712-1.8l.41-8.57a1.715,1.715,0,0,1,1.712-1.632h20.228a1.714,1.714,0,0,1,1.712,1.8l-.41,8.57a1.714,1.714,0,0,1-1.712,1.632" transform="translate(-103.139 -204.492)" fill="#fafafa"/>
        <path id="Trazado_711759" data-name="Trazado 711759" d="M193.352,351.982a2.118,2.118,0,0,0,.668-.159,1.707,1.707,0,0,0,1.008-1.553c.075-1.739.184-4.238.317-7.321-.006-.758.249-1.642-.317-2.283a1.616,1.616,0,0,0-1.049-.584c-.415-.031-.879-.007-1.328-.013l-5.808.01-13.308.008a1.62,1.62,0,0,0-1.378.776,1.643,1.643,0,0,0-.233.777q-.021.434-.041.864-.083,1.723-.164,3.392t-.159,3.273q-.02.4-.039.8a2,2,0,0,0,.051.751,1.623,1.623,0,0,0,.949,1.05,1.778,1.778,0,0,0,.711.119h.752l1.475,0,2.819.005,5.06.013,7.328.033,1.992.019.518.01a.089.089,0,1,1,0,.022l-.518.01-1.992.02-7.328.033-5.06.013-2.819.005-1.475,0h-.752a1.962,1.962,0,0,1-.782-.13,1.814,1.814,0,0,1-1.065-1.173,2.184,2.184,0,0,1-.061-.815q.019-.4.037-.8.075-1.6.154-3.274t.161-3.392q.021-.431.041-.864a1.82,1.82,0,0,1,1.818-1.751l13.308.008,5.808.01c.459.009.891-.016,1.35.021a1.776,1.776,0,0,1,1.151.648,1.8,1.8,0,0,1,.4,1.2q-.031.607-.059,1.186c-.161,3.082-.292,5.58-.384,7.318a1.762,1.762,0,0,1-.394,1.081,1.7,1.7,0,0,1-1.185.628c-.118,0-.177,0-.177,0" transform="translate(-102.992 -204.335)" fill="#263238"/>
        <path id="Trazado_711760" data-name="Trazado 711760" d="M197.018,350.6H179.674a.206.206,0,0,0-.206.206v.086a.206.206,0,0,0,.206.206h17.345a.206.206,0,0,0,.206-.206V350.8a.206.206,0,0,0-.206-.206" transform="translate(-107.896 -210.778)" fill="#e0e0e0"/>
        <path id="Trazado_711761" data-name="Trazado 711761" d="M197.018,354.56H179.674a.206.206,0,0,0-.206.206v.086a.206.206,0,0,0,.206.206h17.345a.206.206,0,0,0,.206-.206v-.086a.206.206,0,0,0-.206-.206" transform="translate(-107.896 -213.161)" fill="#e0e0e0"/>
        <path id="Trazado_711762" data-name="Trazado 711762" d="M197.018,358.524H179.674a.206.206,0,0,0-.206.206v.086a.206.206,0,0,0,.206.206h17.345a.206.206,0,0,0,.206-.206v-.086a.206.206,0,0,0-.206-.206" transform="translate(-107.896 -215.544)" fill="#e0e0e0"/>
        <path id="Trazado_711763" data-name="Trazado 711763" d="M223.718,269.72c.051.026-3.184,6.335-7.224,14.089s-7.357,14.021-7.408,13.995,3.183-6.334,7.224-14.09,7.357-14.02,7.408-13.994" transform="translate(-125.702 -162.155)" fill="#263238"/>
        <path id="Trazado_711764" data-name="Trazado 711764" d="M208.744,339.123a.675.675,0,1,1-.676-.676.675.675,0,0,1,.676.676" transform="translate(-124.684 -203.474)" fill="#263238"/>
      </g>
    </g>
    <g id="Grupo_1002581" data-name="Grupo 1002581">
      <g id="Grupo_1002580" data-name="Grupo 1002580" clip-path="url(#clip-path)">
        <path id="Trazado_711765" data-name="Trazado 711765" d="M435.943,353.513H377.331V351.09h58.612a1,1,0,0,1,1,1v.418a1,1,0,0,1-1,1" transform="translate(-226.851 -211.075)" fill="#ffa031"/>
        <path id="Trazado_711766" data-name="Trazado 711766" d="M342.232,354.469c0,.048-4.918.087-10.983.087s-10.983-.039-10.983-.087,4.916-.087,10.983-.087,10.983.039,10.983.087" transform="translate(-192.543 -213.054)" fill="#263238"/>
        <path id="Trazado_711767" data-name="Trazado 711767" d="M344.958,335.164H317.427a6.037,6.037,0,0,1-6.037-6.036v-2.522a6.036,6.036,0,0,1,6.037-6.036h27.531Z" transform="translate(-187.207 -192.726)" fill="#ffa031"/>
        <path id="Trazado_711768" data-name="Trazado 711768" d="M435.943,322.993H377.787a.456.456,0,0,1-.456-.457v-1.51a.456.456,0,0,1,.456-.456h58.156a1,1,0,0,1,1,1v.418a1,1,0,0,1-1,1" transform="translate(-226.851 -192.726)" fill="#ffa031"/>
        <path id="Trazado_711769" data-name="Trazado 711769" d="M437.848,336.394H386.664a4.874,4.874,0,0,1,0-9.749h51.184a12.054,12.054,0,0,0,0,9.749" transform="translate(-229.531 -196.378)" fill="#f5f5f5"/>
        <g id="Grupo_1002573" data-name="Grupo 1002573" transform="translate(124.183 127.844)" opacity="0.3">
          <g id="Grupo_1002572" data-name="Grupo 1002572">
            <g id="Grupo_1002571" data-name="Grupo 1002571" clip-path="url(#clip-path-7)">
              <path id="Trazado_711770" data-name="Trazado 711770" d="M339.465,335.164H316.921a5.531,5.531,0,0,1-5.531-5.53v-3.578a5.486,5.486,0,0,1,5.486-5.486h23.145c-5.284,3.2-4.889,10.867-.556,14.594" transform="translate(-311.39 -320.57)"/>
            </g>
          </g>
        </g>
        <path id="Trazado_711771" data-name="Trazado 711771" d="M436.02,339.87c0,.048-10.506.087-23.462.087s-23.464-.039-23.464-.087,10.5-.087,23.464-.087,23.462.039,23.462.087" transform="translate(-233.922 -204.277)" fill="#263238"/>
        <path id="Trazado_711772" data-name="Trazado 711772" d="M448.129,345.3c0,.048-10.506.087-23.462.087s-23.464-.039-23.464-.087,10.5-.087,23.464-.087,23.462.039,23.462.087" transform="translate(-241.202 -207.543)" fill="#263238"/>
        <path id="Trazado_711773" data-name="Trazado 711773" d="M444.558,332.165c0,.048-10.506.087-23.462.087s-23.464-.039-23.464-.087,10.5-.087,23.464-.087,23.462.039,23.462.087" transform="translate(-239.055 -199.645)" fill="#263238"/>
        <path id="Trazado_711774" data-name="Trazado 711774" d="M342.232,323.475c0,.048-4.918.087-10.983.087s-10.983-.039-10.983-.087,4.916-.087,10.983-.087,10.983.039,10.983.087" transform="translate(-192.543 -194.42)" fill="#263238"/>
        <path id="Trazado_711775" data-name="Trazado 711775" d="M320.818,401.649H288.376a7.774,7.774,0,0,1-7.774-7.774v-3.247a7.774,7.774,0,0,1,7.774-7.774h32.443a3.014,3.014,0,0,1,3.014,3.014v12.768a3.014,3.014,0,0,1-3.014,3.014" transform="translate(-168.697 -230.171)" fill="#b0c0d2"/>
        <path id="Trazado_711776" data-name="Trazado 711776" d="M441.007,385.974H366.268a.745.745,0,0,1-.745-.745V383.6a.745.745,0,0,1,.745-.745h74.739a1.291,1.291,0,0,1,1.29,1.291v.539a1.291,1.291,0,0,1-1.29,1.291" transform="translate(-219.752 -230.171)" fill="#b0c0d2"/>
        <path id="Trazado_711777" data-name="Trazado 711777" d="M441.007,425.279H366.268a.745.745,0,0,1-.745-.745V422.9a.745.745,0,0,1,.745-.745h74.739a1.291,1.291,0,0,1,1.29,1.291v.539a1.291,1.291,0,0,1-1.29,1.291" transform="translate(-219.752 -253.801)" fill="#b0c0d2"/>
        <path id="Trazado_711778" data-name="Trazado 711778" d="M443.459,403.232H377.543a6.278,6.278,0,0,1,0-12.555h65.917a15.523,15.523,0,0,0,0,12.555" transform="translate(-223.204 -234.874)" fill="#f5f5f5"/>
        <g id="Grupo_1002576" data-name="Grupo 1002576" transform="translate(111.905 152.683)" opacity="0.3">
          <g id="Grupo_1002575" data-name="Grupo 1002575">
            <g id="Grupo_1002574" data-name="Grupo 1002574" clip-path="url(#clip-path-8)">
              <path id="Trazado_711779" data-name="Trazado 711779" d="M316.759,401.649H289.9a9.3,9.3,0,0,1-9.3-9.3,9.5,9.5,0,0,1,9.5-9.5h27.374c-6.805,4.122-6.3,13.995-.715,18.8" transform="translate(-280.603 -382.854)"/>
            </g>
          </g>
        </g>
        <path id="Trazado_711780" data-name="Trazado 711780" d="M441.105,407.748c0,.048-13.53.087-30.216.087s-30.219-.039-30.219-.087,13.527-.087,30.219-.087,30.216.039,30.216.087" transform="translate(-228.859 -245.085)" fill="#263238"/>
        <path id="Trazado_711781" data-name="Trazado 711781" d="M456.7,414.745c0,.048-13.53.087-30.216.087s-30.219-.039-30.219-.087,13.527-.087,30.219-.087,30.216.039,30.216.087" transform="translate(-238.234 -249.292)" fill="#263238"/>
        <path id="Trazado_711782" data-name="Trazado 711782" d="M452.1,401.254c0,.048-13.53.087-30.216.087s-30.219-.039-30.219-.087,13.527-.087,30.219-.087,30.216.039,30.216.087" transform="translate(-235.469 -241.181)" fill="#263238"/>
        <path id="Trazado_711783" data-name="Trazado 711783" d="M320.322,426.548c0,.048-6.333.087-14.143.087s-14.145-.039-14.145-.087,6.332-.087,14.145-.087,14.143.039,14.143.087" transform="translate(-175.57 -256.388)" fill="#263238"/>
        <path id="Trazado_711784" data-name="Trazado 711784" d="M320.322,386.634c0,.048-6.333.087-14.143.087s-14.145-.039-14.145-.087,6.332-.087,14.145-.087,14.143.039,14.143.087" transform="translate(-175.57 -232.391)" fill="#263238"/>
        <path id="Trazado_711785" data-name="Trazado 711785" d="M364,366.8H333.532a4.451,4.451,0,0,1-4.451-4.451v-1.859a4.451,4.451,0,0,1,4.451-4.451H364a.207.207,0,0,1,.207.207V366.6a.207.207,0,0,1-.207.207" transform="translate(-197.843 -214.052)" fill="#455a64"/>
        <path id="Trazado_711786" data-name="Trazado 711786" d="M459.405,358.576H398.554a.477.477,0,0,1-.477-.477v-1.58a.478.478,0,0,1,.477-.478h60.851a1.049,1.049,0,0,1,1.048,1.049v.438a1.048,1.048,0,0,1-1.048,1.048" transform="translate(-239.323 -214.051)" fill="#455a64"/>
        <path id="Trazado_711787" data-name="Trazado 711787" d="M459.405,379.2H398.554a.477.477,0,0,1-.477-.477v-1.58a.478.478,0,0,1,.477-.478h60.851a1.049,1.049,0,0,1,1.048,1.049v.438a1.048,1.048,0,0,1-1.048,1.048" transform="translate(-239.323 -226.453)" fill="#455a64"/>
        <path id="Trazado_711788" data-name="Trazado 711788" d="M461.4,368.089h-55.81a2.846,2.846,0,1,1,0-5.691H461.4a4.3,4.3,0,0,0,0,5.691" transform="translate(-242.127 -217.873)" fill="#f5f5f5"/>
        <g id="Grupo_1002579" data-name="Grupo 1002579" transform="translate(131.238 141.99)" opacity="0.3">
          <g id="Grupo_1002578" data-name="Grupo 1002578">
            <g id="Grupo_1002577" data-name="Grupo 1002577" clip-path="url(#clip-path-9)">
              <path id="Trazado_711789" data-name="Trazado 711789" d="M358.458,366.8H334.419a5.337,5.337,0,0,1-5.337-5.338,5.424,5.424,0,0,1,5.424-5.424h24.533c-5.529,2.36-5.116,8.013-.581,10.761" transform="translate(-329.082 -356.042)"/>
            </g>
          </g>
        </g>
        <path id="Trazado_711790" data-name="Trazado 711790" d="M459.485,368.278c0,.048-10.993.087-24.549.087s-24.552-.039-24.552-.087,10.99-.087,24.552-.087,24.549.039,24.549.087" transform="translate(-246.722 -221.356)" fill="#263238"/>
        <path id="Trazado_711791" data-name="Trazado 711791" d="M472.154,372.119c0,.048-10.993.087-24.549.087s-24.552-.039-24.552-.087,10.99-.087,24.552-.087,24.549.039,24.549.087" transform="translate(-254.339 -223.665)" fill="#263238"/>
        <path id="Trazado_711792" data-name="Trazado 711792" d="M361.352,380.21c0,.048-5.145.087-11.491.087s-11.492-.039-11.492-.087,5.144-.087,11.492-.087,11.491.039,11.491.087" transform="translate(-203.426 -228.529)" fill="#263238"/>
        <path id="Trazado_711793" data-name="Trazado 711793" d="M361.352,359.088c0,.048-5.145.087-11.491.087s-11.492-.039-11.492-.087S343.512,359,349.86,359s11.491.039,11.491.087" transform="translate(-203.426 -215.831)" fill="#263238"/>
        <path id="Trazado_711794" data-name="Trazado 711794" d="M425.549,355.909c0,.048-18.875.087-42.154.087s-42.158-.039-42.158-.087,18.871-.087,42.158-.087,42.154.039,42.154.087" transform="translate(-205.151 -213.92)" fill="#263238"/>
        <path id="Trazado_711795" data-name="Trazado 711795" d="M467.769,331.9v5.845l2.026-1.3,2.26,1.3V331.9Z" transform="translate(-281.222 -199.536)" fill="#ff725e"/>
      </g>
    </g>
    <g id="Grupo_1002583" data-name="Grupo 1002583">
      <g id="Grupo_1002582" data-name="Grupo 1002582" clip-path="url(#clip-path)">
        <path id="Trazado_711796" data-name="Trazado 711796" d="M497.29,81.25H479.206a6.929,6.929,0,0,0-.4,13.847l1.637,2.833,2.046-2.813h14.8a6.934,6.934,0,0,0,0-13.867" transform="translate(-283.929 -48.847)" fill="#fff"/>
        <path id="Trazado_711797" data-name="Trazado 711797" d="M497.152,81.122s.062,0,.184,0l.542.019a7.31,7.31,0,0,1,2.026.51,7.153,7.153,0,0,1,2.654,1.978,7.474,7.474,0,0,1,1.073,1.793,6.826,6.826,0,0,1,.506,2.293,6.958,6.958,0,0,1-1.756,5,7.129,7.129,0,0,1-2.447,1.781,7.458,7.458,0,0,1-3.164.58l-14.421.011.083-.042-2.045,2.813-.094.129-.08-.138-.667-1.154-.971-1.679.084.051a7.713,7.713,0,0,1-2.027-.423,7.361,7.361,0,0,1-1.791-.979,7.009,7.009,0,0,1-1.075-10.22,6.937,6.937,0,0,1,2.846-1.968c.134-.047.265-.1.4-.142l.407-.1a6.634,6.634,0,0,1,.816-.148c.272-.037.546-.034.815-.051h.793l5.827.013,8.409.032,2.279.019.592.01c.133,0,.2.01.2.01s-.068.007-.2.01l-.592.01-2.279.019-8.409.032-5.827.013-.793,0c-.263.019-.53.016-.794.053a6.436,6.436,0,0,0-.8.146l-.4.1c-.13.041-.258.093-.388.139a6.763,6.763,0,0,0-2.767,1.924,6.822,6.822,0,0,0,1.056,9.932,7.151,7.151,0,0,0,1.739.95,7.533,7.533,0,0,0,1.968.41l.057,0,.027.047.971,1.679.666,1.153-.173-.009,2.046-2.812.031-.043h.053l14.421.011a7.278,7.278,0,0,0,3.095-.557,6.97,6.97,0,0,0,2.394-1.729A6.822,6.822,0,0,0,504,87.722a6.714,6.714,0,0,0-.484-2.253,7.39,7.39,0,0,0-1.042-1.771,7.132,7.132,0,0,0-2.6-1.978,7.628,7.628,0,0,0-2.723-.6" transform="translate(-283.791 -48.719)" fill="#263238"/>
        <path id="Trazado_711798" data-name="Trazado 711798" d="M489.242,93.2l.648,1.314,1.45.211-1.049,1.023.248,1.444-1.3-.682-1.3.682.248-1.444-1.049-1.023,1.45-.211Z" transform="translate(-292.87 -56.032)" fill="#ffa031"/>
        <path id="Trazado_711799" data-name="Trazado 711799" d="M503.037,93.2l.648,1.314,1.45.211-1.049,1.023.248,1.444-1.3-.682-1.3.682.248-1.444-1.049-1.023,1.45-.211Z" transform="translate(-301.163 -56.032)" fill="#ffa031"/>
        <path id="Trazado_711800" data-name="Trazado 711800" d="M516.832,93.2l.648,1.314,1.45.211-1.049,1.023.248,1.444-1.3-.682-1.3.682.248-1.444-1.049-1.023,1.45-.211Z" transform="translate(-309.457 -56.032)" fill="#ffa031"/>
        <path id="Trazado_711801" data-name="Trazado 711801" d="M530.626,93.2l.648,1.314,1.45.211-1.049,1.023.248,1.444-1.3-.682-1.3.682.248-1.444-1.049-1.023,1.45-.211Z" transform="translate(-317.75 -56.032)" fill="#12263f"/>
      </g>
    </g>
    <g id="Grupo_1002585" data-name="Grupo 1002585">
      <g id="Grupo_1002584" data-name="Grupo 1002584" clip-path="url(#clip-path)">
        <path id="Trazado_711802" data-name="Trazado 711802" d="M64.438,17.569l-.772-2.864a9.548,9.548,0,1,0-2.268,2.56l0,0Z" transform="translate(-27.642 -0.146)" fill="#fff"/>
        <path id="Trazado_711803" data-name="Trazado 711803" d="M64.291,17.423s-.072-.012-.205-.028l-.587-.067-2.247-.248.031.071,0,0a.044.044,0,0,0-.063-.061,9.55,9.55,0,0,1-4.253,1.868,9.595,9.595,0,0,1-6.249-1.108A9.426,9.426,0,0,1,48.277,3.425l.389-.431.425-.392a10.113,10.113,0,0,1,.9-.717A9.572,9.572,0,0,1,56.262.238a9.482,9.482,0,0,1,7.219,14.3l0,.035.6,2.108.159.551c.036.125.059.192.059.192a1.816,1.816,0,0,0-.041-.178l-.137-.545-.553-2.153,0,.034A9.488,9.488,0,0,0,64.949,10.1,9.634,9.634,0,0,0,56.281.04a9.756,9.756,0,0,0-6.413,1.675,10.355,10.355,0,0,0-.916.732l-.434.4-.4.44A9.616,9.616,0,0,0,50.636,18a9.533,9.533,0,0,0,3.287,1.122,9.408,9.408,0,0,0,3.071-.031,9.541,9.541,0,0,0,4.284-1.933l-.063-.061,0,0a.044.044,0,0,0,.008.062.045.045,0,0,0,.023.009l2.283.2.577.047a1.883,1.883,0,0,0,.188.011" transform="translate(-27.496 0)" fill="#263238"/>
        <path id="Trazado_711804" data-name="Trazado 711804" d="M61.862,23.055,56.851,19.7l1.17-1.749L61.381,20.2l4.181-5.533,1.678,1.269Z" transform="translate(-34.179 -8.819)" fill="#4db1f0"/>
      </g>
    </g>
    <g id="Grupo_1002590" data-name="Grupo 1002590">
      <g id="Grupo_1002589" data-name="Grupo 1002589" clip-path="url(#clip-path)">
        <path id="Trazado_711805" data-name="Trazado 711805" d="M410.654,94.265a64.219,64.219,0,0,0-1.968,11.566l-.052,1.6s4,3.319,7.35,3.524l2.81-6.91Z" transform="translate(-245.67 -56.672)" fill="#263238"/>
        <path id="Trazado_711806" data-name="Trazado 711806" d="M430.258,87.717c-.764-3.3-1.058-7.149-3.8-9.3a10.02,10.02,0,0,0-6.95-1.936,9.173,9.173,0,0,0-3.824,1.27c-1.522.862-2.167,2.609-2.9,4.2-1.471,3.18-1.285,7.487-.288,8.684l13.289,7.018c2.654-1.381,4.316-1.931,4.74-5.468a12.961,12.961,0,0,0-.261-4.46" transform="translate(-247.518 -45.969)" fill="#263238"/>
        <path id="Trazado_711807" data-name="Trazado 711807" d="M427.709,84.169,419.346,81.7c-2.694-.392-4.624,2.868-4.9,5.576a48.364,48.364,0,0,0-.3,8.959c.54,4.554,3.986,5.266,3.986,5.266,0-.015.008.068-.019,1.413l-.01,2.771a2.3,2.3,0,0,0,.658,1.876c1.234,1.6,3.482,1.811,6.132.831a3.822,3.822,0,0,0,2.722-3.269L429.07,85.84a1.593,1.593,0,0,0-1.361-1.671" transform="translate(-248.916 -49.099)" fill="#ae7461"/>
        <path id="Trazado_711808" data-name="Trazado 711808" d="M417.056,105.308a.581.581,0,0,0,.537.607.555.555,0,0,0,.619-.5.581.581,0,0,0-.536-.608.556.556,0,0,0-.619.5" transform="translate(-250.732 -63.009)" fill="#263238"/>
        <path id="Trazado_711809" data-name="Trazado 711809" d="M416.438,101.721c.069.079.522-.23,1.146-.2s1.07.357,1.141.283c.035-.032-.033-.172-.227-.325a1.6,1.6,0,0,0-.909-.32,1.531,1.531,0,0,0-.916.256c-.2.14-.268.274-.234.309" transform="translate(-250.357 -60.813)" fill="#263238"/>
        <path id="Trazado_711810" data-name="Trazado 711810" d="M430.824,105.533a.581.581,0,0,0,.536.607.555.555,0,0,0,.619-.5.581.581,0,0,0-.536-.608.556.556,0,0,0-.619.5" transform="translate(-259.01 -63.144)" fill="#263238"/>
        <path id="Trazado_711811" data-name="Trazado 711811" d="M431.845,101.906c.069.079.522-.229,1.146-.2s1.07.356,1.141.282c.034-.032-.033-.172-.228-.325a1.6,1.6,0,0,0-.909-.32,1.53,1.53,0,0,0-.916.256c-.2.14-.268.274-.234.309" transform="translate(-259.619 -60.925)" fill="#263238"/>
        <path id="Trazado_711812" data-name="Trazado 711812" d="M423.384,105.086a4.117,4.117,0,0,0-1.007-.223c-.159-.023-.308-.061-.331-.17a.81.81,0,0,1,.125-.469l.519-1.2a20.924,20.924,0,0,0,1.184-3.135,20.884,20.884,0,0,0-1.434,3.032l-.5,1.2a.921.921,0,0,0-.107.623.4.4,0,0,0,.253.244,1.093,1.093,0,0,0,.27.048,4.058,4.058,0,0,0,1.028.042" transform="translate(-253.592 -60.055)" fill="#263238"/>
        <path id="Trazado_711813" data-name="Trazado 711813" d="M424.25,129.326a11.521,11.521,0,0,0,6.125-1.378s-1.623,3.108-6.136,2.506Z" transform="translate(-255.052 -76.922)" fill="#6f4439"/>
        <path id="Trazado_711814" data-name="Trazado 711814" d="M427.942,115.723a.906.906,0,0,0-.737-.44,1.178,1.178,0,0,0-1.094.489.73.73,0,0,0-.069.527c.036.091.007.046.074.11a2.062,2.062,0,0,0,.822.556.885.885,0,0,0,.947-.307.9.9,0,0,0,.056-.935" transform="translate(-256.124 -69.306)" fill="#6f4439"/>
        <path id="Trazado_711815" data-name="Trazado 711815" d="M427.49,114.246c-.1-.01-.133.667-.735,1.122s-1.32.348-1.329.442c-.012.042.155.139.459.161a1.687,1.687,0,0,0,1.108-.331,1.47,1.47,0,0,0,.573-.943c.039-.282-.029-.453-.076-.451" transform="translate(-255.765 -68.684)" fill="#263238"/>
        <path id="Trazado_711816" data-name="Trazado 711816" d="M431.262,96.481c.045.175.674.155,1.395.314s1.293.415,1.4.273c.05-.069-.037-.238-.259-.425a2.489,2.489,0,0,0-2.132-.447c-.278.082-.426.2-.408.285" transform="translate(-259.273 -57.787)" fill="#263238"/>
        <path id="Trazado_711817" data-name="Trazado 711817" d="M416.54,97.1c.142.123.6-.092,1.168-.181.569-.107,1.071-.059,1.161-.221.039-.079-.058-.208-.289-.311a1.78,1.78,0,0,0-.985-.093,1.757,1.757,0,0,0-.892.417c-.181.174-.227.328-.164.389" transform="translate(-250.407 -57.874)" fill="#263238"/>
        <path id="Trazado_711818" data-name="Trazado 711818" d="M427.25,80.527c-.008.033-.014.065-.021.1l.016.007c0-.035,0-.07.006-.1" transform="translate(-256.849 -48.413)" fill="#263238"/>
        <path id="Trazado_711819" data-name="Trazado 711819" d="M423.963,101.849c.128-1.187-.349-2.379-.211-3.564.147-1.257.961-2.334,1.295-3.554.535-1.955-.2-4.033-.468-6.053a4.8,4.8,0,0,1-2.944-1.7,13.285,13.285,0,0,1-1.991-3.657,6.122,6.122,0,0,0,1.232,3.518,1.652,1.652,0,0,1-1.411-.458,3.7,3.7,0,0,1-.828-1.286,10.051,10.051,0,0,1-.8-3.621,13.013,13.013,0,0,0,.591,5.287,2.256,2.256,0,0,0-.984.037,1.08,1.08,0,0,1-.936-.2,1.181,1.181,0,0,1-.256-.6,13.573,13.573,0,0,1-.15-4.607,14.034,14.034,0,0,0-1.038,2.553,4.947,4.947,0,0,0-.019,2.724.4.4,0,0,1-.562,0,.953.953,0,0,1-.246-.569,7.008,7.008,0,0,1,.149-2.293,11.612,11.612,0,0,0-.853,2.62,3.907,3.907,0,0,1-1.419,2.3,12.058,12.058,0,0,1,.113-3.474,10.479,10.479,0,0,1,1.018-2.757,8.19,8.19,0,0,1,1.835-2.554c1.334-1.168,1.891-.665,2.743-.22l.1.042c0-.021,0-.042.007-.063l.038-.181a12.776,12.776,0,0,1,6.728.315c1.606.523,1.753,3.98,2.144,2.337.237-.994,1.525-.087,1.541-.058,1.894,3.415,3.9,8.833,3.992,17.394Z" transform="translate(-247.715 -47.618)" fill="#263238"/>
        <path id="Trazado_711820" data-name="Trazado 711820" d="M446.425,68.407a4.264,4.264,0,0,0-2.944-1.433,3.214,3.214,0,0,0-2.843,1.48,2.59,2.59,0,0,0,.35,3.1l1.4,1.119a3.831,3.831,0,0,0,3.177.308,2.762,2.762,0,0,0,1.794-2.52,3.249,3.249,0,0,0-.934-2.052" transform="translate(-264.697 -40.263)" fill="#263238"/>
        <path id="Trazado_711821" data-name="Trazado 711821" d="M445.3,80.534c-.271.126-1.036-1.046-2.4-1.968-1.347-.953-2.715-1.254-2.692-1.552.012-.136.4-.245,1.021-.181a5.228,5.228,0,0,1,3.882,2.682c.281.561.315.96.193,1.019" transform="translate(-264.647 -46.181)" fill="#455a64"/>
        <path id="Trazado_711822" data-name="Trazado 711822" d="M393.329,172.036l5.24-4.908,3.55,5.639c-.071.506-4.6,10.257-6.555,12.277-2.235,2.305-5.283,2.127-6.627-1.056a101.9,101.9,0,0,1-2.819-10.237Z" transform="translate(-232.133 -100.477)" fill="#4db1f0"/>
        <path id="Trazado_711823" data-name="Trazado 711823" d="M406.573,141.214a16.072,16.072,0,0,0-4.97,3.058,7.9,7.9,0,0,0-1.058,1.636c-.656,1.442-1.9,12.137-1.9,12.137l5.581,4.042,4.859-18.706-.31-2.966Z" transform="translate(-239.663 -84.417)" fill="#4db1f0"/>
        <path id="Trazado_711824" data-name="Trazado 711824" d="M412,170.1l.351-2.762a89.8,89.8,0,0,1-1.471-9.209,25.74,25.74,0,0,1,1.389-11.749c.138-.406,3.782-7.955,3.782-7.955s.766,2.325,3.841,1.775c4.289-.767,5.851-3.092,5.851-3.092l5.541,1.2s2.159,8.671,2.477,11.544c.17,1.54-1.859,10.246-1.859,10.246l3.268,4.889a48.676,48.676,0,0,1-1.716,7.2c-.3.276-5.613,1.511-5.679,1.738s-10.134,4.443-10.128,4.27-4.844-5.934-4.844-5.934Z" transform="translate(-246.938 -82.432)" fill="#4db1f0"/>
        <path id="Trazado_711825" data-name="Trazado 711825" d="M409.789,162.964a.791.791,0,0,1-.013.2c-.019.155-.041.344-.069.573-.059.5-.144,1.218-.217,2.111a30.306,30.306,0,0,0,.13,6.973c.358,2.711.881,5.135,1.218,6.9.171.881.3,1.6.386,2.091l.089.571a.731.731,0,0,1,.017.2.77.77,0,0,1-.058-.194l-.127-.564c-.113-.521-.265-1.223-.45-2.077-.374-1.754-.92-4.177-1.281-6.9a28.1,28.1,0,0,1-.07-7.014c.093-.894.2-1.614.283-2.109.043-.248.079-.439.107-.569a.718.718,0,0,1,.054-.2" transform="translate(-245.985 -97.974)" fill="#263238"/>
        <path id="Trazado_711826" data-name="Trazado 711826" d="M434.22,214.076a74.971,74.971,0,0,1,4.144,11.436c4.024,15.041,7.429,35.268,8.56,39.39,1.507,5.493,4.881,17.92,6.6,26.2l-8.248,3.6s-10.8-29.107-13.749-36.259c-3.054-7.411-8.148-21.39-8.148-21.39l-2.943,55.447-7.9.244s-2.7-15.624-3.776-24.962-1.194-28.561-1.2-33.439c-.011-5.941,2.564-19.306,2.564-19.306s3.082,2.313,8.86,1.427c4.6-.705,14.142-4.245,14.142-4.245Z" transform="translate(-245.021 -127.581)" fill="#263238"/>
        <path id="Trazado_711827" data-name="Trazado 711827" d="M434.137,227.68a3.811,3.811,0,0,0,.046.637c.042.408.114,1,.211,1.725.193,1.455.5,3.46.889,5.665s.806,4.192,1.129,5.624c.162.716.3,1.294.4,1.691a3.792,3.792,0,0,0,.177.613,3.794,3.794,0,0,0-.1-.631c-.087-.437-.2-1.011-.336-1.7-.286-1.438-.675-3.427-1.069-5.629s-.718-4.2-.948-5.65c-.112-.7-.2-1.275-.276-1.715a3.829,3.829,0,0,0-.125-.626" transform="translate(-260.999 -136.881)" fill="#455a64"/>
        <path id="Trazado_711828" data-name="Trazado 711828" d="M439.05,227.064c.011,0-.012-.1-.154-.161a1.008,1.008,0,0,0-.6-.02,1.208,1.208,0,0,0-.394.161.662.662,0,0,0-.27.438,1.011,1.011,0,0,0,.453,1,1.041,1.041,0,0,0,1.1.049.717.717,0,0,0,.3-.41,1.021,1.021,0,0,0,.03-.428.861.861,0,0,0-.266-.542c-.114-.095-.2-.1-.2-.092s.063.049.144.148a.87.87,0,0,1,.178.5.7.7,0,0,1-.288.662.87.87,0,0,1-.889-.06.837.837,0,0,1-.378-.8.494.494,0,0,1,.182-.331,1.139,1.139,0,0,1,.332-.16,1.085,1.085,0,0,1,.538-.045c.124.029.165.1.18.086" transform="translate(-263.095 -136.381)" fill="#455a64"/>
        <path id="Trazado_711829" data-name="Trazado 711829" d="M428.54,262.738a7.707,7.707,0,0,0,.956.655c.6.391,1.415.941,2.292,1.586s1.643,1.265,2.193,1.721a7.726,7.726,0,0,0,.908.719,5.58,5.58,0,0,0-.813-.829,27.24,27.24,0,0,0-4.5-3.321,5.569,5.569,0,0,0-1.032-.532" transform="translate(-257.637 -157.957)" fill="#455a64"/>
        <path id="Trazado_711830" data-name="Trazado 711830" d="M478.7,334.087a1.094,1.094,0,0,0,.342.012c.219,0,.536-.028.926-.073a16.538,16.538,0,0,0,5.824-1.825c.345-.186.619-.347.8-.469s.281-.192.274-.2a12.075,12.075,0,0,0-1.141.544,20.785,20.785,0,0,1-5.779,1.811,12.285,12.285,0,0,0-1.247.2" transform="translate(-287.795 -199.312)" fill="#455a64"/>
        <path id="Trazado_711831" data-name="Trazado 711831" d="M482.06,332.314a3.1,3.1,0,0,0,.809-.215c.489-.164,1.157-.418,1.876-.741s1.352-.655,1.8-.913a3.1,3.1,0,0,0,.7-.463c-.03-.052-1.152.547-2.581,1.188s-2.619,1.087-2.6,1.144" transform="translate(-289.813 -198.383)" fill="#455a64"/>
        <path id="Trazado_711832" data-name="Trazado 711832" d="M406.985,399.71l-.041,8.232s-8.381,2.722-8.536,4.243l15.957.653.591-12.823Z" transform="translate(-239.522 -240.305)" fill="#263238"/>
        <path id="Trazado_711833" data-name="Trazado 711833" d="M431.047,419.073a.652.652,0,0,1,.42.762.627.627,0,0,1-.752.423.688.688,0,0,1-.44-.81.65.65,0,0,1,.831-.353" transform="translate(-258.662 -251.926)" fill="#e0e0e0"/>
        <path id="Trazado_711834" data-name="Trazado 711834" d="M414.358,430.461l.009-1.295-15.3-.142s-.723.28-.664.784Z" transform="translate(-239.516 -257.928)" fill="#455a64"/>
        <path id="Trazado_711835" data-name="Trazado 711835" d="M419.172,420.026c0,.078.388.129.761.4s.564.6.637.574c.072-.012-.025-.483-.482-.8s-.93-.245-.916-.173" transform="translate(-252.005 -252.481)" fill="#fff"/>
        <path id="Trazado_711836" data-name="Trazado 711836" d="M414.9,421.641c-.021.075.311.221.562.562s.313.692.391.692c.073.015.145-.439-.175-.856s-.774-.471-.778-.4" transform="translate(-249.438 -253.473)" fill="#fff"/>
        <path id="Trazado_711837" data-name="Trazado 711837" d="M411.456,424.546c.07.02.195-.365.012-.8s-.54-.62-.575-.556.18.3.325.66.162.686.239.7" transform="translate(-247.024 -254.413)" fill="#fff"/>
        <path id="Trazado_711838" data-name="Trazado 711838" d="M419.714,415.041c.03.073.392-.02.831.028s.777.2.82.136-.275-.357-.794-.406-.893.18-.857.243" transform="translate(-252.33 -249.371)" fill="#fff"/>
        <path id="Trazado_711839" data-name="Trazado 711839" d="M504.4,397.544l3.057,9.478,4.579,6.8a1.02,1.02,0,0,1-1.268,1.5c-1.915-.877-8.941-4.139-9.126-4.845-.214-.818-3.888-9.784-3.888-9.784Z" transform="translate(-299.248 -239.003)" fill="#263238"/>
        <path id="Trazado_711840" data-name="Trazado 711840" d="M517.227,433.813l-10.28-5.434.139.4a1.535,1.535,0,0,0,.671.821c.841.494,3.195,1.807,8.508,4.271a1.02,1.02,0,0,0,.961-.056" transform="translate(-304.776 -257.541)" fill="#455a64"/>
        <g id="Grupo_1002588" data-name="Grupo 1002588" transform="translate(202.306 167.106)" opacity="0.6">
          <g id="Grupo_1002587" data-name="Grupo 1002587">
            <g id="Grupo_1002586" data-name="Grupo 1002586" clip-path="url(#clip-path-13)">
              <path id="Trazado_711841" data-name="Trazado 711841" d="M508.025,419.048a.618.618,0,0,1,.425.706.594.594,0,0,1-.7.427.651.651,0,0,1-.445-.75.616.616,0,0,1,.773-.364" transform="translate(-507.285 -419.022)" fill="#fff"/>
            </g>
          </g>
        </g>
        <path id="Trazado_711842" data-name="Trazado 711842" d="M523.69,431.106a2.2,2.2,0,0,1,1.581-1.6c0-.026-.144-.058-.375-.012a1.629,1.629,0,0,0-1.223,1.239c-.043.232-.008.376.018.375" transform="translate(-314.819 -258.196)" fill="#fff"/>
        <path id="Trazado_711843" data-name="Trazado 711843" d="M526.505,434.385c.059.025.254-.386.692-.694a8.329,8.329,0,0,1,.877-.438,1.131,1.131,0,0,0-1.005.26c-.5.355-.622.863-.564.872" transform="translate(-316.526 -260.448)" fill="#fff"/>
        <path id="Trazado_711844" data-name="Trazado 711844" d="M519.2,427.651a5.242,5.242,0,0,1,2.278-1.955,2.79,2.79,0,0,0-2.278,1.955" transform="translate(-312.137 -255.92)" fill="#fff"/>
        <path id="Trazado_711845" data-name="Trazado 711845" d="M516.272,422.054c.045.047.489-.35,1.156-.61s1.26-.284,1.26-.349a2.533,2.533,0,0,0-2.416.959" transform="translate(-310.38 -253.128)" fill="#fff"/>
        <path id="Trazado_711846" data-name="Trazado 711846" d="M513.845,415.193a3.239,3.239,0,0,1,2.543-.788c.008-.025-.135-.107-.4-.157a2.224,2.224,0,0,0-1.91.591c-.187.188-.259.337-.238.353" transform="translate(-308.92 -249.026)" fill="#fff"/>
        <path id="Trazado_711847" data-name="Trazado 711847" d="M513.58,410.772a.861.861,0,0,0-.111-.36,2.617,2.617,0,0,0-.607-.833,1.16,1.16,0,0,0-.652-.36.41.41,0,0,0-.407.238.667.667,0,0,0,0,.476,1.442,1.442,0,0,0,1.632.845,1.672,1.672,0,0,0,1.264-1.366.579.579,0,0,0-.133-.465.4.4,0,0,0-.467-.063,1.43,1.43,0,0,0-.508.538,2.929,2.929,0,0,0-.388.954.9.9,0,0,0-.032.375,4.659,4.659,0,0,1,.548-1.244,1.33,1.33,0,0,1,.454-.458.214.214,0,0,1,.255.033.4.4,0,0,1,.069.311,1.492,1.492,0,0,1-1.109,1.172,1.252,1.252,0,0,1-1.4-.7.485.485,0,0,1-.014-.333.222.222,0,0,1,.223-.135,1.05,1.05,0,0,1,.558.294,3.861,3.861,0,0,1,.82,1.078" transform="translate(-307.669 -245.792)" fill="#fff"/>
        <path id="Trazado_711848" data-name="Trazado 711848" d="M383.5,162.964,387.3,166.9l.154,3.423-4.417,1.016h-.225l-.286-2.209-2.546-3.385Z" transform="translate(-228.447 -97.974)" fill="#ae7461"/>
        <path id="Trazado_711849" data-name="Trazado 711849" d="M318.173,97.018a23.194,23.194,0,1,1,5.8-20.373,23.022,23.022,0,0,1-5.8,20.373m-31.692-.061a21.64,21.64,0,1,0-6.416-11.552,21.475,21.475,0,0,0,6.416,11.552" transform="translate(-167.193 -34.872)" fill="#455a64"/>
        <path id="Trazado_711850" data-name="Trazado 711850" d="M318.173,97.018a23.194,23.194,0,1,1,5.8-20.373,23.022,23.022,0,0,1-5.8,20.373m-31.692-.061a21.64,21.64,0,1,0-6.416-11.552,21.475,21.475,0,0,0,6.416,11.552" transform="translate(-167.193 -34.872)" fill="#263238"/>
        <path id="Trazado_711851" data-name="Trazado 711851" d="M319.6,94.221a23.195,23.195,0,1,1,5.8-20.373,23.02,23.02,0,0,1-5.8,20.373m-31.692-.061a21.64,21.64,0,1,0-6.416-11.552,21.477,21.477,0,0,0,6.416,11.552" transform="translate(-168.051 -33.19)" fill="#455a64"/>
        <path id="Trazado_711852" data-name="Trazado 711852" d="M400.782,180.756l.737-.713c.658-.636.289-2.091-.4-2.8L375.23,150.487l-3.461,3.349,25.849,26.718a2.317,2.317,0,0,0,3.164.2" transform="translate(-223.507 -90.473)" fill="#455a64"/>
        <path id="Trazado_711853" data-name="Trazado 711853" d="M381.273,158.34a.609.609,0,0,0-.524-.14,1.024,1.024,0,0,0-.411.286A4.7,4.7,0,0,0,379,161.733a1.438,1.438,0,0,0,.593,1.338l.52-.3c.161-.208.643-.556.707-.812.269-1.075-.117-1.03.557-2.895a.643.643,0,0,0-.109-.725" transform="translate(-227.857 -95.101)" fill="#ae7461"/>
        <path id="Trazado_711854" data-name="Trazado 711854" d="M382.942,161.031a2.564,2.564,0,0,1,.515-.678.748.748,0,0,1,.685-.2c.359.113.534.629.493,1.11a4.179,4.179,0,0,1-.446,1.367l-1.279,2.772-.248-.182a.35.35,0,0,1-.552-.122,1.471,1.471,0,0,1-.122-.755,7.236,7.236,0,0,1,.955-3.307" transform="translate(-229.649 -96.267)" fill="#ae7461"/>
        <path id="Trazado_711855" data-name="Trazado 711855" d="M385.019,166.009a6.492,6.492,0,0,1,1.28-1.716,1.576,1.576,0,0,1,.595-.451.559.559,0,0,1,.668.2.772.772,0,0,1-.091.68,31.77,31.77,0,0,1-2.2,3.866l-.764-.77c-.347-.625.219-1.154.514-1.8" transform="translate(-231.099 -98.48)" fill="#ae7461"/>
        <path id="Trazado_711856" data-name="Trazado 711856" d="M417.347,182.366l-.7-.149-3.673-3.131-2.01-1.689a1.225,1.225,0,0,0-.589-.271l-1.989-.332a1.131,1.131,0,0,0,.6,1.364l1.09.564,1,1.179-.128.255s-6.538,1.015-6.947,1.513a.68.68,0,0,0,.181,1.043,1.058,1.058,0,0,0,.5.045,1.187,1.187,0,0,0,.635,1.406s-.726.952.544,1.406a2.049,2.049,0,0,0,1.088.952,47.088,47.088,0,0,0,5.034.68l4.688.007.941.154Z" transform="translate(-242.774 -106.289)" fill="#ae7461"/>
        <path id="Trazado_711857" data-name="Trazado 711857" d="M405.586,191.482a5.217,5.217,0,0,0,1.809.1,7.237,7.237,0,0,0,1.789-.266,8.929,8.929,0,0,0-1.8.061,17.259,17.259,0,0,0-1.8.108" transform="translate(-243.837 -115.001)" fill="#6f4439"/>
        <path id="Trazado_711858" data-name="Trazado 711858" d="M407.555,195.191c0,.029.17.052.442.089s.65.087,1.075.114a9.315,9.315,0,0,0,1.085-.024,1.745,1.745,0,0,0,.446-.04c.008-.03-.165-.087-.445-.105s-.661-.01-1.074-.037-.8-.056-1.078-.053-.452.029-.451.057" transform="translate(-245.021 -117.315)" fill="#6f4439"/>
        <path id="Trazado_711859" data-name="Trazado 711859" d="M408.593,198.678a7.746,7.746,0,0,0,1.763.236,4.2,4.2,0,0,1,1.206.187c.288.108.42.263.445.24s-.08-.213-.385-.372a3.188,3.188,0,0,0-1.251-.26,7.748,7.748,0,0,0-1.779-.031" transform="translate(-245.645 -119.424)" fill="#6f4439"/>
        <path id="Trazado_711860" data-name="Trazado 711860" d="M447.473,140.118s2.764.477,4.859,4.595c1.158,2.276,6.571,15.964,6.892,17.165,1.373,5.135-1.284,8.445-3.843,8.67C452.565,170.8,438,166.1,438,166.1l-.322-6.223,13.287,2.017L444.58,149.5s-.244-8.252,2.893-9.381" transform="translate(-263.131 -84.239)" fill="#4db1f0"/>
        <path id="Trazado_711861" data-name="Trazado 711861" d="M475.051,198.111a2.263,2.263,0,0,0-.357-.83,5.6,5.6,0,0,0-3.483-2.485,2.266,2.266,0,0,0-.9-.068c0,.036.34.061.865.209a6.319,6.319,0,0,1,3.4,2.424c.311.448.446.764.479.75" transform="translate(-282.75 -117.059)" fill="#263238"/>
        <path id="Trazado_711862" data-name="Trazado 711862" d="M451.563,184.841a.22.22,0,0,1-.069-.009l-.2-.043c-.177-.036-.431-.112-.765-.2-.664-.192-1.631-.488-2.847-.876-2.434-.776-5.872-1.912-9.913-3.279l-.061-.021,0-.065c-.094-1.791-.2-3.743-.3-5.779l-.007-.127.126.02,3.269.529,10.02,1.635-.1.136-4.413-8.64-1.237-2.456-.321-.654a1.527,1.527,0,0,1-.1-.229,1.582,1.582,0,0,1,.128.216l.347.641,1.284,2.432,4.479,8.6.086.165-.184-.03-10.023-1.615-3.269-.531.119-.107c.1,2.036.2,3.989.289,5.78l-.065-.086,9.887,3.35,2.829.927c.33.1.582.186.755.232l.2.058a.24.24,0,0,1,.065.025" transform="translate(-262.961 -99.065)" fill="#263238"/>
        <path id="Trazado_711863" data-name="Trazado 711863" d="M458.083,140.745c.02.033-.376.26-.927.735a7.879,7.879,0,0,0-2.646,4.871c-.1.72-.074,1.176-.112,1.177a.983.983,0,0,1-.047-.318,5.085,5.085,0,0,1,.013-.876,6.875,6.875,0,0,1,.239-1.281,7.334,7.334,0,0,1,1.515-2.789,6.851,6.851,0,0,1,.944-.9,5.068,5.068,0,0,1,.728-.488.958.958,0,0,1,.292-.134" transform="translate(-273.147 -84.615)" fill="#263238"/>
      </g>
    </g>
    <g id="Grupo_1002601" data-name="Grupo 1002601">
      <g id="Grupo_1002600" data-name="Grupo 1002600" clip-path="url(#clip-path)">
        <path id="Trazado_711864" data-name="Trazado 711864" d="M75.265,161.768S72.329,178.1,72.47,179.629s.922,3.957,2.694,4.374a7.957,7.957,0,0,0,3.4,0L76.44,163.94Z" transform="translate(-43.566 -97.255)" fill="#ffc09d"/>
        <path id="Trazado_711865" data-name="Trazado 711865" d="M100.659,89.463l-.206-16.878c-.188-4.2,2.1-7.8,6.3-7.876l.388.016a7.51,7.51,0,0,1,7.2,7.208c.143,3.639.254,7.661.149,9.606-.216,4.025-4.27,4.486-4.27,4.486s-.025,2.45-.023,3.633l-3.242,4.5v.24Z" transform="translate(-60.386 -38.903)" fill="#ffc09d"/>
        <path id="Trazado_711866" data-name="Trazado 711866" d="M117.138,115.494a9.736,9.736,0,0,1-5.18-1.767,5.006,5.006,0,0,0,5.17,2.884Z" transform="translate(-67.309 -68.372)" fill="#ff9b6c"/>
        <path id="Trazado_711867" data-name="Trazado 711867" d="M130.33,90.717a.576.576,0,0,1-.579.558.551.551,0,0,1-.571-.543.576.576,0,0,1,.578-.558.551.551,0,0,1,.572.544" transform="translate(-77.663 -54.212)" fill="#263238"/>
        <path id="Trazado_711868" data-name="Trazado 711868" d="M129.524,86.212c-.074.072-.5-.268-1.116-.292s-1.086.267-1.149.188c-.032-.035.047-.167.25-.3a1.578,1.578,0,0,1,.924-.244,1.52,1.52,0,0,1,.884.326c.184.154.243.292.207.325" transform="translate(-76.504 -51.438)" fill="#263238"/>
        <path id="Trazado_711869" data-name="Trazado 711869" d="M116.468,90.717a.575.575,0,0,1-.579.557.55.55,0,0,1-.571-.543.576.576,0,0,1,.578-.558.551.551,0,0,1,.572.544" transform="translate(-69.329 -54.212)" fill="#263238"/>
        <path id="Trazado_711870" data-name="Trazado 711870" d="M114.294,85.943c-.074.072-.5-.268-1.116-.292s-1.085.267-1.149.188c-.032-.035.046-.167.25-.3a1.584,1.584,0,0,1,.924-.244,1.522,1.522,0,0,1,.885.327c.183.154.243.292.207.324" transform="translate(-67.347 -51.277)" fill="#263238"/>
        <path id="Trazado_711871" data-name="Trazado 711871" d="M122.677,91.29a4.123,4.123,0,0,1,1.013-.14c.159-.01.309-.035.341-.142a.807.807,0,0,0-.086-.473l-.418-1.223a20.672,20.672,0,0,1-.92-3.192,20.737,20.737,0,0,1,1.174,3.11c.139.43.272.838.4,1.23a.916.916,0,0,1,.057.624.4.4,0,0,1-.27.22,1.062,1.062,0,0,1-.27.026,4.011,4.011,0,0,1-1.019-.041" transform="translate(-73.707 -51.776)" fill="#263238"/>
        <path id="Trazado_711872" data-name="Trazado 711872" d="M114.155,81.013c-.091.154-.684-.036-1.415-.082s-1.345.042-1.412-.124c-.029-.079.1-.216.363-.333a2.465,2.465,0,0,1,2.154.157c.242.154.351.309.31.382" transform="translate(-66.928 -48.275)" fill="#263238"/>
        <path id="Trazado_711873" data-name="Trazado 711873" d="M129.457,81.617c-.132.137-.633-.022-1.239-.045-.6-.041-1.122.065-1.236-.085-.05-.073.035-.211.262-.339a1.953,1.953,0,0,1,1.014-.2,1.922,1.922,0,0,1,.981.309c.21.15.277.3.218.364" transform="translate(-76.333 -48.662)" fill="#263238"/>
        <path id="Trazado_711874" data-name="Trazado 711874" d="M96.825,91.721c-.067-.033-2.734-.933-2.759,1.825a2.073,2.073,0,0,0,2.753,2.135c.006-.079.006-3.96.006-3.96" transform="translate(-56.552 -55.043)" fill="#ffc09d"/>
        <path id="Trazado_711875" data-name="Trazado 711875" d="M97.041,95.965c-.012-.009-.049.033-.13.07a.482.482,0,0,1-.359,0,1.189,1.189,0,0,1-.54-1.072,1.582,1.582,0,0,1,.141-.686.554.554,0,0,1,.365-.365.245.245,0,0,1,.282.134c.036.077.018.132.032.137s.059-.046.038-.16a.3.3,0,0,0-.106-.174.363.363,0,0,0-.265-.073.675.675,0,0,0-.505.423,1.628,1.628,0,0,0-.174.767,1.246,1.246,0,0,0,.69,1.2.513.513,0,0,0,.439-.069c.087-.067.1-.129.092-.134" transform="translate(-57.606 -56.38)" fill="#ff9b6c"/>
        <path id="Trazado_711876" data-name="Trazado 711876" d="M117.779,100.044c.095-.006.1.627.643,1.074s1.218.374,1.223.463c.009.04-.15.124-.435.133a1.579,1.579,0,0,1-1.021-.351,1.372,1.372,0,0,1-.5-.9c-.026-.265.044-.422.088-.418" transform="translate(-70.753 -60.146)" fill="#263238"/>
        <path id="Trazado_711877" data-name="Trazado 711877" d="M113.679,64.025a.653.653,0,0,0-.3-.385,2.01,2.01,0,0,0-1.029-.179,5.806,5.806,0,0,1-2.516-.662,2.877,2.877,0,0,0,.748-.512,1.731,1.731,0,0,0,.517-1.715.383.383,0,0,0-.213-.266c-.179-.057-.337.117-.464.255a1.49,1.49,0,0,1-1.409.578,2.442,2.442,0,0,1-1.044-.322c-.012-.012-.022-.026-.034-.039-.142-.15-.28-.293-.416-.431h0a9.123,9.123,0,0,0-2.824-2.144,9.368,9.368,0,0,0-5-.45A3.785,3.785,0,0,0,96.8,60.664a2.912,2.912,0,0,0-2.924-.308l-.024-.011a3.661,3.661,0,0,0-2.019,2.575c-.018.059-.034.12-.051.179a4.233,4.233,0,0,1-1.452,1.387c-.1.059-.223.131-.237.25s.085.216.18.286a2.132,2.132,0,0,0,.86.369,4.768,4.768,0,0,1-.363.746c-.123.2-.269.445-.166.659a.451.451,0,0,0,.469.211,1.324,1.324,0,0,0,.5-.219l-.367.851a2.52,2.52,0,0,0,1.162-.064c.215,1.021.364,2.908.619,3.6a4.187,4.187,0,0,1,1.278.07c.476.164.284,1.007.908.774.317-.119.817-1.312.926-1.633a15.743,15.743,0,0,0,.757-6.656,5.066,5.066,0,0,1,1.576-1.11l-.048.043a4.587,4.587,0,0,1,3.475-.208,7.442,7.442,0,0,1,1.915,1.981,5.772,5.772,0,0,0,4.236,2.121c.144,1.219.168,3.21.215,4.347l1-2.262v.009c.08-.132.146-.266.21-.4l.022-.041v-.005a7.114,7.114,0,0,1,.327-.642l.011.01a.71.71,0,0,0,1.048-.937,1.608,1.608,0,0,0-.339-.349,1.122,1.122,0,0,0,1.066.29.881.881,0,0,0,.633-.864.749.749,0,0,0-.439-.606,2.531,2.531,0,0,0,1.442-.3c.286-.159.567-.422.475-.781" transform="translate(-54.164 -34.622)" fill="#263238"/>
        <path id="Trazado_711878" data-name="Trazado 711878" d="M101.046,66.5a3.482,3.482,0,0,0-.409.366A2.9,2.9,0,0,0,100,68.2a5.109,5.109,0,0,0-.115,1.024c-.006.372.02.77.043,1.19a10.683,10.683,0,0,1,.015,1.324,4.716,4.716,0,0,1-.1.7,1.456,1.456,0,0,1-.293.674.609.609,0,0,1-.571.185.906.906,0,0,1-.509-.3,2.093,2.093,0,0,1-.377-1.031l.085.011a3.379,3.379,0,0,1-.5.84,1.2,1.2,0,0,1-.79.418.773.773,0,0,1-.415-.077.672.672,0,0,1-.28-.282.694.694,0,0,1-.082-.359.5.5,0,0,1,.133-.312l.042.039a2.6,2.6,0,0,1-.874.64,2.329,2.329,0,0,1-.27.1.45.45,0,0,1-.1.023.471.471,0,0,1,.091-.038c.06-.024.15-.059.262-.114a2.678,2.678,0,0,0,.844-.65l.042.039a.518.518,0,0,0-.034.6.6.6,0,0,0,.253.249.7.7,0,0,0,.376.066,1.127,1.127,0,0,0,.733-.4,3.322,3.322,0,0,0,.482-.822l.06-.129.025.14a2.021,2.021,0,0,0,.359.984A.816.816,0,0,0,99,73.2a.513.513,0,0,0,.486-.157,1.376,1.376,0,0,0,.27-.631,4.643,4.643,0,0,0,.1-.682,10.859,10.859,0,0,0-.01-1.312c-.021-.42-.044-.82-.035-1.2a5.067,5.067,0,0,1,.128-1.038,2.853,2.853,0,0,1,.673-1.343,1.632,1.632,0,0,1,.436-.341" transform="translate(-57.144 -39.98)" fill="#455a64"/>
        <path id="Trazado_711879" data-name="Trazado 711879" d="M122.739,67.192a.15.15,0,0,1-.033.027l-.1.073a1.327,1.327,0,0,1-.172.107,2.157,2.157,0,0,1-.247.127,3.581,3.581,0,0,1-1.731.291,4.572,4.572,0,0,1-2.425-.927,7.921,7.921,0,0,1-2.065-2.435c-.288-.492-.522-1-.78-1.461a5.356,5.356,0,0,0-.888-1.239,2.755,2.755,0,0,0-1.155-.719,1.973,1.973,0,0,0-.613-.077,2.172,2.172,0,0,0-.562.1,2.332,2.332,0,0,0-1.309,1.083,2.813,2.813,0,0,0-.215.6.141.141,0,0,1,0-.042l.021-.124a2.027,2.027,0,0,1,.158-.454,2.3,2.3,0,0,1,.459-.607,2.366,2.366,0,0,1,.862-.522,2.225,2.225,0,0,1,.581-.11,2.027,2.027,0,0,1,.637.075,2.821,2.821,0,0,1,1.194.732,5.384,5.384,0,0,1,.907,1.256c.262.469.5.971.781,1.459a7.919,7.919,0,0,0,2.035,2.413,4.549,4.549,0,0,0,2.378.93,3.634,3.634,0,0,0,1.711-.258,5.625,5.625,0,0,0,.568-.3" transform="translate(-66.398 -36.604)" fill="#455a64"/>
        <path id="Trazado_711880" data-name="Trazado 711880" d="M135.8,72.264a.642.642,0,0,1-.146.1,3.083,3.083,0,0,1-.431.213,4.135,4.135,0,0,1-.681.215,4.407,4.407,0,0,1-1.742.036,4.134,4.134,0,0,1-.689-.187,3.082,3.082,0,0,1-.439-.195.643.643,0,0,1-.15-.093c.008-.016.229.1.611.225a4.848,4.848,0,0,0,.682.164,4.686,4.686,0,0,0,1.709-.035,4.868,4.868,0,0,0,.675-.192c.376-.139.592-.265.6-.25" transform="translate(-79.07 -43.444)" fill="#455a64"/>
        <path id="Trazado_711881" data-name="Trazado 711881" d="M102.4,393.381,102,402.5s9.131,3.466,9.221,5.158l-17.7-.138.038-14.228Z" transform="translate(-56.225 -236.444)" fill="#455a64"/>
        <path id="Trazado_711882" data-name="Trazado 711882" d="M100.289,414.3a.723.723,0,0,0-.506.821.7.7,0,0,0,.81.509.762.762,0,0,0,.532-.872.72.72,0,0,0-.9-.436" transform="translate(-59.98 -249.061)" fill="#e0e0e0"/>
        <g id="Grupo_1002593" data-name="Grupo 1002593" transform="translate(37.296 169.638)" opacity="0.6">
          <g id="Grupo_1002592" data-name="Grupo 1002592">
            <g id="Grupo_1002591" data-name="Grupo 1002591" clip-path="url(#clip-path-15)">
              <path id="Trazado_711883" data-name="Trazado 711883" d="M93.521,426.8l.06-1.434,16.949.668s.785.349.692.9Z" transform="translate(-93.521 -425.369)" fill="#fff"/>
            </g>
          </g>
        </g>
        <path id="Trazado_711884" data-name="Trazado 711884" d="M113.062,416.033c0,.087-.436.122-.863.4s-.657.636-.736.6c-.079-.018.053-.533.577-.857s1.042-.221,1.023-.142" transform="translate(-66.998 -250.069)" fill="#263238"/>
        <path id="Trazado_711885" data-name="Trazado 711885" d="M118.363,418.064c.019.084-.356.228-.653.591s-.384.749-.47.745c-.081.013-.137-.494.24-.938s.882-.48.883-.4" transform="translate(-70.449 -251.318)" fill="#263238"/>
        <path id="Trazado_711886" data-name="Trazado 711886" d="M122.594,421.47c-.079.018-.2-.415.03-.887s.631-.657.667-.585-.216.323-.4.713-.216.75-.3.758" transform="translate(-73.642 -252.494)" fill="#263238"/>
        <path id="Trazado_711887" data-name="Trazado 711887" d="M112.379,410.444c-.037.079-.433-.044-.921-.014s-.871.18-.916.106.324-.38.9-.406.979.247.936.315" transform="translate(-66.455 -246.568)" fill="#263238"/>
        <path id="Trazado_711888" data-name="Trazado 711888" d="M115.417,410.664a14.819,14.819,0,0,1,.024,2.2l-.071-.108c1.034.392,2.409.922,3.869,1.611a20.763,20.763,0,0,1,3.923,2.259,4.2,4.2,0,0,1,.97.988c.184.284.16.5.131.491a1.235,1.235,0,0,0-.226-.425,4.931,4.931,0,0,0-1-.887,25.7,25.7,0,0,0-3.922-2.158c-1.451-.684-2.811-1.237-3.825-1.672l-.075-.032,0-.076a14.805,14.805,0,0,1,.2-2.186" transform="translate(-69.266 -246.89)" fill="#263238"/>
        <path id="Trazado_711889" data-name="Trazado 711889" d="M87.079,234.142V242.4l3.259,26.38s-1.033,12.371-1.667,19.354c-.551,6.065.349,16.626.349,16.626h9.661l3.457-35.223,2.146-21.967,3.892-13.012Z" transform="translate(-52.352 -140.766)" fill="#263238"/>
        <path id="Trazado_711890" data-name="Trazado 711890" d="M112.008,386.286l-2.53,8.766s8.06,5.516,7.751,7.182l-17.173-4.3,3.382-13.82Z" transform="translate(-60.153 -230.93)" fill="#455a64"/>
        <path id="Trazado_711891" data-name="Trazado 711891" d="M109.8,406.328a.722.722,0,0,0-.685.679.7.7,0,0,0,.667.685.763.763,0,0,0,.722-.723.721.721,0,0,0-.773-.635" transform="translate(-65.6 -244.279)" fill="#e0e0e0"/>
        <g id="Grupo_1002596" data-name="Grupo 1002596" transform="translate(39.903 165.627)" opacity="0.6">
          <g id="Grupo_1002595" data-name="Grupo 1002595">
            <g id="Grupo_1002594" data-name="Grupo 1002594" clip-path="url(#clip-path-16)">
              <path id="Trazado_711892" data-name="Trazado 711892" d="M100.056,416.691l.4-1.379,16.317,4.634s.681.524.46,1.041Z" transform="translate(-100.056 -415.312)" fill="#fff"/>
            </g>
          </g>
        </g>
        <path id="Trazado_711893" data-name="Trazado 711893" d="M121.719,411.218c-.024.083-.453.016-.932.183s-.788.464-.857.412c-.073-.036.177-.506.762-.7s1.065.03,1.027.1" transform="translate(-72.094 -247.115)" fill="#263238"/>
        <path id="Trazado_711894" data-name="Trazado 711894" d="M126.319,414.379c0,.086-.4.138-.773.421s-.55.638-.632.613c-.082-.006-.017-.512.454-.855s.97-.26.952-.179" transform="translate(-75.08 -249.08)" fill="#263238"/>
        <path id="Trazado_711895" data-name="Trazado 711895" d="M129.625,418.587c-.081,0-.093-.449.238-.855s.768-.49.786-.411-.286.263-.552.6-.386.678-.472.666" transform="translate(-77.902 -250.877)" fill="#263238"/>
        <path id="Trazado_711896" data-name="Trazado 711896" d="M122.6,405.482c-.054.068-.41-.144-.892-.23s-.889-.03-.914-.112.4-.293.971-.183.894.471.836.526" transform="translate(-72.619 -243.441)" fill="#263238"/>
        <path id="Trazado_711897" data-name="Trazado 711897" d="M120,235.556l.443,4.493-.536,32.624-7.646,26.208-1.852,6.356-9.869-1.858,7.607-67.813Z" transform="translate(-60.444 -141.616)" fill="#263238"/>
        <path id="Trazado_711898" data-name="Trazado 711898" d="M119.539,287.182s-.01.053-.037.155l-.124.453-.5,1.755-1.895,6.589-6.656,22.953-.022.075-.077-.014-9.87-1.854-.091-.017.017-.091,1.566-8.272,4.411-23.224v.028l-3.686-23.139,0,.012-1.648-3-.42-.775c-.093-.175-.137-.266-.137-.266s.055.085.154.256l.437.766,1.68,2.981,0,.006v.007l3.774,23.125,0,.014,0,.014-4.391,23.227-1.569,8.272-.073-.107,9.868,1.864-.1.061,6.72-22.934,1.942-6.575.524-1.747.138-.449c.032-.1.051-.151.051-.151" transform="translate(-60.282 -155.441)" fill="#455a64"/>
        <path id="Trazado_711899" data-name="Trazado 711899" d="M136.793,242.263a3.1,3.1,0,0,1-.537.788,7.268,7.268,0,0,1-3.886,2.368,3.08,3.08,0,0,1-.947.116,8.91,8.91,0,0,0,5.37-3.272" transform="translate(-79.011 -145.648)" fill="#455a64"/>
        <path id="Trazado_711900" data-name="Trazado 711900" d="M190.237,117.889a.417.417,0,0,0-.093-.575.2.2,0,0,0-.148-.043c-.2.033-.717.412-1.118.419s-1.081-.116-1.482.256a12.529,12.529,0,0,0-1.5,2.853c-.124.443-.558,4.33-.558,4.33Z" transform="translate(-111.425 -70.501)" fill="#ffc09d"/>
        <path id="Trazado_711901" data-name="Trazado 711901" d="M190.845,117.547c-.022.024-4.79,2.129-6.884,3.052a.712.712,0,0,0-.2,1.168.745.745,0,0,0,.852.132l6.843-3.334.564-.857Z" transform="translate(-110.342 -70.669)" fill="#263238"/>
        <path id="Trazado_711902" data-name="Trazado 711902" d="M185.535,121.8l1.52-1.12,2.008-2.913s.822-.489,1.247-.181.565.663.367,1.061c0,0,1.134.271,1.215.65a4.338,4.338,0,0,1-.164,1.3,2.29,2.29,0,0,1,.008,1.085,1.744,1.744,0,0,0-.143.7,2.128,2.128,0,0,1,.419,1.818,11.015,11.015,0,0,1-2.349,3.5,15.4,15.4,0,0,1-2.05,1.166l-.876,1.835-3.636-3.292Z" transform="translate(-110.081 -70.633)" fill="#ffc09d"/>
        <path id="Trazado_711903" data-name="Trazado 711903" d="M193.374,118.509a.843.843,0,0,1-.091.157l-.271.412c-.231.347-.555.822-.917,1.345l-.513.736a1.831,1.831,0,0,1-.261.3,1.266,1.266,0,0,1-.292.189,2.409,2.409,0,0,1-.471.158.821.821,0,0,1-.179.033.92.92,0,0,1,.171-.061,2.973,2.973,0,0,0,.455-.177c.392-.165.652-.712,1.027-1.22.362-.523.692-.994.935-1.333l.29-.4a.844.844,0,0,1,.115-.141" transform="translate(-114.456 -71.247)" fill="#ff9b6c"/>
        <path id="Trazado_711904" data-name="Trazado 711904" d="M199.057,122.707a22.269,22.269,0,0,1,1.237-2.254,22.271,22.271,0,0,1-1.237,2.254" transform="translate(-119.672 -72.416)" fill="#ff9b6c"/>
        <path id="Trazado_711905" data-name="Trazado 711905" d="M199.008,129.71c-.012,0-.017-.065-.054-.16a.671.671,0,0,0-.236-.3.685.685,0,0,0-.368-.117c-.1,0-.165.014-.169,0s.057-.043.167-.055a.631.631,0,0,1,.412.109.618.618,0,0,1,.244.349c.027.108.013.176,0,.176" transform="translate(-119.146 -77.599)" fill="#ff9b6c"/>
        <path id="Trazado_711906" data-name="Trazado 711906" d="M202.893,131.324c-.007.008-.063-.034-.15-.1a1.785,1.785,0,0,0-.355-.232.681.681,0,0,0-.4-.065.407.407,0,0,0-.15.077c-.011,0,.017-.088.136-.127a.634.634,0,0,1,.446.049,1.25,1.25,0,0,1,.359.26c.079.08.122.135.115.142" transform="translate(-121.342 -78.668)" fill="#ff9b6c"/>
        <path id="Trazado_711907" data-name="Trazado 711907" d="M202.853,126.458a6.3,6.3,0,0,1,.729-1.152,6.3,6.3,0,0,1-.729,1.152" transform="translate(-121.954 -75.333)" fill="#ff9b6c"/>
        <path id="Trazado_711908" data-name="Trazado 711908" d="M194.425,127.611c-.012,0-.01-.063-.038-.154a.572.572,0,0,0-.205-.294.588.588,0,0,0-.343-.106c-.1,0-.154.02-.158.009s.05-.047.154-.061a.549.549,0,0,1,.39.1.539.539,0,0,1,.213.342c.017.1,0,.167-.013.165" transform="translate(-116.44 -76.353)" fill="#ff9b6c"/>
        <path id="Trazado_711909" data-name="Trazado 711909" d="M184.919,126.736c-.008-.01.066-.067.131-.193a.657.657,0,0,0,.035-.528.694.694,0,0,0-.378-.374c-.132-.055-.225-.053-.225-.065a.365.365,0,0,1,.242.016.69.69,0,0,1,.43.4.66.66,0,0,1-.059.581c-.084.13-.173.174-.177.167" transform="translate(-110.911 -75.488)" fill="#455a64"/>
        <path id="Trazado_711910" data-name="Trazado 711910" d="M141.24,143.077l5.767,4.936,7.079-10.575,4.6,2.715s-6.9,15.881-8.768,17.284-3.447,1.039-5.853-.071-10.973-9.738-10.973-9.738Z" transform="translate(-80.016 -82.627)" fill="#ffc09d"/>
        <path id="Trazado_711911" data-name="Trazado 711911" d="M168.124,168.237c-.057-.009.1-1.006.031-2.238s-.324-2.207-.269-2.222a7.59,7.59,0,0,1,.238,4.459" transform="translate(-100.928 -98.463)" fill="#ff9b6c"/>
        <path id="Trazado_711912" data-name="Trazado 711912" d="M81.254,131.089s4.9.071,4.974,6.181a102.351,102.351,0,0,1-1.248,14.285L72.466,149.35s1.552-11.376,2.877-14.652c1.334-3.3,3.881-4.164,5.91-3.609" transform="translate(-43.566 -78.717)" fill="#008b8a"/>
        <path id="Trazado_711913" data-name="Trazado 711913" d="M89.221,120.3l-.156,1s-6.688,4.419-7.066,5.56c-.586,1.768.692,16.707,1.257,20.94s.679,13.565.679,13.565a12.955,12.955,0,0,0-1.031,3.624,4.469,4.469,0,0,0,1.031,2.908c7.176,2.341,15.942.544,25.426-1.619l-.089-2.688-3.1-29.2s.9-7.591-2.8-9.788c-.407-.242-3.637-2.077-3.637-2.077Z" transform="translate(-49.207 -72.322)" fill="#008b8a"/>
        <g id="Grupo_1002599" data-name="Grupo 1002599" transform="translate(50.768 60.634)" opacity="0.3">
          <g id="Grupo_1002598" data-name="Grupo 1002598">
            <g id="Grupo_1002597" data-name="Grupo 1002597" clip-path="url(#clip-path-17)">
              <path id="Trazado_711914" data-name="Trazado 711914" d="M127.3,152.04a22.646,22.646,0,0,0,2.2,9.009,26.691,26.691,0,0,0,5.626,7.807l-1-8.739Z" transform="translate(-127.302 -152.04)"/>
            </g>
          </g>
        </g>
        <path id="Trazado_711915" data-name="Trazado 711915" d="M131.339,131.978c-1.172-.949-3.353-1.464-4.6-.611a3.747,3.747,0,0,0-1.509,1.858,14.051,14.051,0,0,0,.423,8.922c.849,2.478,4.956,7.251,4.956,7.251l10.147-6.158s-6.791-8.232-7.5-9.082a17.92,17.92,0,0,0-1.919-2.18" transform="translate(-74.955 -78.717)" fill="#008b8a"/>
        <path id="Trazado_711916" data-name="Trazado 711916" d="M131.231,131.914a1.781,1.781,0,0,1,.215.171,7.482,7.482,0,0,1,.56.569c.47.518,1.09,1.325,1.927,2.309l6.782,8.16.062.074-.083.051-9.587,5.83-.555.337-.068.041-.051-.06c-1.135-1.341-2.189-2.689-3.135-4.045A21.635,21.635,0,0,1,126,143.287a8.6,8.6,0,0,1-.5-1.078c-.136-.367-.244-.734-.352-1.1a13.306,13.306,0,0,1-.1-7.947,3.249,3.249,0,0,1,3.374-2.33,4.684,4.684,0,0,1,1.05.179,4.983,4.983,0,0,1,1.342.593,2.407,2.407,0,0,1,.408.308c-.008.011-.14-.108-.428-.276a5.223,5.223,0,0,0-1.342-.556,4.664,4.664,0,0,0-1.036-.161,3.37,3.37,0,0,0-1.225.16,3.648,3.648,0,0,0-2.022,2.124,13.246,13.246,0,0,0,.136,7.859c.108.36.217.728.352,1.087a8.362,8.362,0,0,0,.492,1.052,21.623,21.623,0,0,0,1.288,2.043c.943,1.347,2,2.693,3.127,4.027l-.118-.019.555-.337,9.6-5.814-.021.125-6.73-8.2c-.826-.993-1.436-1.813-1.89-2.338-.226-.264-.41-.457-.538-.583s-.2-.186-.2-.191" transform="translate(-74.846 -78.653)" fill="#263238"/>
        <path id="Trazado_711917" data-name="Trazado 711917" d="M81.883,145.215a.652.652,0,0,1,.029.177c.013.138.028.306.047.509.034.472.08,1.105.136,1.876.1,1.611.24,3.787.393,6.191s.324,4.6.468,6.185c.071.769.13,1.4.174,1.872.018.2.033.372.045.51a.659.659,0,0,1,0,.179.651.651,0,0,1-.04-.175c-.022-.137-.047-.3-.079-.506-.064-.44-.147-1.078-.233-1.868-.177-1.579-.364-3.767-.522-6.186s-.266-4.61-.339-6.2c-.032-.772-.057-1.407-.077-1.879,0-.2-.009-.373-.012-.512a.652.652,0,0,1,.008-.179" transform="translate(-49.223 -87.303)" fill="#263238"/>
        <path id="Trazado_711918" data-name="Trazado 711918" d="M109.25,234.139a.773.773,0,0,1-.188.059l-.548.133c-.238.059-.531.12-.872.183s-.73.142-1.163.207c-.863.149-1.9.269-3.05.382-1.153.1-2.424.168-3.76.184s-2.609-.036-3.764-.113c-1.154-.093-2.192-.2-3.056-.338-.434-.06-.823-.132-1.165-.2s-.636-.121-.873-.179l-.548-.132a.809.809,0,0,1-.188-.058.778.778,0,0,1,.2.022l.554.1c.239.048.534.1.877.148s.731.118,1.165.169c.863.123,1.9.214,3.049.3,1.151.067,2.419.107,3.75.1s2.6-.082,3.748-.169c1.149-.1,2.183-.209,3.045-.341.433-.056.822-.122,1.164-.179s.637-.1.877-.152l.554-.1a.808.808,0,0,1,.2-.022" transform="translate(-54.153 -140.763)" fill="#263238"/>
      </g>
    </g>
  </g>
</svg>
