<svg xmlns="http://www.w3.org/2000/svg" xmlns:xlink="http://www.w3.org/1999/xlink" width="497.096" height="509.315" viewBox="0 0 497.096 509.315">
  <defs>
    <clipPath id="clip-path">
      <rect id="Rectángulo_345016" data-name="Rectángulo 345016" width="497.096" height="509.315" fill="none"/>
    </clipPath>
    <clipPath id="clip-path-5">
      <rect id="Rectángulo_344991" data-name="Rectángulo 344991" width="62.758" height="89.323" fill="none"/>
    </clipPath>
    <clipPath id="clip-path-7">
      <rect id="Rectángulo_344993" data-name="Rectángulo 344993" width="14.382" height="14.327" fill="none"/>
    </clipPath>
    <clipPath id="clip-path-8">
      <rect id="Rectángulo_344994" data-name="Rectángulo 344994" width="2.89" height="2.791" fill="none"/>
    </clipPath>
    <clipPath id="clip-path-9">
      <rect id="Rectángulo_344995" data-name="Rectángulo 344995" width="74.892" height="79.213" fill="none"/>
    </clipPath>
    <clipPath id="clip-path-11">
      <rect id="Rectángulo_344997" data-name="Rectángulo 344997" width="31.683" height="20.211" fill="none"/>
    </clipPath>
    <clipPath id="clip-path-12">
      <rect id="Rectángulo_344998" data-name="Rectángulo 344998" width="47.274" height="41.503" fill="none"/>
    </clipPath>
    <clipPath id="clip-path-13">
      <rect id="Rectángulo_344999" data-name="Rectángulo 344999" width="46.157" height="79.582" fill="none"/>
    </clipPath>
    <clipPath id="clip-path-16">
      <rect id="Rectángulo_345007" data-name="Rectángulo 345007" width="28.648" height="131.737" fill="none"/>
    </clipPath>
    <clipPath id="clip-path-17">
      <rect id="Rectángulo_345008" data-name="Rectángulo 345008" width="3.108" height="3.098" fill="none"/>
    </clipPath>
    <clipPath id="clip-path-18">
      <rect id="Rectángulo_345009" data-name="Rectángulo 345009" width="20.953" height="28.88" fill="none"/>
    </clipPath>
    <clipPath id="clip-path-19">
      <rect id="Rectángulo_345010" data-name="Rectángulo 345010" width="25.454" height="19.858" fill="none"/>
    </clipPath>
    <clipPath id="clip-path-20">
      <rect id="Rectángulo_345011" data-name="Rectángulo 345011" width="24.358" height="15.925" fill="none"/>
    </clipPath>
    <clipPath id="clip-path-21">
      <rect id="Rectángulo_345012" data-name="Rectángulo 345012" width="51.637" height="81.726" fill="none"/>
    </clipPath>
    <clipPath id="clip-path-22">
      <rect id="Rectángulo_345013" data-name="Rectángulo 345013" width="31.278" height="12.705" fill="none"/>
    </clipPath>
    <clipPath id="clip-path-23">
      <rect id="Rectángulo_345014" data-name="Rectángulo 345014" width="143.386" height="143.455" fill="none"/>
    </clipPath>
  </defs>
  <g id="Grupo_998956" data-name="Grupo 998956" transform="translate(20 1)">
    <g id="Grupo_998955" data-name="Grupo 998955" transform="translate(-20 -1)" clip-path="url(#clip-path)">
      <g id="Grupo_998895" data-name="Grupo 998895">
        <g id="Grupo_998894" data-name="Grupo 998894" clip-path="url(#clip-path)">
          <path id="Trazado_699873" data-name="Trazado 699873" d="M140.718,215.079a24.651,24.651,0,0,1,6.564-.114l3.427-5.032,9.371,3.689-.922,6.016a24.7,24.7,0,0,1,4.725,4.558l5.978-1.135,4.019,9.235-4.906,3.6a24.658,24.658,0,0,1,.114,6.565l5.032,3.427-3.689,9.371-6.017-.923a24.658,24.658,0,0,1-4.557,4.725l1.134,5.979-9.234,4.018-3.6-4.906a24.708,24.708,0,0,1-6.565.114l-3.427,5.032-9.371-3.689.923-6.017a24.7,24.7,0,0,1-4.725-4.558l-5.979,1.135-4.017-9.235,4.9-3.6a24.655,24.655,0,0,1-.114-6.565l-5.032-3.426,3.689-9.371,6.017.922a24.7,24.7,0,0,1,4.558-4.725l-1.135-5.978,9.234-4.019Zm-.172,14.448a10.8,10.8,0,1,0,14.216,5.6,10.8,10.8,0,0,0-14.216-5.6" transform="translate(14.599 26.707)" fill="#f5f5f5"/>
          <path id="Trazado_699874" data-name="Trazado 699874" d="M27.524,306.121A26.146,26.146,0,0,1,34.483,306l3.632-5.334,9.934,3.91-.977,6.378a26.141,26.141,0,0,1,5.008,4.832l6.337-1.2,4.26,9.79-5.2,3.816a26.114,26.114,0,0,1,.121,6.961l5.334,3.631-3.91,9.934-6.379-.978a26.138,26.138,0,0,1-4.831,5.009l1.2,6.337-9.79,4.26-3.816-5.2a26.155,26.155,0,0,1-6.959.121L24.816,363.6l-9.933-3.91.978-6.379a26.145,26.145,0,0,1-5.009-4.832l-6.337,1.2-4.26-9.79,5.2-3.817a26.1,26.1,0,0,1-.121-6.96L0,325.482l3.91-9.933,6.379.977a26.2,26.2,0,0,1,4.831-5.008l-1.2-6.338,9.79-4.259Zm-.183,15.316a11.453,11.453,0,1,0,15.071,5.933,11.452,11.452,0,0,0-15.071-5.933" transform="translate(0 38.25)" fill="#ebebeb"/>
          <path id="Trazado_699875" data-name="Trazado 699875" d="M355.776,191.109a26.189,26.189,0,0,1,6.964-.121l3.635-5.339,9.942,3.914-.978,6.383a26.176,26.176,0,0,1,5.013,4.836l6.343-1.2,4.262,9.8-5.2,3.819a26.2,26.2,0,0,1,.121,6.965l5.337,3.635-3.914,9.942-6.383-.979a26.138,26.138,0,0,1-4.836,5.013l1.2,6.343-9.8,4.263-3.82-5.2a26.147,26.147,0,0,1-6.965.121l-3.634,5.339-9.942-3.914.978-6.383a26.186,26.186,0,0,1-5.013-4.837l-6.342,1.205-4.263-9.8,5.2-3.819a26.148,26.148,0,0,1-.121-6.965l-5.338-3.635,3.914-9.942,6.384.98a26.186,26.186,0,0,1,4.836-5.013l-1.2-6.343,9.8-4.263Zm-.183,15.328a11.462,11.462,0,1,0,15.083,5.937,11.461,11.461,0,0,0-15.083-5.937" transform="translate(41.757 23.618)" fill="#f5f5f5"/>
          <path id="Trazado_699876" data-name="Trazado 699876" d="M185.527,23.685a41.292,41.292,0,0,1,10.062-4.372l2.073-9.96,16.827-.294,2.422,9.879a41.222,41.222,0,0,1,10.21,4.017l8.5-5.575,12.109,11.69-5.272,8.693a41.2,41.2,0,0,1,4.372,10.065l9.959,2.073.3,16.827-9.879,2.422a41.224,41.224,0,0,1-4.017,10.208l5.574,8.506L237.077,99.972,228.383,94.7a41.2,41.2,0,0,1-10.064,4.372l-2.073,9.96-16.827.3L197,99.446a41.281,41.281,0,0,1-10.21-4.016l-8.5,5.574L166.175,89.315l5.272-8.694a41.2,41.2,0,0,1-4.374-10.064l-9.959-2.072-.3-16.827,9.88-2.424a41.253,41.253,0,0,1,4.017-10.208l-5.574-8.506,11.689-12.107ZM194.5,46.1a18.054,18.054,0,1,0,25.528-.449A18.054,18.054,0,0,0,194.5,46.1" transform="translate(19.95 1.152)" fill="#f5f5f5"/>
          <path id="Trazado_699877" data-name="Trazado 699877" d="M109.247,10.026a27.862,27.862,0,0,1,6.782-3L117.384.278,128.761,0l1.684,6.669a27.877,27.877,0,0,1,6.922,2.668l5.724-3.809,8.241,7.849-3.524,5.9a27.9,27.9,0,0,1,3,6.785l6.743,1.355.277,11.377-6.669,1.683A27.9,27.9,0,0,1,148.5,47.4l3.808,5.725-7.847,8.241-5.9-3.525a27.876,27.876,0,0,1-6.785,3l-1.355,6.744-11.377.277L117.355,61.2a27.907,27.907,0,0,1-6.922-2.669l-5.724,3.809-8.242-7.848,3.525-5.9a27.824,27.824,0,0,1-3-6.784L90.244,40.45l-.278-11.377,6.67-1.684A27.852,27.852,0,0,1,99.3,20.468L95.5,14.743,103.343,6.5Zm6.169,15.115a12.208,12.208,0,1,0,17.259-.423,12.208,12.208,0,0,0-17.259.423" transform="translate(11.445 0)" fill="#ebebeb"/>
          <path id="Trazado_699878" data-name="Trazado 699878" d="M113.316,83.8a26.506,26.506,0,0,1,6.469-2.811l1.332-6.4,10.817-.189,1.558,6.351a26.434,26.434,0,0,1,6.563,2.582l5.467-3.585,7.785,7.516-3.39,5.588a26.531,26.531,0,0,1,2.811,6.47l6.4,1.332.19,10.818-6.352,1.557a26.474,26.474,0,0,1-2.581,6.563l3.582,5.468-7.514,7.783-5.589-3.39a26.5,26.5,0,0,1-6.469,2.811l-1.334,6.4-10.817.189L120.69,132.5a26.532,26.532,0,0,1-6.564-2.582l-5.467,3.583-7.783-7.515,3.388-5.589a26.529,26.529,0,0,1-2.811-6.469l-6.4-1.332-.191-10.818,6.352-1.557a26.461,26.461,0,0,1,2.582-6.563l-3.583-5.468,7.514-7.783Zm5.767,14.41a11.606,11.606,0,1,0,16.411-.289,11.606,11.606,0,0,0-16.411.289" transform="translate(12.068 9.465)" fill="#f5f5f5"/>
          <path id="Trazado_699879" data-name="Trazado 699879" d="M60.4,46.88A13.006,13.006,0,0,1,63.566,45.5l.652-3.134,5.3-.092.762,3.109a12.952,12.952,0,0,1,3.213,1.264L76.164,44.9l3.81,3.678L78.316,51.31a12.99,12.99,0,0,1,1.376,3.167l3.134.652.092,5.3-3.109.762A12.97,12.97,0,0,1,78.545,64.4L80.3,67.076l-3.678,3.811-2.736-1.659A12.966,12.966,0,0,1,70.718,70.6l-.652,3.135-5.3.092-.762-3.109A13,13,0,0,1,60.8,69.457L58.12,71.211l-3.81-3.679L55.968,64.8a12.964,12.964,0,0,1-1.376-3.166l-3.134-.653-.092-5.295,3.109-.762a12.935,12.935,0,0,1,1.264-3.213l-1.754-2.677,3.678-3.81Zm2.823,7.054a5.681,5.681,0,1,0,8.033-.141,5.682,5.682,0,0,0-8.033.141" transform="translate(6.535 5.379)" fill="#f5f5f5"/>
          <path id="Trazado_699880" data-name="Trazado 699880" d="M384.969,256.393H374.063A2.056,2.056,0,0,0,372,258.332l-.427,8.458a2.053,2.053,0,0,0,2.04,2.142l11.359.142Z" transform="translate(47.27 32.618)" fill="#e0e0e0"/>
          <path id="Trazado_699881" data-name="Trazado 699881" d="M395.8,267.641l2.466,198.9h-21.01l9.074-198.9Z" transform="translate(47.993 34.049)" fill="#f5f5f5"/>
          <path id="Trazado_699882" data-name="Trazado 699882" d="M394.837,267.641l.3,16.811-10.33-8.281.56-8.531Z" transform="translate(48.954 34.049)" fill="#e0e0e0"/>
          <path id="Trazado_699883" data-name="Trazado 699883" d="M407.016,258.854v8.764a1.545,1.545,0,0,1-1.622,1.454H383.455v-12.68l22.021,1.009a1.535,1.535,0,0,1,1.54,1.453" transform="translate(48.782 32.618)" fill="#f5f5f5"/>
          <path id="Trazado_699884" data-name="Trazado 699884" d="M391.548,267.594c1.607,1.4,35.342,49.465,38.1,54.2,3.106,5.32.264,8.57.264,8.57l-55.361-68.141,3.231-3.639,6.629,8.036s5.526-.418,7.133.978" transform="translate(47.65 32.896)" fill="#f5f5f5"/>
          <path id="Trazado_699885" data-name="Trazado 699885" d="M428.54,320.89a20.071,20.071,0,0,1,1.11,2.249l-2.382-2.871L383.3,265.716s5.526-.418,7.133.978,35.342,49.465,38.1,54.2" transform="translate(48.763 33.796)" fill="#ebebeb"/>
          <path id="Trazado_699886" data-name="Trazado 699886" d="M400.31,286.776a7.791,7.791,0,0,0-.826-1.118c-.619-.772-1.413-1.762-2.365-2.95-2.049-2.573-4.765-5.987-7.768-9.761-3.03-3.818-5.813-7.246-7.884-9.681-1.035-1.217-1.884-2.194-2.486-2.854a7.769,7.769,0,0,0-.968-1,7.622,7.622,0,0,0,.826,1.118l2.365,2.949,7.769,9.763c3.029,3.817,5.811,7.245,7.881,9.679,1.035,1.217,1.884,2.194,2.486,2.854a7.806,7.806,0,0,0,.969,1" transform="translate(48.09 33.002)" fill="#e0e0e0"/>
          <path id="Trazado_699887" data-name="Trazado 699887" d="M374.276,273c-1.752.981-56.741,14.539-62.016,15.352-5.933.914-8.392-2.958-8.392-2.958l79.8-26.266,2.741,4.378-9.435,3.193s-.951,5.321-2.7,6.3" transform="translate(38.657 32.966)" fill="#f5f5f5"/>
          <path id="Trazado_699888" data-name="Trazado 699888" d="M311.591,287.5a19.105,19.105,0,0,1-2.459.2l3.376-1.154,63.8-20.7s-.951,5.321-2.7,6.3-56.741,14.539-62.016,15.352" transform="translate(39.327 33.82)" fill="#ebebeb"/>
          <path id="Trazado_699889" data-name="Trazado 699889" d="M381.009,262.892a6.117,6.117,0,0,0-1.256.293l-3.4.991c-2.864.859-6.806,2.084-11.136,3.494s-8.228,2.741-11.023,3.763c-1.4.51-2.522.94-3.289,1.255a5.8,5.8,0,0,0-1.167.54,7.065,7.065,0,0,0,1.251-.362l3.352-1.108,11.076-3.624,11.074-3.63,3.341-1.137a5.476,5.476,0,0,0,1.18-.475" transform="translate(44.492 33.443)" fill="#e0e0e0"/>
          <path id="Trazado_699890" data-name="Trazado 699890" d="M376.754,249.9c.612-1.973,30.863-50.177,34.078-54.412,3.616-4.765,7.841-3.357,7.841-3.357L379,267.33l-4.75-1.619,4.634-8.96s-2.738-4.882-2.126-6.855" transform="translate(47.611 24.417)" fill="#f5f5f5"/>
          <path id="Trazado_699891" data-name="Trazado 699891" d="M410.559,195.291a18.372,18.372,0,0,1,1.614-1.831l-1.65,3.215-31.916,59.882s-2.738-4.882-2.126-6.855,30.863-50.176,34.078-54.412" transform="translate(47.884 24.612)" fill="#ebebeb"/>
          <path id="Trazado_699892" data-name="Trazado 699892" d="M375.348,258.7c.122.064,3.844-6.727,8.313-15.167s8-15.337,7.876-15.4-3.844,6.726-8.314,15.169-8,15.335-7.875,15.4" transform="translate(47.751 29.023)" fill="#e0e0e0"/>
          <path id="Trazado_699893" data-name="Trazado 699893" d="M374.3,261.537c0,.9-.836,2.686-.241,3.263.5.485,2.632.383,3.677.383a3.653,3.653,0,0,0,0-7.293,12,12,0,0,0-3.811.269c-.831.251.375,2.472.375,3.377" transform="translate(47.533 32.804)" fill="#f5f5f5"/>
          <path id="Trazado_699894" data-name="Trazado 699894" d="M371.989,261.534a3.442,3.442,0,1,0,3.436-3.647,3.546,3.546,0,0,0-3.436,3.647" transform="translate(47.324 32.808)" fill="#e0e0e0"/>
          <path id="Trazado_699895" data-name="Trazado 699895" d="M378.7,257.908a4.94,4.94,0,0,0-1.264-.118l-1.444-.045c-.276.011-.573-.05-.917-.016a3.5,3.5,0,0,0-1.013.25l.026-.01a.083.083,0,0,0-.027.009l-.019.008a3.823,3.823,0,0,0-2.286,3.209,3.923,3.923,0,0,0,1.188,3.18,3.382,3.382,0,0,0,2.757.946h-.029a11.765,11.765,0,0,0,2.285-.13,11.606,11.606,0,0,0-2.258-.183h-.028a3.033,3.033,0,0,1-2.377-.923,3.606,3.606,0,0,1-1.017-2.854,3.474,3.474,0,0,1,1.965-2.875l-.019.008c-.016,0,.011,0,.011,0l.026-.009a3.111,3.111,0,0,1,.867-.247c.28-.041.575,0,.858-.02l1.45-.052a4.917,4.917,0,0,0,1.266-.123" transform="translate(47.292 32.786)" fill="#e0e0e0"/>
          <path id="Trazado_699896" data-name="Trazado 699896" d="M375.3,265.11a2.38,2.38,0,0,0,1.4-.469,4.007,4.007,0,0,0,1.9-2.753,3.756,3.756,0,0,0-1.056-3.1,2.258,2.258,0,0,0-1.221-.776c-.048.064.428.343.931.98a3.8,3.8,0,0,1,.827,2.834,4.04,4.04,0,0,1-1.609,2.547c-.667.5-1.208.661-1.179.734" transform="translate(47.744 32.823)" fill="#e0e0e0"/>
          <path id="Trazado_699897" data-name="Trazado 699897" d="M376.628,265.173a2.621,2.621,0,0,0,1.618-.168,4.241,4.241,0,0,0,2.661-2.58,3.693,3.693,0,0,0-.754-3.449,2.371,2.371,0,0,0-1.278-.905c-.053.065.47.371.974,1.093a3.659,3.659,0,0,1,.556,3.132,4.178,4.178,0,0,1-2.307,2.4c-.851.379-1.475.392-1.469.472" transform="translate(47.914 32.831)" fill="#e0e0e0"/>
          <path id="Trazado_699898" data-name="Trazado 699898" d="M136.744,340.835h-7.3a1.415,1.415,0,0,0-1.384,1.375l-.286,6a1.422,1.422,0,0,0,1.366,1.52l7.605.1Z" transform="translate(16.255 43.36)" fill="#e0e0e0"/>
          <path id="Trazado_699899" data-name="Trazado 699899" d="M133.9,356.026c-.165,1.382-14.76,36.947-16.427,40.137-1.875,3.588-4.981,3.143-4.981,3.143L130.065,344.7l3.5.524-2.029,6.5s2.534,2.927,2.369,4.309" transform="translate(14.311 43.852)" fill="#f5f5f5"/>
          <path id="Trazado_699900" data-name="Trazado 699900" d="M117.012,395.37a12.1,12.1,0,0,1-.876,1.4l.719-2.33,14.214-43.521s2.534,2.927,2.369,4.309-14.76,36.947-16.427,40.137" transform="translate(14.775 44.644)" fill="#ebebeb"/>
          <path id="Trazado_699901" data-name="Trazado 699901" d="M131.514,346.707c-.149-.046-1.878,4.888-3.862,11.018s-3.471,11.139-3.322,11.185,1.877-4.887,3.862-11.02,3.471-11.138,3.322-11.184" transform="translate(15.816 44.107)" fill="#e0e0e0"/>
          <path id="Trazado_699902" data-name="Trazado 699902" d="M143.994,348.815l1.651,98.112H131.579l6.075-98.112Z" transform="translate(16.739 44.376)" fill="#f5f5f5"/>
          <path id="Trazado_699903" data-name="Trazado 699903" d="M143.351,348.815l.2,11.926-6.917-5.875.375-6.051Z" transform="translate(17.382 44.376)" fill="#e0e0e0"/>
          <path id="Trazado_699904" data-name="Trazado 699904" d="M151.505,342.581V348.8a1.06,1.06,0,0,1-1.085,1.033H135.73v-9l14.745.716a1.056,1.056,0,0,1,1.03,1.03" transform="translate(17.267 43.36)" fill="#f5f5f5"/>
          <path id="Trazado_699905" data-name="Trazado 699905" d="M124.5,343.2c-.7-1.233-10.445-38.67-11.029-42.224-.658-4,2.117-5.339,2.117-5.339l18.865,54.823-3.14,1.489-2.292-6.488s-3.818-1.028-4.521-2.261" transform="translate(14.423 37.611)" fill="#f5f5f5"/>
          <path id="Trazado_699906" data-name="Trazado 699906" d="M113.478,300.56a11.885,11.885,0,0,1-.143-1.644l.828,2.322,14.864,43.808s-3.816-1.028-4.519-2.262-10.445-38.669-11.03-42.224" transform="translate(14.418 38.027)" fill="#ebebeb"/>
          <path id="Trazado_699907" data-name="Trazado 699907" d="M122.358,325.4a23.008,23.008,0,0,0,.978,3.269c.706,2.152,1.587,4.845,2.562,7.822,1.009,3.055,1.968,5.811,2.723,7.786a19.01,19.01,0,0,0,1.356,3.153,23.024,23.024,0,0,0-.978-3.268c-.706-2.153-1.587-4.846-2.563-7.824-1.008-3.055-1.967-5.81-2.722-7.785a19.071,19.071,0,0,0-1.356-3.153" transform="translate(15.565 41.397)" fill="#e0e0e0"/>
          <path id="Trazado_699908" data-name="Trazado 699908" d="M144.351,386.171h-9.657l-.351,5.661h10.1Z" transform="translate(17.091 49.128)" fill="#ebebeb"/>
          <path id="Trazado_699909" data-name="Trazado 699909" d="M144.5,392.99H134.243l-.09,1.463,10.378.042Z" transform="translate(17.067 49.995)" fill="#ebebeb"/>
          <path id="Trazado_699910" data-name="Trazado 699910" d="M143.2,346.313c1.348.564,33.263,24.558,36.03,27.036,3.112,2.789,1.84,5.5,1.84,5.5L130.775,346.43l1.457-3.041,6,3.8s3.619-1.441,4.968-.877" transform="translate(16.637 43.685)" fill="#f5f5f5"/>
          <path id="Trazado_699911" data-name="Trazado 699911" d="M178.388,373.034a12.979,12.979,0,0,1,1.18,1.222l-2.153-1.356L137.39,346.874s3.62-1.441,4.968-.876,33.263,24.556,36.03,27.036" transform="translate(17.478 44)" fill="#ebebeb"/>
          <path id="Trazado_699912" data-name="Trazado 699912" d="M131.829,343.235a20.855,20.855,0,0,0,2.744,2.042c1.744,1.21,4.179,2.846,6.9,4.611s5.213,3.321,7.047,4.4a18.5,18.5,0,0,0,3.047,1.63,26.262,26.262,0,0,0-2.833-1.947l-6.949-4.53c-2.718-1.763-5.186-3.35-6.986-4.48a21.29,21.29,0,0,0-2.967-1.731" transform="translate(16.771 43.665)" fill="#e0e0e0"/>
          <path id="Trazado_699913" data-name="Trazado 699913" d="M129.6,344.484c0,.641-.56,1.906-.161,2.315.335.344,1.762.272,2.462.272a2.6,2.6,0,0,0,0-5.174,7.6,7.6,0,0,0-2.552.192c-.556.178.251,1.754.251,2.4" transform="translate(16.431 43.493)" fill="#f5f5f5"/>
          <path id="Trazado_699914" data-name="Trazado 699914" d="M128.054,344.482a2.317,2.317,0,1,0,2.3-2.587,2.456,2.456,0,0,0-2.3,2.587" transform="translate(16.291 43.495)" fill="#e0e0e0"/>
          <path id="Trazado_699915" data-name="Trazado 699915" d="M132.558,341.919c0-.051-.309-.1-.845-.136l-.966-.053c-.184.006-.382-.042-.626-.019a2.294,2.294,0,0,0-.708.178l.028-.011c-.008,0,0,0-.021.007l-.021.009a2.783,2.783,0,0,0-1.6,2.35,2.947,2.947,0,0,0,.83,2.327,2.254,2.254,0,0,0,1.924.675h-.03a4.657,4.657,0,0,0,1.535-.16,4.651,4.651,0,0,0-1.506-.2h-.032a1.9,1.9,0,0,1-1.513-.649,2.584,2.584,0,0,1-.646-1.955,2.392,2.392,0,0,1,1.249-1.966l-.02.008c-.018,0,0,0,0,0l.028-.01a2.278,2.278,0,0,1,1.114-.2l.972-.058c.539-.042.848-.089.848-.14" transform="translate(16.257 43.471)" fill="#e0e0e0"/>
          <path id="Trazado_699916" data-name="Trazado 699916" d="M130.269,347.021c.014.062.431.055.984-.275a2.845,2.845,0,0,0,1.336-2,2.756,2.756,0,0,0-.753-2.255c-.448-.454-.848-.562-.878-.506-.047.07.254.287.564.739a2.843,2.843,0,0,1,.507,1.952,2.916,2.916,0,0,1-1.016,1.763c-.423.362-.771.5-.744.578" transform="translate(16.572 43.505)" fill="#e0e0e0"/>
          <path id="Trazado_699917" data-name="Trazado 699917" d="M131.159,347.065c-.007.061.438.169,1.114-.053a2.932,2.932,0,0,0,1.854-1.869,2.748,2.748,0,0,0-.546-2.516c-.452-.526-.89-.656-.918-.6-.051.07.278.308.59.817a2.727,2.727,0,0,1,.33,2.153,2.894,2.894,0,0,1-1.471,1.667c-.547.28-.958.317-.954.4" transform="translate(16.686 43.51)" fill="#e0e0e0"/>
          <path id="Trazado_699918" data-name="Trazado 699918" d="M209.547,399.368H187.942l5.671-50.068h10.263Z" transform="translate(23.91 44.437)" fill="#ebebeb"/>
          <path id="Trazado_699919" data-name="Trazado 699919" d="M191.113,366.155l-.434,3.831h15.435l-.434-3.831Z" transform="translate(24.258 46.582)" fill="#e0e0e0"/>
          <path id="Trazado_699920" data-name="Trazado 699920" d="M203.653,352.51l-.363-3.21H193.026l-.363,3.21Z" transform="translate(24.51 44.437)" fill="#e0e0e0"/>
          <path id="Trazado_699921" data-name="Trazado 699921" d="M190.679,372.28l-2.737,24.164h21.605l-2.737-24.164Z" transform="translate(23.91 47.361)" fill="#e0e0e0"/>
          <path id="Trazado_699922" data-name="Trazado 699922" d="M230.94,399.368H209.334l5.671-50.068h10.263Z" transform="translate(26.631 44.437)" fill="#ebebeb"/>
          <path id="Trazado_699923" data-name="Trazado 699923" d="M212.071,372.28l-2.737,24.164H230.94L228.2,372.28Z" transform="translate(26.631 47.361)" fill="#e0e0e0"/>
          <path id="Trazado_699924" data-name="Trazado 699924" d="M225.046,352.51l-.364-3.21H214.418l-.364,3.21Z" transform="translate(27.232 44.437)" fill="#e0e0e0"/>
          <path id="Trazado_699925" data-name="Trazado 699925" d="M212.505,366.155l-.434,3.831h15.435l-.434-3.831Z" transform="translate(26.979 46.582)" fill="#e0e0e0"/>
          <rect id="Rectángulo_344978" data-name="Rectángulo 344978" width="95.195" height="68.187" transform="translate(219.374 422.568)" fill="#ebebeb"/>
          <rect id="Rectángulo_344979" data-name="Rectángulo 344979" width="84.788" height="52.415" transform="translate(198.177 438.34)" fill="#fafafa"/>
          <path id="Trazado_699926" data-name="Trazado 699926" d="M197.007,398.244l-21.2-7.6,21.2-15.771Z" transform="translate(22.366 47.691)" fill="#fafafa"/>
          <path id="Trazado_699927" data-name="Trazado 699927" d="M215.812,398.244l-21.2-7.6,21.2-15.771Z" transform="translate(24.759 47.691)" fill="#fafafa"/>
          <path id="Trazado_699928" data-name="Trazado 699928" d="M234.617,398.244l-21.2-7.6,21.2-15.771Z" transform="translate(27.151 47.691)" fill="#fafafa"/>
          <path id="Trazado_699929" data-name="Trazado 699929" d="M253.422,398.244l-21.2-7.6,21.2-15.771Z" transform="translate(29.543 47.691)" fill="#fafafa"/>
          <rect id="Rectángulo_344980" data-name="Rectángulo 344980" width="84.788" height="26.208" transform="translate(198.177 464.548)" fill="#ebebeb"/>
          <rect id="Rectángulo_344981" data-name="Rectángulo 344981" width="31.603" height="26.208" transform="translate(282.966 464.548)" fill="#e0e0e0"/>
          <rect id="Rectángulo_344982" data-name="Rectángulo 344982" width="36.24" height="22.718" transform="translate(204.331 468.038)" fill="#fff"/>
          <rect id="Rectángulo_344983" data-name="Rectángulo 344983" width="33.698" height="21.458" transform="translate(205.602 469.297)" fill="#ebebeb"/>
          <path id="Trazado_699930" data-name="Trazado 699930" d="M196.849,405.673a4.87,4.87,0,1,1-4.87-4.87,4.869,4.869,0,0,1,4.87,4.87" transform="translate(23.804 50.989)" fill="#f5f5f5"/>
          <path id="Trazado_699931" data-name="Trazado 699931" d="M195.867,405.573a3.988,3.988,0,1,1-3.988-3.988,3.988,3.988,0,0,1,3.988,3.988" transform="translate(23.903 51.089)" fill="#ebebeb"/>
          <path id="Trazado_699932" data-name="Trazado 699932" d="M195.8,406.167l-3.6-.589a.315.315,0,0,0-.18-.264L193.8,402.1a3.851,3.851,0,0,0-3.835-.008l1.762,3.211a.319.319,0,0,0-.2.284l0,.011-3.583.541a3.975,3.975,0,0,0,2.324,3.077l1.463-3.343a.313.313,0,0,0,.132.054.323.323,0,0,0,.167-.069l1.427,3.371a3.98,3.98,0,0,0,2.346-3.065" transform="translate(23.91 51.089)" fill="#e0e0e0"/>
          <path id="Trazado_699933" data-name="Trazado 699933" d="M216.286,409.116a4.87,4.87,0,1,1,0-6.887,4.871,4.871,0,0,1,0,6.887" transform="translate(26.458 50.989)" fill="#f5f5f5"/>
          <path id="Trazado_699934" data-name="Trazado 699934" d="M215.562,408.393a3.988,3.988,0,1,1,0-5.64,3.987,3.987,0,0,1,0,5.64" transform="translate(26.557 51.089)" fill="#ebebeb"/>
          <path id="Trazado_699935" data-name="Trazado 699935" d="M215.1,408.75l-2.133-2.965a.318.318,0,0,0,.061-.314l3.53-1.011a3.849,3.849,0,0,0-2.706-2.719l-1.026,3.517a.32.32,0,0,0-.344.056l0,.011-2.917-2.151a3.977,3.977,0,0,0-.532,3.819l3.4-1.33a.32.32,0,0,0,.055.132.324.324,0,0,0,.167.07l-1.375,3.393a3.981,3.981,0,0,0,3.826-.508" transform="translate(26.558 51.109)" fill="#e0e0e0"/>
          <path id="Trazado_699936" data-name="Trazado 699936" d="M237.149,402.229a4.87,4.87,0,1,1-6.887,0,4.871,4.871,0,0,1,6.887,0" transform="translate(29.112 50.989)" fill="#f5f5f5"/>
          <path id="Trazado_699937" data-name="Trazado 699937" d="M236.426,402.753a3.988,3.988,0,1,1-5.641,0,3.987,3.987,0,0,1,5.641,0" transform="translate(29.212 51.089)" fill="#ebebeb"/>
          <path id="Trazado_699938" data-name="Trazado 699938" d="M236.783,403.2l-2.965,2.132a.32.32,0,0,0-.314-.06l-1.011-3.53a3.849,3.849,0,0,0-2.719,2.707l3.517,1.025a.321.321,0,0,0,.056.345l.011,0-2.151,2.917a3.978,3.978,0,0,0,3.819.532l-1.33-3.4a.317.317,0,0,0,.132-.055.323.323,0,0,0,.07-.167l3.393,1.375a3.98,3.98,0,0,0-.508-3.826" transform="translate(29.231 51.108)" fill="#e0e0e0"/>
          <rect id="Rectángulo_344984" data-name="Rectángulo 344984" width="33.698" height="2.274" transform="translate(205.805 469.297)" fill="#e0e0e0"/>
          <rect id="Rectángulo_344985" data-name="Rectángulo 344985" width="33.698" height="2.274" transform="translate(205.805 474.093)" fill="#e0e0e0"/>
          <rect id="Rectángulo_344986" data-name="Rectángulo 344986" width="33.698" height="2.274" transform="translate(205.805 478.89)" fill="#e0e0e0"/>
          <rect id="Rectángulo_344987" data-name="Rectángulo 344987" width="33.698" height="2.274" transform="translate(205.805 483.686)" fill="#e0e0e0"/>
          <rect id="Rectángulo_344988" data-name="Rectángulo 344988" width="33.698" height="2.274" transform="translate(205.805 488.482)" fill="#e0e0e0"/>
        </g>
      </g>
      <g id="Grupo_998897" data-name="Grupo 998897">
        <g id="Grupo_998896" data-name="Grupo 998896" clip-path="url(#clip-path)">
          <path id="Trazado_699939" data-name="Trazado 699939" d="M494.522,435.886c0,.162-106.181.293-237.131.293-131,0-237.153-.131-237.153-.293s106.158-.293,237.153-.293c130.95,0,237.131.131,237.131.293" transform="translate(2.575 55.415)" fill="#263238"/>
        </g>
      </g>
      <g id="Grupo_998926" data-name="Grupo 998926">
        <g id="Grupo_998925" data-name="Grupo 998925" clip-path="url(#clip-path)">
          <path id="Trazado_699940" data-name="Trazado 699940" d="M298.04,37.66s1.558-14.874-11.332-21.982a32.807,32.807,0,0,0-24.579-3.166s1.332,21.546,14.657,27.858c0,0,6.123,3.981,16.368,1.1l4.51,6.13,2.989-2.79c-8.07-11.1-29.683-26-29.683-26a101.792,101.792,0,0,1,16.691,10.308A118.677,118.677,0,0,1,298.04,37.66" transform="translate(33.347 1.453)" fill="#455a64"/>
          <path id="Trazado_699941" data-name="Trazado 699941" d="M313.236,17.644S316.709,11.5,312.466,6a15.491,15.491,0,0,0-10.046-6s-3.477,9.579,1.1,14.818c0,0,1.9,2.877,6.879,3.555l1.031,4.664,1.983-.945c-1.406-6.323-8.356-17.7-8.356-17.7a48.057,48.057,0,0,1,5.287,7.6,55.967,55.967,0,0,1,2.887,5.65" transform="translate(38.313)" fill="#455a64"/>
          <path id="Trazado_699942" data-name="Trazado 699942" d="M449.5,88.389a77.14,77.14,0,0,1-77.14,77.14c-19.488,0-37.806-6.838-51.384-18.757-16.107-14.139-25.756-35.267-25.756-58.383a77.14,77.14,0,0,1,154.28,0" transform="translate(37.557 1.431)" fill="#4db1f0"/>
          <path id="Trazado_699943" data-name="Trazado 699943" d="M431.928,86.269c.09-.895.166-1.781.218-2.671q.1-1.408.141-2.812-.046,1.4-.141,2.812c-.052.891-.128,1.776-.218,2.671" transform="translate(54.949 10.277)" fill="#263238"/>
          <g id="Grupo_998900" data-name="Grupo 998900" transform="translate(395.075 63.432)" opacity="0.3">
            <g id="Grupo_998899" data-name="Grupo 998899">
              <g id="Grupo_998898" data-name="Grupo 998898" clip-path="url(#clip-path-5)">
                <path id="Trazado_699944" data-name="Trazado 699944" d="M391.008,126.687c-2.475,2.54-3.541,6.114-4.751,9.468s-2.843,6.848-5.9,8.61-7.821.679-8.627-2.783c-.437-1.88.364-3.836.305-5.769-.078-2.518-1.592-4.75-2.03-7.228a19.066,19.066,0,0,1,.408-6.4c1.941-11.6,1.561-24.173-4.472-34.148a7.612,7.612,0,0,0-2.888-3.08,4.337,4.337,0,0,0-4.728.68c-.783.711-1.313,1.713-2.21,2.268-1.949,1.206-4.607-.46-5.316-2.653s-.077-4.584.554-6.812q1.175-4.143,2.349-8.285a7.328,7.328,0,0,1,2.049-3.915c1.658-1.319,4.085-.916,5.979-1.846,2.483-1.22,3.392-4.3,5.221-6.406s6.285-2.262,6.387.533c6.445-8.93,13.513,7.628,19.647,7.7,1.782.021,3.627-.487,5.309.1,2.969,1.039,3.867,4.781,4.322,7.946q1.131,7.879,2.262,15.757c.287,2,.725,4.25,2.4,5.327,1.286.826,2.988.726,4.289,1.525,3.443,2.11,1.057,7.826-2.453,9.87s-8.033,2.876-10.2,6.352c-1.631,2.619-1.433,6.1-3.138,8.674-1.22,1.839-3.24,2.942-4.775,4.517" transform="translate(-350.487 -56.273)" fill="#ff725e"/>
              </g>
            </g>
          </g>
          <g id="Grupo_998903" data-name="Grupo 998903" transform="translate(395.075 63.432)" opacity="0.3">
            <g id="Grupo_998902" data-name="Grupo 998902">
              <g id="Grupo_998901" data-name="Grupo 998901" clip-path="url(#clip-path-5)">
                <path id="Trazado_699945" data-name="Trazado 699945" d="M391.008,126.687c-2.475,2.54-3.541,6.114-4.751,9.468s-2.843,6.848-5.9,8.61-7.821.679-8.627-2.783c-.437-1.88.364-3.836.305-5.769-.078-2.518-1.592-4.75-2.03-7.228a19.066,19.066,0,0,1,.408-6.4c1.941-11.6,1.561-24.173-4.472-34.148a7.612,7.612,0,0,0-2.888-3.08,4.337,4.337,0,0,0-4.728.68c-.783.711-1.313,1.713-2.21,2.268-1.949,1.206-4.607-.46-5.316-2.653s-.077-4.584.554-6.812q1.175-4.143,2.349-8.285a7.328,7.328,0,0,1,2.049-3.915c1.658-1.319,4.085-.916,5.979-1.846,2.483-1.22,3.392-4.3,5.221-6.406s6.285-2.262,6.387.533c6.445-8.93,13.513,7.628,19.647,7.7,1.782.021,3.627-.487,5.309.1,2.969,1.039,3.867,4.781,4.322,7.946q1.131,7.879,2.262,15.757c.287,2,.725,4.25,2.4,5.327,1.286.826,2.988.726,4.289,1.525,3.443,2.11,1.057,7.826-2.453,9.87s-8.033,2.876-10.2,6.352c-1.631,2.619-1.433,6.1-3.138,8.674-1.22,1.839-3.24,2.942-4.775,4.517" transform="translate(-350.487 -56.273)"/>
              </g>
            </g>
          </g>
          <g id="Grupo_998906" data-name="Grupo 998906" transform="translate(438.63 129.219)" opacity="0.3">
            <g id="Grupo_998905" data-name="Grupo 998905">
              <g id="Grupo_998904" data-name="Grupo 998904" clip-path="url(#clip-path-7)">
                <path id="Trazado_699946" data-name="Trazado 699946" d="M399.557,125.252c-1.255-.068-2.573-.966-3.665-.322a4.176,4.176,0,0,0-1.267,1.8,4.283,4.283,0,0,1-2.2,2.064,2.607,2.607,0,0,1-2.813-.61,2.009,2.009,0,0,1,.145-2.771,13.421,13.421,0,0,1,1.228-.668c1.928-1.24,1.391-4.351,2.989-5.962.942-.949,2.305-1.833,3.322-2.783.781-.73,1.141-1.362,2.313-1.365,5.131-.014,5.291,10.9-.048,10.617" transform="translate(-389.126 -114.635)"/>
              </g>
            </g>
          </g>
          <g id="Grupo_998909" data-name="Grupo 998909" transform="translate(355.203 145.024)" opacity="0.3">
            <g id="Grupo_998908" data-name="Grupo 998908">
              <g id="Grupo_998907" data-name="Grupo 998907" clip-path="url(#clip-path-8)">
                <path id="Trazado_699947" data-name="Trazado 699947" d="M315.115,128.658q.825.845,1.681,1.663c.4.383.8.754,1.208,1.127-.411-.373-.812-.744-1.208-1.127q-.857-.817-1.681-1.663" transform="translate(-315.115 -128.657)" fill="#263238"/>
              </g>
            </g>
          </g>
          <path id="Trazado_699948" data-name="Trazado 699948" d="M431.234,91.925q.319-1.669.557-3.328-.237,1.66-.557,3.328c-.046.358-.116.712-.186,1.066-.338,1.71-.732,3.383-1.161,5.049.429-1.666.823-3.339,1.161-5.049.07-.354.14-.708.186-1.066" transform="translate(54.689 11.271)" fill="#263238"/>
          <path id="Trazado_699949" data-name="Trazado 699949" d="M431.424,67.758q.25,1.572.434,3.151-.184-1.579-.434-3.151s.015-.01,0-.012Z" transform="translate(54.885 8.619)" fill="#263238"/>
          <g id="Grupo_998912" data-name="Grupo 998912" transform="translate(412.383 30.965)" opacity="0.3">
            <g id="Grupo_998911" data-name="Grupo 998911">
              <g id="Grupo_998910" data-name="Grupo 998910" clip-path="url(#clip-path-9)">
                <path id="Trazado_699950" data-name="Trazado 699950" d="M439.382,99.7q.319-1.669.557-3.328t.4-3.322c.09-.9.166-1.781.218-2.672q.1-1.408.141-2.812a77.861,77.861,0,0,0-.185-8.361q-.123-1.594-.308-3.173t-.434-3.152l0-.012c-.239-.808-.5-1.609-.807-2.4C436.1,62.845,431.041,56.313,427.7,48.9c-1.092-2.411-1.922-4.389-4.512-5.333-3.83-1.4-6.287.495-8.335-3.881-.551-1.175-1.682-2.389-2.917-2,.126.876.264,1.753.388,2.64a1.214,1.214,0,0,1-.01.556c-.173.562-1.044.555-1.461.143a5.1,5.1,0,0,1-.781-1.588,3.905,3.905,0,0,0-5.6-1.6,2.265,2.265,0,0,0-.9-2.056,2.648,2.648,0,0,1-3.681,1.491c-.08-.789,1.252-.665,1.833-1.211.538-.515.2-1.445-.241-2.052a8.391,8.391,0,0,0-4.805-3.094c-1.2-.264-2.558-.291-3.486-1.134-.539-.487-.849-1.182-1.4-1.66-1.178-1.031-2.984-.654-4.475-.161-2.039.674-4.191,1.606-5.241,3.518-1.06,1.9-.153,4.929,1.983,5.085a4.067,4.067,0,0,1,1.63.133,2.007,2.007,0,0,1,.769,2.092,5.72,5.72,0,0,0-.1,2.353c.224.754,1.248,1.312,1.795.748,1.171-.759,1.367-2.382,1.384-3.786s.054-2.984,1.065-3.937,3.23-.149,2.8,1.188c-.256.787-1.27,1.195-1.4,2.02s.78,1.473,1.6,1.6a8.824,8.824,0,0,1,2.457.358c.764.355,1.189,1.542.5,2.027-1.222.951-3.422-1.526-4.219-.2-.216.337-.154.781-.268,1.164-.332,1.178-1.894,1.326-3.1,1.24a6.487,6.487,0,0,1-3.437-.946,2.317,2.317,0,0,1-.6-3.2,1.349,1.349,0,0,0-1.968.32,4.065,4.065,0,0,0-.571,2.2c-1.19-.528-2.517.326-3.435,1.249s-1.861,2.041-3.146,2.181-2.873-.708-3.731.29c-1.116,1.3.913,3.631-.213,4.918-.64.724-1.787.471-2.748.548-2.546.219-4.1,3.642-2.832,5.884a4.74,4.74,0,0,0,6.667,1.293c1.459-1.018,2.3-2.691,3.474-4.032s3.1-2.368,4.653-1.553a5.15,5.15,0,0,1,1.5,1.438c.667.842,1.335,1.684,2,2.54a2.269,2.269,0,0,1,.7,1.876c-.157.54-.661.885-.941,1.362-.8,1.377,1.023,3.2,2.5,2.651s2.029-2.579,1.382-4.028c-.9-2-3.542-3.44-3.039-5.6,1.674-.912,3.691.794,4.193,2.656s.134,3.858.5,5.744,2.03,3.839,3.853,3.312c-.133-1.6-.255-3.184-.389-4.772,1.213-.6,1.96,1.986,3.3,1.845.815-.092,1.133-1.2.947-2.021a10.892,10.892,0,0,1-.629-2.42,2.536,2.536,0,0,1,3.374-2.01,3.868,3.868,0,0,1,2.181,3.7,7.239,7.239,0,0,0,.037,1.823c.32,1.281,1.676,1.917,2.754,2.638s2.073,2.173,1.345,3.272c-.331.48-.969.874-.884,1.45.086.512.739.857.638,1.368-.08.34-.473.5-.812.576-.855.174-1.74.113-2.582.339a2.267,2.267,0,0,0-1.792,1.7c-.147,1.24,1.163,2.108,1.634,3.254.457,1.092.107,2.356.3,3.535a12.24,12.24,0,0,0,1.281,3.031c1.443,3.153,1.208,6.8,1.532,10.262.139,1.562.6,3.367,2.035,3.942a4.569,4.569,0,0,0,2.49,0c2.316-.443,4.73-.93,6.577-2.4s2.939-4.278,1.738-6.329a1.242,1.242,0,0,0-.637-.621,2.221,2.221,0,0,0-1.207.18,3.228,3.228,0,0,1-3.2-1.394,9.781,9.781,0,0,1-1.388-3.434c-.348-1.324-.694-2.661-1.052-4a2.1,2.1,0,0,1,2.516.751,14.349,14.349,0,0,1,1.314,2.544c1.337,2.624,4.075,4.206,6.848,5.109a7.256,7.256,0,0,1,2.044.874c1.925,1.409,1.906,4.716,4.012,5.843a14.141,14.141,0,0,1,1.818.816,3.643,3.643,0,0,1,1.116,2.732,39.929,39.929,0,0,0,.335,5.673c.393,1.854,1.584,3.7,3.4,4.085a4.4,4.4,0,0,0,3.316-.777l0-.012c.43-1.666.823-3.339,1.161-5.049.07-.354.14-.708.186-1.066" transform="translate(-365.841 -27.47)" fill="#ff725e"/>
              </g>
            </g>
          </g>
          <g id="Grupo_998915" data-name="Grupo 998915" transform="translate(412.383 30.965)" opacity="0.3">
            <g id="Grupo_998914" data-name="Grupo 998914">
              <g id="Grupo_998913" data-name="Grupo 998913" clip-path="url(#clip-path-9)">
                <path id="Trazado_699951" data-name="Trazado 699951" d="M439.382,99.7q.319-1.669.557-3.328t.4-3.322c.09-.9.166-1.781.218-2.672q.1-1.408.141-2.812a77.861,77.861,0,0,0-.185-8.361q-.123-1.594-.308-3.173t-.434-3.152l0-.012c-.239-.808-.5-1.609-.807-2.4C436.1,62.845,431.041,56.313,427.7,48.9c-1.092-2.411-1.922-4.389-4.512-5.333-3.83-1.4-6.287.495-8.335-3.881-.551-1.175-1.682-2.389-2.917-2,.126.876.264,1.753.388,2.64a1.214,1.214,0,0,1-.01.556c-.173.562-1.044.555-1.461.143a5.1,5.1,0,0,1-.781-1.588,3.905,3.905,0,0,0-5.6-1.6,2.265,2.265,0,0,0-.9-2.056,2.648,2.648,0,0,1-3.681,1.491c-.08-.789,1.252-.665,1.833-1.211.538-.515.2-1.445-.241-2.052a8.391,8.391,0,0,0-4.805-3.094c-1.2-.264-2.558-.291-3.486-1.134-.539-.487-.849-1.182-1.4-1.66-1.178-1.031-2.984-.654-4.475-.161-2.039.674-4.191,1.606-5.241,3.518-1.06,1.9-.153,4.929,1.983,5.085a4.067,4.067,0,0,1,1.63.133,2.007,2.007,0,0,1,.769,2.092,5.72,5.72,0,0,0-.1,2.353c.224.754,1.248,1.312,1.795.748,1.171-.759,1.367-2.382,1.384-3.786s.054-2.984,1.065-3.937,3.23-.149,2.8,1.188c-.256.787-1.27,1.195-1.4,2.02s.78,1.473,1.6,1.6a8.824,8.824,0,0,1,2.457.358c.764.355,1.189,1.542.5,2.027-1.222.951-3.422-1.526-4.219-.2-.216.337-.154.781-.268,1.164-.332,1.178-1.894,1.326-3.1,1.24a6.487,6.487,0,0,1-3.437-.946,2.317,2.317,0,0,1-.6-3.2,1.349,1.349,0,0,0-1.968.32,4.065,4.065,0,0,0-.571,2.2c-1.19-.528-2.517.326-3.435,1.249s-1.861,2.041-3.146,2.181-2.873-.708-3.731.29c-1.116,1.3.913,3.631-.213,4.918-.64.724-1.787.471-2.748.548-2.546.219-4.1,3.642-2.832,5.884a4.74,4.74,0,0,0,6.667,1.293c1.459-1.018,2.3-2.691,3.474-4.032s3.1-2.368,4.653-1.553a5.15,5.15,0,0,1,1.5,1.438c.667.842,1.335,1.684,2,2.54a2.269,2.269,0,0,1,.7,1.876c-.157.54-.661.885-.941,1.362-.8,1.377,1.023,3.2,2.5,2.651s2.029-2.579,1.382-4.028c-.9-2-3.542-3.44-3.039-5.6,1.674-.912,3.691.794,4.193,2.656s.134,3.858.5,5.744,2.03,3.839,3.853,3.312c-.133-1.6-.255-3.184-.389-4.772,1.213-.6,1.96,1.986,3.3,1.845.815-.092,1.133-1.2.947-2.021a10.892,10.892,0,0,1-.629-2.42,2.536,2.536,0,0,1,3.374-2.01,3.868,3.868,0,0,1,2.181,3.7,7.239,7.239,0,0,0,.037,1.823c.32,1.281,1.676,1.917,2.754,2.638s2.073,2.173,1.345,3.272c-.331.48-.969.874-.884,1.45.086.512.739.857.638,1.368-.08.34-.473.5-.812.576-.855.174-1.74.113-2.582.339a2.267,2.267,0,0,0-1.792,1.7c-.147,1.24,1.163,2.108,1.634,3.254.457,1.092.107,2.356.3,3.535a12.24,12.24,0,0,0,1.281,3.031c1.443,3.153,1.208,6.8,1.532,10.262.139,1.562.6,3.367,2.035,3.942a4.569,4.569,0,0,0,2.49,0c2.316-.443,4.73-.93,6.577-2.4s2.939-4.278,1.738-6.329a1.242,1.242,0,0,0-.637-.621,2.221,2.221,0,0,0-1.207.18,3.228,3.228,0,0,1-3.2-1.394,9.781,9.781,0,0,1-1.388-3.434c-.348-1.324-.694-2.661-1.052-4a2.1,2.1,0,0,1,2.516.751,14.349,14.349,0,0,1,1.314,2.544c1.337,2.624,4.075,4.206,6.848,5.109a7.256,7.256,0,0,1,2.044.874c1.925,1.409,1.906,4.716,4.012,5.843a14.141,14.141,0,0,1,1.818.816,3.643,3.643,0,0,1,1.116,2.732,39.929,39.929,0,0,0,.335,5.673c.393,1.854,1.584,3.7,3.4,4.085a4.4,4.4,0,0,0,3.316-.777l0-.012c.43-1.666.823-3.339,1.161-5.049.07-.354.14-.708.186-1.066" transform="translate(-365.841 -27.47)"/>
              </g>
            </g>
          </g>
          <g id="Grupo_998918" data-name="Grupo 998918" transform="translate(393.526 12.933)" opacity="0.3">
            <g id="Grupo_998917" data-name="Grupo 998917">
              <g id="Grupo_998916" data-name="Grupo 998916" clip-path="url(#clip-path-11)">
                <path id="Trazado_699952" data-name="Trazado 699952" d="M358.794,27.306c-1.681.617-2.82,2.183-4.242,3.289s-3.685,1.647-4.831.266a3.311,3.311,0,0,1-.58-2.474,6.027,6.027,0,0,1,1.515-3.373c.866-.954,2.03-1.61,2.808-2.639s.994-2.721-.032-3.479c-.555-.41-1.347-.45-1.81-.965-.831-.925.211-2.518,1.43-2.731s2.412.374,3.607.692c4.333,1.153,8.14-1.136,11.92-2.916,2.941-1.384,8.849-2.536,11.437-.017,1.033,1.005,1.1,3.08-.185,3.73-.577.291-1.283.241-1.834.581-.659.407-.906,1.242-1.364,1.876-1.189,1.646-3.715,1.829-4.849,3.514-.683,1.014-.746,2.431-1.65,3.246a4.2,4.2,0,0,1-2.71.76l-6,.254a8.671,8.671,0,0,0-2.633.387" transform="translate(-349.113 -11.473)"/>
              </g>
            </g>
          </g>
          <g id="Grupo_998921" data-name="Grupo 998921" transform="translate(338.032 24.817)" opacity="0.3">
            <g id="Grupo_998920" data-name="Grupo 998920">
              <g id="Grupo_998919" data-name="Grupo 998919" clip-path="url(#clip-path-12)">
                <path id="Trazado_699953" data-name="Trazado 699953" d="M305.583,50.39c1.658-.954,4.131-.617,4.918,1.137.561,1.253.085,2.719-.384,4.022-.634,1.753-1.266,3.5-1.911,5.255a2.927,2.927,0,0,0-.25,1.638c.3,1.251,2.19,1.4,3.1.512a5.191,5.191,0,0,0,1.17-3.588,7.231,7.231,0,0,1,.777-3.74c1.773-2.669,5.941-1.389,8.783-2.792,1.766-.869,2.838-2.7,4.088-4.241s3.115-2.962,5.014-2.5c.642.152,1.23.522,1.881.626,1.906.313,3.567-2.289,2.495-3.922a4.949,4.949,0,0,1-.665-1.045,1.649,1.649,0,0,1,.978-1.8,4.508,4.508,0,0,1,2.143-.26c1.672.051,3.34.115,5.008.178,1.841.072,4.316-.415,4.424-2.284.1-1.618-1.861-2.74-1.864-4.365a5.314,5.314,0,0,0,.024-1.188c-.293-1.1-1.848-.986-2.9-.637a2.371,2.371,0,0,0-3.33-1.864c-1.117.617-1.517,2.009-2.092,3.152-1.371,2.773-4.1,4.543-6.688,6.175a4.447,4.447,0,0,1-2.842.96c-1-.148-1.833-1.441-1.2-2.242.432-.549,1.365-.733,1.416-1.433.05-.878-1.425-1.107-1.55-1.982,1.053-2.3,3.971-2.766,6.312-3.649a13.476,13.476,0,0,0,6.862-5.8,1.81,1.81,0,0,0,.352-1.4c-.192-.672-.975-.928-1.657-1.063-1.6-.343-3.646-.519-4.536.892a19.046,19.046,0,0,0-.789,2.546c-1.065,2.428-4.537,2.034-6.921,3.135a19.409,19.409,0,0,1-2.715,1.391,12.712,12.712,0,0,1-3.291-.106c.136.018.2.014,0,0-.844.8-2,1.925-2.8,2.772s-1.506,1.639-2.272,2.52a78.182,78.182,0,0,0-9.854,13.347q-1.422,2.563-2.655,5.256t-2.275,5.5a22.547,22.547,0,0,0,2.328-4.589c.76-1.765,1.728-3.578,3.374-4.534" transform="translate(-299.882 -22.016)"/>
              </g>
            </g>
          </g>
          <g id="Grupo_998924" data-name="Grupo 998924" transform="translate(332.776 68.234)" opacity="0.3">
            <g id="Grupo_998923" data-name="Grupo 998923">
              <g id="Grupo_998922" data-name="Grupo 998922" clip-path="url(#clip-path-13)">
                <path id="Trazado_699954" data-name="Trazado 699954" d="M314.028,133.359l.011,0c.645.774,1.308,1.515,1.985,2.244q.8.872,1.623,1.719t1.681,1.663c.4.383.8.754,1.207,1.127-.032-.147-.068-.281-.1-.426-.929-4.053.037-9.444,3.986-10.579a8.3,8.3,0,0,0,2.24-.686c1.9-1.223,1.22-4.655,3.118-5.878,1.067-.677,2.457-.338,3.672-.631,2.188-.544,3.352-3.029,3.64-5.306s-.006-4.632.689-6.816c1.064-3.3,4.33-6.222,3.449-9.568-.993-3.736-5.954-4.147-9.068-6.348-4.347-3.08-4.627-9.4-6.9-14.28-2.038-4.361-7.73-9.838-12.918-9.672a6.24,6.24,0,0,0-6.328,4.673l-.442-.163c-1.3-.41-2.843-.791-3.352-2.059-.593-1.474.63-3.25.009-4.7-.322-.762-1.055-1.212-1.608-1.816s-.932-1.579-.4-2.209c.442-.534,1.305-.49,1.833-.957a1.289,1.289,0,0,0,.277-1.531c-1.039-1.919-3.226,1.137-4.137,1.782a7.052,7.052,0,0,1-.727.466l0,.012c-.042.143-.079.275-.108.422-.108.454-.2.923-.3,1.388s-.208.923-.3,1.386c-.073.379-.135.755-.2,1.133s-.145.759-.205,1.133c-.036.184-.07.355-.1.54a79.669,79.669,0,0,0-.023,25.431,75.969,75.969,0,0,0,2.626,11.024c.466,1.551,1.008,3.092,1.589,4.615.724,1.881,1.5,3.736,2.378,5.545.8,1.733,1.685,3.441,2.64,5.1a77.247,77.247,0,0,0,4.245,6.675q2.027,2.874,4.319,5.548" transform="translate(-295.219 -60.533)"/>
              </g>
            </g>
          </g>
          <path id="Trazado_699955" data-name="Trazado 699955" d="M377.267,158.228s10.233-9.421,22.692-3.75a30.51,30.51,0,0,1,16.01,16.58s-16.815,10.969-28.923,4.531c0,0-6.37-2.357-9.908-11.6l-9.41.116.922-4.228c12.76-.141,37.709,8.084,37.709,8.084A94.8,94.8,0,0,0,389.4,161.23a110.27,110.27,0,0,0-12.133-3" transform="translate(46.781 19.421)" fill="#455a64"/>
        </g>
      </g>
      <path id="Trazado_699956" data-name="Trazado 699956" d="M383.223,83.5l1.56,298.166-221.16-.414L148.085,367.38,162.049,80.241,369.5,63.123Z" transform="translate(18.839 8.03)" fill="#e0e0e0"/>
      <path id="Trazado_699957" data-name="Trazado 699957" d="M369.5,63.123l-.224,304.059-221.193.2,2.765-303.913Z" transform="translate(18.839 8.03)" fill="#fafafa"/>
      <g id="Grupo_998928" data-name="Grupo 998928">
        <g id="Grupo_998927" data-name="Grupo 998927" clip-path="url(#clip-path)">
          <path id="Trazado_699958" data-name="Trazado 699958" d="M369.537,63.123l-218.652.583.238-.237c-.757,84.976-1.7,190.188-2.71,303.913l-.293-.3h1.312l219.881-.168-.266.266c.29-179.817.487-301.7.49-304.059,0,2.357.017,124.242.043,304.059v.266h-.266l-219.881.223h-1.61l0-.3c1.055-113.724,2.031-218.935,2.819-303.911l0-.236h.236l218.653-.106" transform="translate(18.806 8.03)" fill="#263238"/>
          <path id="Trazado_699959" data-name="Trazado 699959" d="M179.884,129.532l74.334-.514a4.383,4.383,0,1,0-.061-8.765l-74.334.514a4.383,4.383,0,1,0,.061,8.765" transform="translate(22.323 15.298)" fill="#e0e0e0"/>
          <path id="Trazado_699960" data-name="Trazado 699960" d="M179.769,144.576l74.334-.514a4.383,4.383,0,0,0-.061-8.765l-74.334.514a4.383,4.383,0,1,0,.061,8.765" transform="translate(22.308 17.212)" fill="#e0e0e0"/>
          <path id="Trazado_699961" data-name="Trazado 699961" d="M179.653,159.621l74.334-.514a4.383,4.383,0,0,0-.061-8.765l-74.334.514a4.383,4.383,0,1,0,.061,8.765" transform="translate(22.294 19.126)" fill="#e0e0e0"/>
          <path id="Trazado_699962" data-name="Trazado 699962" d="M179.538,174.665l74.334-.514a4.383,4.383,0,0,0-.061-8.765l-74.334.514a4.383,4.383,0,1,0,.061,8.765" transform="translate(22.279 21.04)" fill="#e0e0e0"/>
          <path id="Trazado_699963" data-name="Trazado 699963" d="M179.422,189.709l74.334-.514a4.383,4.383,0,0,0-.061-8.765l-74.334.514a4.383,4.383,0,0,0,.061,8.765" transform="translate(22.264 22.954)" fill="#e0e0e0"/>
          <path id="Trazado_699964" data-name="Trazado 699964" d="M179.307,204.754l74.333-.514a4.383,4.383,0,1,0-.06-8.765l-74.334.514a4.383,4.383,0,1,0,.061,8.765" transform="translate(22.25 24.868)" fill="#e0e0e0"/>
          <path id="Trazado_699965" data-name="Trazado 699965" d="M179.191,219.8l74.334-.514a4.383,4.383,0,1,0-.061-8.765l-74.334.514a4.383,4.383,0,1,0,.061,8.765" transform="translate(22.235 26.782)" fill="#e0e0e0"/>
          <path id="Trazado_699966" data-name="Trazado 699966" d="M261.121,203.581l74.334.459a4.383,4.383,0,1,0,.054-8.765l-74.334-.459a4.383,4.383,0,1,0-.054,8.765" transform="translate(32.665 24.784)" fill="#e0e0e0"/>
          <path id="Trazado_699967" data-name="Trazado 699967" d="M260.808,218.623l74.334.459a4.383,4.383,0,1,0,.054-8.765l-74.334-.459a4.383,4.383,0,1,0-.054,8.765" transform="translate(32.625 26.698)" fill="#e0e0e0"/>
          <path id="Trazado_699968" data-name="Trazado 699968" d="M260.378,234.487l74.334.459a4.383,4.383,0,0,0,.054-8.765l-74.335-.459a4.383,4.383,0,0,0-.054,8.765" transform="translate(32.571 28.716)" fill="#e0e0e0"/>
          <path id="Trazado_699969" data-name="Trazado 699969" d="M259.948,250.35l74.334.459a4.383,4.383,0,1,0,.054-8.765L260,241.585a4.383,4.383,0,1,0-.054,8.765" transform="translate(32.516 30.734)" fill="#e0e0e0"/>
          <path id="Trazado_699970" data-name="Trazado 699970" d="M259.518,266.214l74.334.459a4.383,4.383,0,1,0,.054-8.765l-74.334-.459a4.383,4.383,0,1,0-.054,8.765" transform="translate(32.461 32.752)" fill="#e0e0e0"/>
          <path id="Trazado_699971" data-name="Trazado 699971" d="M259.088,282.078l74.334.459a4.383,4.383,0,1,0,.054-8.765l-74.334-.459a4.383,4.383,0,0,0-.054,8.765" transform="translate(32.406 34.77)" fill="#e0e0e0"/>
          <path id="Trazado_699972" data-name="Trazado 699972" d="M258.658,297.942l74.334.459a4.383,4.383,0,1,0,.054-8.765l-74.334-.459a4.383,4.383,0,0,0-.054,8.765" transform="translate(32.352 36.789)" fill="#e0e0e0"/>
          <path id="Trazado_699973" data-name="Trazado 699973" d="M174.348,312.254l169,1.042a4.383,4.383,0,0,0,.054-8.765l-169-1.041a2.935,2.935,0,0,0-2.953,2.917l-.018,2.895a2.936,2.936,0,0,0,2.917,2.953" transform="translate(21.809 38.609)" fill="#e0e0e0"/>
          <path id="Trazado_699974" data-name="Trazado 699974" d="M180.358,109.912l49.186-.34a4.383,4.383,0,0,0-.061-8.765l-49.186.34a4.383,4.383,0,1,0,.061,8.765" transform="translate(22.383 12.824)" fill="#e0e0e0"/>
          <path id="Trazado_699975" data-name="Trazado 699975" d="M228.449,59.984l3.1-3,37.412-.186,1.85,3.295Z" transform="translate(29.063 7.225)" fill="#263238"/>
          <rect id="Rectángulo_345001" data-name="Rectángulo 345001" width="17.265" height="42.366" transform="translate(257.482 84.489) rotate(-89.899)" fill="#263238"/>
          <path id="Trazado_699976" data-name="Trazado 699976" d="M272.392,75.786v-.623a1.411,1.411,0,0,0-1.408-1.414L228.5,73.642a1.411,1.411,0,0,0-1.415,1.409v.623a1.412,1.412,0,0,0,1.408,1.415l42.484.106a1.412,1.412,0,0,0,1.416-1.409" transform="translate(28.889 9.369)" fill="#263238"/>
          <path id="Trazado_699977" data-name="Trazado 699977" d="M257.794,75.064h-.02l-18.634-.047a1.664,1.664,0,0,1-1.344-.679,1.547,1.547,0,0,1-.2-1.452l5.327-14.346a9.355,9.355,0,0,1-4.009-7.38,9.579,9.579,0,0,1,9.365-9.652,9.839,9.839,0,0,1,7.124,2.644,9.231,9.231,0,0,1-1.132,14.46l5.06,14.347a1.552,1.552,0,0,1-.219,1.442,1.667,1.667,0,0,1-1.318.663m-9.245-32.423c-.076,0-.151,0-.228.006a8.524,8.524,0,0,0-8.232,8.486,8.24,8.24,0,0,0,3.862,6.715l.387.247L238.7,73.272a.442.442,0,0,0,.056.414.467.467,0,0,0,.383.193l18.634.047a.456.456,0,0,0,.381-.189.439.439,0,0,0,.063-.41l-5.355-15.181.388-.241a8.185,8.185,0,0,0,3.946-6.956,8.1,8.1,0,0,0-2.612-5.977,8.643,8.643,0,0,0-6.037-2.33" transform="translate(30.214 5.28)" fill="#455a64"/>
          <path id="Trazado_699978" data-name="Trazado 699978" d="M270.447,73.758a2.1,2.1,0,0,0-.427-.019L268.8,73.72l-4.478-.047-14.78-.09-14.782-.017-4.481.03-1.217.025a2.124,2.124,0,0,0-.425.032,1.969,1.969,0,0,0,.425.036l1.217.038,4.48.077c3.783.048,9.009.092,14.782.116s11,.019,14.781-.009c1.893-.014,3.423-.034,4.48-.06.53-.017.939-.025,1.221-.045a2.02,2.02,0,0,0,.422-.048" transform="translate(29.087 9.359)" fill="#455a64"/>
          <path id="Trazado_699979" data-name="Trazado 699979" d="M270.823,59.425a2.1,2.1,0,0,0-.426-.019l-1.217-.018-4.478-.046-14.779-.09-14.782-.018-4.482.03-1.217.025a2.122,2.122,0,0,0-.425.032,1.972,1.972,0,0,0,.425.036l1.217.038,4.48.077c3.783.05,9.009.092,14.782.116s11,.019,14.781-.009c1.893-.014,3.423-.034,4.48-.06.53-.016.94-.025,1.22-.045a2.025,2.025,0,0,0,.423-.048" transform="translate(29.135 7.536)" fill="#455a64"/>
          <line id="Línea_2417" data-name="Línea 2417" x2="15.504" y2="14.486" transform="translate(388.118 375.213)" fill="#fafafa"/>
          <path id="Trazado_699980" data-name="Trazado 699980" d="M359.819,347.353a96.252,96.252,0,0,1-7.953-7.028,96.2,96.2,0,0,1-7.551-7.458,96.133,96.133,0,0,1,7.953,7.029,96.091,96.091,0,0,1,7.551,7.456" transform="translate(43.803 42.346)" fill="#263238"/>
          <path id="Trazado_699981" data-name="Trazado 699981" d="M171.43,368.278s.347-.019,1.028-.028l3.02-.027,11.646-.053,43.1-.089,144.587-.095-.292.292c0-7.307,0-15.059,0-22.9.034-62.5.064-119.07.086-160.033.039-20.468.072-37.033.094-48.5.024-5.716.043-10.156.055-13.184.012-1.5.023-2.643.029-3.429s.031-1.169.031-1.169.02.4.029,1.169.017,1.931.029,3.429c.012,3.027.032,7.468.055,13.184.023,11.464.054,28.028.094,48.5.021,40.963.052,97.535.086,160.033,0,7.845,0,15.6,0,22.9v.292h-.292l-144.587-.095-43.1-.09-11.646-.052-3.02-.027c-.681-.009-1.028-.028-1.028-.028" transform="translate(21.809 15.147)" fill="#263238"/>
          <path id="Trazado_699982" data-name="Trazado 699982" d="M245.77,265.829a34.441,34.441,0,1,1-34.989-34.039,34.566,34.566,0,0,1,34.989,34.039m-50.9.822a16.468,16.468,0,1,0,16.2-16.807,16.522,16.522,0,0,0-16.2,16.807" transform="translate(22.504 29.487)" fill="#e0e0e0"/>
          <path id="Trazado_699983" data-name="Trazado 699983" d="M241.946,265.829a34.566,34.566,0,0,1-33.883,35.151l-.289-18.054a16.544,16.544,0,0,0-.528-33.083l-.29-18.054a34.552,34.552,0,0,1,34.989,34.039" transform="translate(26.329 29.487)" fill="#455a64"/>
          <path id="Trazado_699984" data-name="Trazado 699984" d="M215.229,300.1a39.351,39.351,0,0,1-40.292-39.2l21.025-.339c.17,10.671,8.29,17.39,18.91,17.217Z" transform="translate(22.255 33.148)" fill="#3076b6"/>
          <path id="Trazado_699985" data-name="Trazado 699985" d="M186.709,261.182a58.29,58.29,0,0,1-4.439,6.959,58.1,58.1,0,0,1-4.923,6.627,58.46,58.46,0,0,1,4.439-6.96,58.39,58.39,0,0,1,4.923-6.626" transform="translate(22.561 33.227)" fill="#263238"/>
          <path id="Trazado_699986" data-name="Trazado 699986" d="M195.3,262.743c.133.092-2.807,4.59-6.565,10.046s-6.916,9.806-7.05,9.713,2.806-4.589,6.566-10.047,6.915-9.8,7.048-9.712" transform="translate(23.113 33.425)" fill="#263238"/>
          <path id="Trazado_699987" data-name="Trazado 699987" d="M199.1,271.036a100.353,100.353,0,0,1-5.91,9.094,100.258,100.258,0,0,1-6.395,8.763,100.4,100.4,0,0,1,5.911-9.1,100.529,100.529,0,0,1,6.394-8.762" transform="translate(23.763 34.481)" fill="#263238"/>
          <path id="Trazado_699988" data-name="Trazado 699988" d="M205.962,275.623a100.385,100.385,0,0,1-5.91,9.094,100.694,100.694,0,0,1-6.394,8.763,99.921,99.921,0,0,1,5.91-9.1,100.483,100.483,0,0,1,6.394-8.762" transform="translate(24.636 35.064)" fill="#263238"/>
          <path id="Trazado_699989" data-name="Trazado 699989" d="M211.6,281.445a68.349,68.349,0,0,1-4.829,7.525,68.467,68.467,0,0,1-5.313,7.194,68.234,68.234,0,0,1,4.829-7.526,68.434,68.434,0,0,1,5.313-7.193" transform="translate(25.628 35.805)" fill="#263238"/>
          <path id="Trazado_699990" data-name="Trazado 699990" d="M329.013,186.713H329l-65.042-.777a1.126,1.126,0,0,1-1.114-1.141l.609-50.977a1.106,1.106,0,0,1,1.141-1.115,1.128,1.128,0,0,1,1.114,1.141l-.6,49.851,63.914.763a1.127,1.127,0,0,1-.014,2.254" transform="translate(33.438 16.882)" fill="#263238"/>
          <rect id="Rectángulo_345002" data-name="Rectángulo 345002" width="16.041" height="8.731" transform="translate(306.234 198.126) rotate(-89.319)" fill="#455a64"/>
          <rect id="Rectángulo_345003" data-name="Rectángulo 345003" width="16.041" height="8.731" transform="translate(336.555 198.126) rotate(-89.319)" fill="#455a64"/>
          <rect id="Rectángulo_345004" data-name="Rectángulo 345004" width="29.158" height="8.731" transform="translate(321.446 198.398) rotate(-89.319)" fill="#ffa031"/>
          <rect id="Rectángulo_345005" data-name="Rectángulo 345005" width="29.158" height="8.731" transform="translate(351.665 198.398) rotate(-89.319)" fill="#ffa031"/>
          <path id="Trazado_699991" data-name="Trazado 699991" d="M271.06,158.71a1.128,1.128,0,0,1-.762-1.958l20.054-18.363a1.128,1.128,0,0,1,1.455-.058l12.643,9.867,27.025-19.263a1.127,1.127,0,0,1,1.308,1.836l-27.709,19.751a1.126,1.126,0,0,1-1.348-.03l-12.553-9.8-19.351,17.72a1.128,1.128,0,0,1-.762.3" transform="translate(34.34 16.376)" fill="#455a64"/>
          <path id="Trazado_699992" data-name="Trazado 699992" d="M306.683,141.338s-5.845-1.895-4.635-10.364,6.08-11.74,6.08-11.74,5.516,5.757,5.536,13.06-4.834,9.07-4.834,9.07l-.991-14.187Z" transform="translate(38.405 15.169)" fill="#455a64"/>
          <path id="Trazado_699993" data-name="Trazado 699993" d="M314.1,140.483s-2.427-6,5.23-10.762,13.6-3.039,13.6-3.039-.914,8.352-6.8,13.312-10.941,1.934-10.941,1.934l11.22-8.95Z" transform="translate(39.913 16.078)" fill="#455a64"/>
          <path id="Trazado_699994" data-name="Trazado 699994" d="M329.432,108.925h-15.3a5.336,5.336,0,0,1,0-10.671h15.3a5.336,5.336,0,0,1,0,10.671" transform="translate(39.285 12.5)" fill="#e0e0e0"/>
        </g>
      </g>
      <g id="Grupo_998954" data-name="Grupo 998954">
        <g id="Grupo_998953" data-name="Grupo 998953" clip-path="url(#clip-path)">
          <path id="Trazado_699995" data-name="Trazado 699995" d="M51.171,124.163a85.911,85.911,0,0,1-4.01-14.263,30,30,0,0,1,.894-14.654c.248-.708,2.384-5.464,3.131-5.4.533.043-.753,4.465-.475,4.924,2.657,4.368,3.458,9.668,3.145,14.771a66.937,66.937,0,0,1-2.686,14.626" transform="translate(5.936 11.43)" fill="#263238"/>
          <path id="Trazado_699996" data-name="Trazado 699996" d="M68.345,82.824l1.148.039A22.17,22.17,0,0,1,90.882,104c.495,10.738.905,22.609.637,28.351C90.962,144.234,79,145.674,79,145.674c-.027,0,.739,12.564.739,12.564l-12.543.409-14.377-3.94L49.913,106.2c-.64-12.386,6.034-23.081,18.432-23.379" transform="translate(6.344 10.537)" fill="#ffc09d"/>
          <path id="Trazado_699997" data-name="Trazado 699997" d="M77.446,139.159a28.74,28.74,0,0,1-15.328-5.111s3.633,9.511,15.536,8.849Z" transform="translate(7.903 17.053)" fill="#ff9b6c"/>
          <path id="Trazado_699998" data-name="Trazado 699998" d="M83.329,110.617a1.7,1.7,0,0,1-1.7,1.657,1.625,1.625,0,0,1-1.7-1.592,1.7,1.7,0,0,1,1.694-1.658,1.627,1.627,0,0,1,1.7,1.593" transform="translate(10.169 13.87)" fill="#263238"/>
          <path id="Trazado_699999" data-name="Trazado 699999" d="M84.606,106.4c-.218.214-1.472-.782-3.3-.84-1.824-.085-3.2.809-3.388.578-.094-.1.134-.495.733-.9a4.657,4.657,0,0,1,2.722-.737,4.478,4.478,0,0,1,2.617.945c.547.451.724.858.617.954" transform="translate(9.91 13.294)" fill="#263238"/>
          <path id="Trazado_700000" data-name="Trazado 700000" d="M68.756,111.01a1.7,1.7,0,0,1-1.7,1.657,1.626,1.626,0,0,1-1.7-1.592,1.7,1.7,0,0,1,1.7-1.658,1.627,1.627,0,0,1,1.7,1.593" transform="translate(8.315 13.92)" fill="#263238"/>
          <path id="Trazado_700001" data-name="Trazado 700001" d="M68.7,106.233c-.219.214-1.474-.782-3.3-.84-1.825-.085-3.2.809-3.39.579-.094-.1.132-.495.734-.9a4.659,4.659,0,0,1,2.722-.737,4.481,4.481,0,0,1,2.617.945c.546.451.723.858.617.954" transform="translate(7.886 13.273)" fill="#263238"/>
          <path id="Trazado_700002" data-name="Trazado 700002" d="M73.369,120.4a12.15,12.15,0,0,1,2.987-.434c.468-.032.913-.109,1-.425a2.377,2.377,0,0,0-.264-1.394q-.6-1.716-1.258-3.6c-1.743-5.125-2.987-9.333-2.78-9.4s1.788,4.03,3.53,9.155c.418,1.265.818,2.469,1.2,3.621a2.712,2.712,0,0,1,.179,1.841,1.173,1.173,0,0,1-.791.655,3.154,3.154,0,0,1-.8.083,11.923,11.923,0,0,1-3.009-.1" transform="translate(9.291 13.376)" fill="#263238"/>
          <path id="Trazado_700003" data-name="Trazado 700003" d="M69.586,101.2c-.265.458-2.021-.094-4.179-.214-2.155-.165-3.969.152-4.171-.337-.088-.232.291-.64,1.064-.992a7.27,7.27,0,0,1,6.361.42c.72.45,1.043.9.924,1.123" transform="translate(7.789 12.609)" fill="#263238"/>
          <path id="Trazado_700004" data-name="Trazado 700004" d="M84.918,101.646c-.388.408-1.869-.052-3.658-.107-1.788-.108-3.312.214-3.652-.227-.149-.214.1-.626.768-1.005a5.77,5.77,0,0,1,2.988-.622,5.666,5.666,0,0,1,2.9.892c.624.439.824.87.653,1.07" transform="translate(9.868 12.681)" fill="#263238"/>
          <path id="Trazado_700005" data-name="Trazado 700005" d="M51.416,111.459c-.2-.095-8.089-2.7-8.108,5.442s8.934,6.755,8.949,6.522-.841-11.964-.841-11.964" transform="translate(5.51 14.12)" fill="#ffc09d"/>
          <path id="Trazado_700006" data-name="Trazado 700006" d="M48.767,119.762c-.035-.026-.142.1-.382.207a1.411,1.411,0,0,1-1.06.02c-.859-.318-1.58-1.685-1.616-3.153a4.7,4.7,0,0,1,.4-2.029,1.639,1.639,0,0,1,1.069-1.086.722.722,0,0,1,.836.391c.108.228.056.39.1.4.023.02.176-.135.11-.472a.9.9,0,0,0-.319-.511,1.068,1.068,0,0,0-.783-.209,1.994,1.994,0,0,0-1.485,1.258,4.813,4.813,0,0,0-.5,2.267c.048,1.641.884,3.178,2.059,3.52a1.517,1.517,0,0,0,1.3-.212c.254-.2.3-.382.268-.4" transform="translate(5.743 14.416)" fill="#ff9b6c"/>
          <path id="Trazado_700007" data-name="Trazado 700007" d="M85.9,90.706c1.313-.735-2.668-4.977-5.915-6.424-4.907-2.189-12.387-3.508-16.889-2.2-5.422,1.575-9.917,4.306-12.612,9.267a32.008,32.008,0,0,0-3.489,16.369,9.718,9.718,0,0,0,1.178,4.965c1.149,1.792,3.338,2.912,3.258,5.395a3.407,3.407,0,0,0,.861,2.479c1.5,1.575,3.312.076,4.139-1.423,1.77-3.2,1.944-7.007,2.079-10.66a23.8,23.8,0,0,0-.565-7.738c-.407-1.354-1.054-2.632-1.385-4.006a4.892,4.892,0,0,1,.55-4.068,5.258,5.258,0,0,1,.657-.673,8.487,8.487,0,0,1,8.411-1.656c4.595,1.592,12.437,3.963,14.471,2.4,2.927-2.257,3.621-3.721,3.621-3.721Z" transform="translate(5.975 10.376)" fill="#263238"/>
          <path id="Trazado_700008" data-name="Trazado 700008" d="M68.277,119.715c.28-.019.3,1.85,1.92,3.157s3.6,1.081,3.62,1.341c.027.117-.44.369-1.281.4a4.663,4.663,0,0,1-3.02-1.013,4.061,4.061,0,0,1-1.49-2.65c-.08-.78.123-1.246.251-1.237" transform="translate(8.652 15.23)" fill="#263238"/>
          <path id="Trazado_700009" data-name="Trazado 700009" d="M105.534,292.372l6.019.578s3.308-19.934,1.127-33.789S98.41,184.7,98.41,184.7L83.24,148.9,80.472,147.7l-4.344-4.6L95.542,261.084Z" transform="translate(9.685 18.204)" fill="#455a64"/>
          <g id="Grupo_998931" data-name="Grupo 998931" transform="translate(90.475 179.213)" opacity="0.3">
            <g id="Grupo_998930" data-name="Grupo 998930">
              <g id="Grupo_998929" data-name="Grupo 998929" clip-path="url(#clip-path-16)">
                <path id="Trazado_700010" data-name="Trazado 700010" d="M80.264,158.987s25.4,85.815,27.1,99.724,1.543,32.013,1.543,32.013l-3.9-.374L93.117,253.029s-8.279-59.412-7.6-59.2-5.255-34.839-5.255-34.839" transform="translate(-80.264 -158.987)"/>
              </g>
            </g>
          </g>
          <path id="Trazado_700011" data-name="Trazado 700011" d="M94.563,405.046l-.851,22.234s22.663,8.32,22.912,12.444l-43.836-.078-.116-34.7Z" transform="translate(9.245 51.517)" fill="#263238"/>
          <path id="Trazado_700012" data-name="Trazado 700012" d="M79.459,423.087a1.76,1.76,0,0,0-1.241,2.01,1.721,1.721,0,0,0,2.012,1.229,1.857,1.857,0,0,0,1.3-2.135,1.793,1.793,0,0,0-2.238-1.049" transform="translate(9.946 53.815)" fill="#e0e0e0"/>
          <path id="Trazado_700013" data-name="Trazado 700013" d="M72.774,436.125l.127-3.5,41.982,1.383s1.95.84,1.727,2.192Z" transform="translate(9.258 55.038)" fill="#455a64"/>
          <path id="Trazado_700014" data-name="Trazado 700014" d="M92.418,424.588c-.008.211-1.078.3-2.133.981-1.072.648-1.616,1.561-1.814,1.477-.2-.042.124-1.3,1.416-2.1s2.578-.554,2.531-.361" transform="translate(11.248 53.99)" fill="#fff"/>
          <path id="Trazado_700015" data-name="Trazado 700015" d="M96.372,426.244c.048.2-.879.561-1.607,1.452-.755.869-.94,1.833-1.154,1.823-.2.033-.346-1.2.581-2.292s2.177-1.184,2.181-.983" transform="translate(11.89 54.215)" fill="#fff"/>
          <path id="Trazado_700016" data-name="Trazado 700016" d="M98.38,431.456c-.194.044-.49-1.009.062-2.163s1.553-1.611,1.643-1.435c.121.173-.531.791-.968,1.746-.461.942-.524,1.832-.737,1.852" transform="translate(12.483 54.427)" fill="#fff"/>
          <path id="Trazado_700017" data-name="Trazado 700017" d="M92.147,420.138c-.09.192-1.072-.1-2.281-.021-1.212.054-2.154.452-2.266.271-.123-.153.8-.931,2.224-1s2.429.588,2.323.754" transform="translate(11.143 53.352)" fill="#fff"/>
          <path id="Trazado_700018" data-name="Trazado 700018" d="M48.611,406.527l-1.2,26.487L52.6,454.233a2.718,2.718,0,0,1-2.221,3.314,2.768,2.768,0,0,1-2.407-.753c-4.022-3.967-18.344-18.829-18.405-20.246-.1-2.249-.76-28.343-.76-28.343Z" transform="translate(3.665 51.718)" fill="#263238"/>
          <path id="Trazado_700019" data-name="Trazado 700019" d="M50.306,454.4,29.392,431.289l-.025,1.123a4.236,4.236,0,0,0,.927,2.672c1.666,2.014,6.388,7.478,17.525,18.561a2.781,2.781,0,0,0,2.488.753" transform="translate(3.736 54.868)" fill="#455a64"/>
          <g id="Grupo_998934" data-name="Grupo 998934" transform="translate(36.386 477.448)" opacity="0.6">
            <g id="Grupo_998933" data-name="Grupo 998933">
              <g id="Grupo_998932" data-name="Grupo 998932" clip-path="url(#clip-path-17)">
                <path id="Trazado_700020" data-name="Trazado 700020" d="M34.734,423.838a1.558,1.558,0,0,1-1.756,2.573,1.713,1.713,0,0,1-.422-2.285,1.683,1.683,0,0,1,2.3-.189" transform="translate(-32.28 -423.563)" fill="#fff"/>
              </g>
            </g>
          </g>
          <path id="Trazado_700021" data-name="Trazado 700021" d="M42.714,441.731a8.372,8.372,0,0,1,2.405-2.011,8.489,8.489,0,0,1,3.112-.517c.025-.066-.312-.279-.94-.379a4.352,4.352,0,0,0-2.421.367,4.287,4.287,0,0,0-1.846,1.588c-.326.538-.375.929-.31.951" transform="translate(5.431 55.821)" fill="#fff"/>
          <path id="Trazado_700022" data-name="Trazado 700022" d="M44.345,444.787a22.686,22.686,0,0,1,2.409-1.089,22.71,22.71,0,0,1,2.637-.277,3.1,3.1,0,0,0-2.793-.284c-1.6.423-2.391,1.576-2.252,1.65" transform="translate(5.639 56.355)" fill="#fff"/>
          <path id="Trazado_700023" data-name="Trazado 700023" d="M39.635,437.631a27.568,27.568,0,0,1,3.6-1.927,27.981,27.981,0,0,1,4.013-.832,6.2,6.2,0,0,0-4.217.285,6.094,6.094,0,0,0-3.4,2.474" transform="translate(5.041 55.295)" fill="#fff"/>
          <path id="Trazado_700024" data-name="Trazado 700024" d="M39.352,430.24c.069.16,1.568-.419,3.506-.448,1.935-.053,3.459.463,3.521.3a5.4,5.4,0,0,0-3.535-.882,5.38,5.38,0,0,0-3.492,1.029" transform="translate(5.006 54.603)" fill="#fff"/>
          <path id="Trazado_700025" data-name="Trazado 700025" d="M39.487,423.349a13.7,13.7,0,0,1,3.636-.561,13.657,13.657,0,0,1,3.55.959c.045-.054-.241-.393-.854-.76a6.1,6.1,0,0,0-5.4-.3c-.65.3-.974.6-.936.661" transform="translate(5.023 53.711)" fill="#fff"/>
          <path id="Trazado_700026" data-name="Trazado 700026" d="M43.118,422a2.27,2.27,0,0,0,.059-1,6.878,6.878,0,0,0-.751-2.643,3.113,3.113,0,0,0-1.313-1.5,1.122,1.122,0,0,0-1.255.218,1.763,1.763,0,0,0-.452,1.187,3.863,3.863,0,0,0,3.339,3.625,4.543,4.543,0,0,0,4.492-2.234,1.524,1.524,0,0,0,.1-1.284,1.092,1.092,0,0,0-1.125-.592,3.882,3.882,0,0,0-1.793.87,7.816,7.816,0,0,0-1.882,2.02,2.334,2.334,0,0,0-.433.907,12.39,12.39,0,0,1,2.562-2.595,3.63,3.63,0,0,1,1.581-.72.581.581,0,0,1,.615.318,1.05,1.05,0,0,1-.117.84,4.058,4.058,0,0,1-3.918,1.894,3.356,3.356,0,0,1-2.879-3.038,1.282,1.282,0,0,1,.281-.842.606.606,0,0,1,.69-.129,2.8,2.8,0,0,1,1.135,1.253A10.129,10.129,0,0,1,43.118,422" transform="translate(5.013 53.018)" fill="#fff"/>
          <path id="Trazado_700027" data-name="Trazado 700027" d="M106.906,243.833s5.275,15.642,4.755,30.564c-.2,5.774-9.2,165.5-9.2,165.5l-26.627,1.111,1.04-149.955-2.16.557s-11.787,64.43-12.529,74.812c-.665,9.332-10.018,77.322-10.018,77.322l-24.249-.657,3.846-87.628,5.361-86.019,2.33-25.07Z" transform="translate(3.551 31.02)" fill="#263238"/>
          <path id="Trazado_700028" data-name="Trazado 700028" d="M68.515,274.781a5.179,5.179,0,0,0,1.137.57,13,13,0,0,0,3.347,1,7.038,7.038,0,0,0,2.454-.086,5.076,5.076,0,0,0,2.513-1.319,5.975,5.975,0,0,0,1.441-2.744c.269-1.031.4-2.1.577-3.185.663-4.353,1.069-8.321,1.28-11.2.106-1.438.168-2.6.194-3.41a5.329,5.329,0,0,0-.02-1.255,5.393,5.393,0,0,0-.2,1.239c-.1.917-.224,2.05-.372,3.391-.312,2.861-.779,6.809-1.441,11.15-.338,2.147-.538,4.327-1.834,5.654a5.592,5.592,0,0,1-4.546,1.371,15.177,15.177,0,0,1-3.313-.81,6.051,6.051,0,0,0-1.217-.369" transform="translate(8.716 32.206)" fill="#455a64"/>
          <path id="Trazado_700029" data-name="Trazado 700029" d="M75.2,254.053c.008-.025-.178-.13-.555-.136a2.4,2.4,0,0,0-1.469.533,2.608,2.608,0,0,0-1.035,2.072,2.461,2.461,0,0,0,1.8,2.181A2.516,2.516,0,0,0,76.7,258a2.59,2.59,0,0,0,.41-2.274,2.344,2.344,0,0,0-.865-1.286c-.308-.213-.52-.237-.529-.213a2.962,2.962,0,0,1,1,1.589,2.261,2.261,0,0,1-.426,1.861,2.018,2.018,0,0,1-2.183.5,1.976,1.976,0,0,1-1.459-1.676,2.277,2.277,0,0,1,.774-1.749,3.034,3.034,0,0,1,1.764-.7" transform="translate(9.177 32.303)" fill="#455a64"/>
          <path id="Trazado_700030" data-name="Trazado 700030" d="M37.829,266.239a2.935,2.935,0,0,0,.912.1,17.228,17.228,0,0,0,2.5-.076,24.521,24.521,0,0,0,7.939-2.164,24.2,24.2,0,0,0,6.744-4.662,16.774,16.774,0,0,0,1.647-1.851c.353-.467.531-.735.5-.759-.078-.062-.892.939-2.424,2.327a27.063,27.063,0,0,1-14.454,6.719c-2.062.283-3.362.265-3.364.364" transform="translate(4.813 32.673)" fill="#455a64"/>
          <path id="Trazado_700031" data-name="Trazado 700031" d="M48.1,244.319a2.567,2.567,0,0,0,.538.255l1.576.636c1.37.552,3.381,1.276,5.889,2.1s5.531,1.7,8.919,2.551c3.392.824,7.154,1.612,11.135,2.245,3.986.617,7.807,1.018,11.289,1.273,3.485.229,6.631.326,9.272.3s4.776-.086,6.248-.192l1.693-.123a2.582,2.582,0,0,0,.591-.078,2.613,2.613,0,0,0-.6-.026l-1.7.027c-1.473.046-3.607.062-6.238.029s-5.768-.158-9.239-.411c-3.47-.281-7.275-.694-11.246-1.308-3.966-.632-7.716-1.4-11.1-2.2-3.382-.822-6.407-1.654-8.921-2.437s-4.542-1.445-5.929-1.939l-1.609-.546a2.553,2.553,0,0,0-.574-.158" transform="translate(6.12 31.081)" fill="#263238"/>
          <path id="Trazado_700032" data-name="Trazado 700032" d="M171.891,87.993l-11.764,20.755L156.761,108l6.488,9.284,13.854-1.106-2.517-1.189,7.046-11.425,3.242,5.739,4.507,7.977,13.2-8.047L189.954,88.4Z" transform="translate(19.943 11.194)" fill="#008b8a" fill-rule="evenodd"/>
          <g id="Grupo_998937" data-name="Grupo 998937" transform="translate(201.574 99.591)" opacity="0.3">
            <g id="Grupo_998936" data-name="Grupo 998936">
              <g id="Grupo_998935" data-name="Grupo 998935" clip-path="url(#clip-path-18)">
                <path id="Trazado_700033" data-name="Trazado 700033" d="M187.148,88.351l-8.323,15.164,7.75,13.716,13.2-8.046Z" transform="translate(-178.824 -88.351)" fill-rule="evenodd"/>
              </g>
            </g>
          </g>
          <path id="Trazado_700034" data-name="Trazado 700034" d="M153.61,147.377l22.05.486.207,2.837,5.734-10.587-4.844-11.048-.48,3.175-12.669-.308,3.822-6.079,4.15-5.987-13.355-7.792-12.1,19.6Z" transform="translate(18.59 14.258)" fill="#008b8a" fill-rule="evenodd"/>
          <g id="Grupo_998940" data-name="Grupo 998940" transform="translate(164.717 126.159)" opacity="0.3">
            <g id="Grupo_998939" data-name="Grupo 998939">
              <g id="Grupo_998938" data-name="Grupo 998938" clip-path="url(#clip-path-19)">
                <path id="Trazado_700035" data-name="Trazado 700035" d="M146.127,131.517l17.481.262,7.972-12.066-13.354-7.792Z" transform="translate(-146.127 -111.921)" fill-rule="evenodd"/>
              </g>
            </g>
          </g>
          <path id="Trazado_700036" data-name="Trazado 700036" d="M214.321,134.17l-11.164-20.878,3.613-2.144-12.789.154-8.109,11.106,3.783-1.244,6.3,12.915-6.583-.329-9.151-.457-.259,15.46,24.358.467Z" transform="translate(22.895 14.14)" fill="#008b8a" fill-rule="evenodd"/>
          <g id="Grupo_998943" data-name="Grupo 998943" transform="translate(202.858 147.261)" opacity="0.3">
            <g id="Grupo_998942" data-name="Grupo 998942">
              <g id="Grupo_998941" data-name="Grupo 998941" clip-path="url(#clip-path-20)">
                <path id="Trazado_700037" data-name="Trazado 700037" d="M204.321,146.567l-8.365-15.142-15.734-.785-.259,15.46Z" transform="translate(-179.963 -130.641)" fill-rule="evenodd"/>
              </g>
            </g>
          </g>
          <path id="Trazado_700038" data-name="Trazado 700038" d="M156.78,78.388a3.32,3.32,0,0,1-.566.452c-.375.289-.96.667-1.668,1.219a62.637,62.637,0,0,0-5.8,4.882,59.436,59.436,0,0,0-18.677,44.785,62.779,62.779,0,0,0,.612,7.557c.107.891.25,1.572.309,2.043a3.291,3.291,0,0,1,.077.719,3.283,3.283,0,0,1-.193-.7c-.1-.463-.276-1.141-.418-2.029a53.8,53.8,0,0,1-.8-7.581,58.1,58.1,0,0,1,18.809-45.1,53.835,53.835,0,0,1,5.951-4.765c.732-.524,1.339-.874,1.736-1.131a3.314,3.314,0,0,1,.631-.354" transform="translate(16.488 9.972)" fill="#263238"/>
          <path id="Trazado_700039" data-name="Trazado 700039" d="M206.057,168.684a3.425,3.425,0,0,1,.555-.466c.369-.3.945-.69,1.639-1.257a62.685,62.685,0,0,0,5.685-5.018,59.433,59.433,0,0,0,17.613-45.215,62.564,62.564,0,0,0-.791-7.54c-.127-.887-.286-1.566-.355-2.034a3.322,3.322,0,0,1-.095-.718,3.176,3.176,0,0,1,.208.692c.109.461.3,1.134.467,2.019a53.887,53.887,0,0,1,.981,7.559,58.108,58.108,0,0,1-17.738,45.533,53.641,53.641,0,0,1-5.837,4.9c-.718.541-1.318.905-1.709,1.171a3.312,3.312,0,0,1-.622.369" transform="translate(26.214 13.541)" fill="#263238"/>
          <path id="Trazado_700040" data-name="Trazado 700040" d="M240.442,113.313a2.172,2.172,0,0,1,.149.569c.086.444.189.992.317,1.657a24.094,24.094,0,0,1,.38,2.642c.1,1.036.273,2.213.29,3.526q.037.987.078,2.058c.023.716-.025,1.461-.036,2.232,0,1.547-.178,3.186-.33,4.916a59.6,59.6,0,0,1-6.664,21.454c-.854,1.512-1.637,2.965-2.514,4.237-.427.642-.81,1.283-1.234,1.861s-.838,1.123-1.23,1.651c-.759,1.071-1.568,1.944-2.238,2.741a24.762,24.762,0,0,1-1.809,1.962c-.481.476-.878.867-1.2,1.186a2.186,2.186,0,0,1-.446.384,2.305,2.305,0,0,1,.362-.468l1.116-1.258c.5-.534,1.093-1.2,1.727-2.02s1.424-1.7,2.154-2.776q.572-.8,1.191-1.662c.41-.58.781-1.223,1.2-1.864.852-1.273,1.612-2.724,2.446-4.228a61.7,61.7,0,0,0,6.6-21.265c.166-1.711.362-3.338.381-4.868.021-.766.08-1.5.07-2.215s-.027-1.391-.039-2.043c.01-1.305-.133-2.476-.2-3.511s-.171-1.92-.278-2.64c-.083-.671-.152-1.223-.207-1.671a2.244,2.244,0,0,1-.033-.59" transform="translate(28.491 14.415)" fill="#263238"/>
          <path id="Trazado_700041" data-name="Trazado 700041" d="M127.75,171.338,115.97,183.505l-.478,10.6,14.431,2.658.822-6.353,7.88-10.476Z" transform="translate(14.693 21.797)" fill="#ffc09d"/>
          <path id="Trazado_700042" data-name="Trazado 700042" d="M82.431,148.309s12.3,4.267,15.334,10.43,15.44,33.937,15.44,33.937l4.7,4.209L119.1,194l17.852,2.881s-3.305,14.752-7.41,21.189c-6.844,10.73-19.773,9.061-23.758,5.079-3.6-3.59-6.385-11.732-6.385-11.732Z" transform="translate(10.487 18.868)" fill="#455a64"/>
          <path id="Trazado_700043" data-name="Trazado 700043" d="M132.09,192.178l.575-3.936-15.512-3.176-1.043,4.607Z" transform="translate(14.771 23.544)" fill="#e0e0e0"/>
          <path id="Trazado_700044" data-name="Trazado 700044" d="M91.662,199.9a19.792,19.792,0,0,1-.2-2.157c-.116-1.389-.307-3.4-.6-5.868-.59-4.946-1.566-11.764-3.014-19.224a134.779,134.779,0,0,0-4.832-18.82,34.8,34.8,0,0,0-2.372-5.369c-.7-1.2-1.211-1.778-1.164-1.817.015-.014.149.125.393.4a11.424,11.424,0,0,1,.966,1.3,30.319,30.319,0,0,1,2.566,5.343,118.709,118.709,0,0,1,5.02,18.852c1.453,7.48,2.365,14.322,2.851,19.292.24,2.484.367,4.5.414,5.9.017.7.027,1.241.014,1.61a2.013,2.013,0,0,1-.043.561" transform="translate(10.111 18.656)" fill="#263238"/>
          <path id="Trazado_700045" data-name="Trazado 700045" d="M93.831,159.1c.16-.026,2.779,15.252,5.849,34.121s5.43,34.193,5.27,34.219-2.779-15.249-5.849-34.124-5.43-34.19-5.27-34.216" transform="translate(11.936 20.241)" fill="#263238"/>
          <path id="Trazado_700046" data-name="Trazado 700046" d="M47.012,145.531,51.643,134.9,76.856,151.6l2.762-6.679,9.641,28.124,12.992,55.995c.408,1.539,3.093,24.542,2.225,28.647-.623,2.949-1,4.8-3.711,6.119l-2.6.382-27.857.913L51.363,157.565Z" transform="translate(5.981 17.161)" fill="#f5f5f5"/>
          <g id="Grupo_998946" data-name="Grupo 998946" transform="translate(40.572 242.032)" opacity="0.3">
            <g id="Grupo_998945" data-name="Grupo 998945">
              <g id="Grupo_998944" data-name="Grupo 998944" clip-path="url(#clip-path-21)">
                <path id="Trazado_700047" data-name="Trazado 700047" d="M36.08,291.663s35.964,6.658,44.23,4.255,7.284-10.52,7.284-10.52-.879-23.831-1.7-32.761c-.938-10.241-3.581-37.921-3.581-37.921L35.993,285.745Z" transform="translate(-35.993 -214.716)"/>
              </g>
            </g>
          </g>
          <path id="Trazado_700048" data-name="Trazado 700048" d="M74.249,159.322,73.611,172.1l7.739,69.854c.5,1.79,11.2,12.7,11.2,12.7l5.592-15.637-17.98-69.035-3.812-11.163Z" transform="translate(9.365 20.204)" fill="#12263f"/>
          <path id="Trazado_700049" data-name="Trazado 700049" d="M35.011,151.352c-14.4,7.021-16.275,19.7-11.632,35.034.77,2.543,1.322,3.911,2.39,6.893C30.433,206.3,41.35,228.972,40.892,233.73c-.832,8.636-8.41,38.835-10.931,53.571-1.067,6.235-.458,9.446-.458,9.446s48.271,9.784,53.663,5.127.249-30.252.048-44.722c-.221-15.966-2.623-42.777-5.81-56.006-2.127-8.829-5.243-24.549-8.8-35.17-2.976-8.881-10.759-23.243-15.232-29.082l-4.152,7.086s-9.539,5.1-14.209,7.373" transform="translate(2.687 17.415)" fill="#455a64"/>
          <path id="Trazado_700050" data-name="Trazado 700050" d="M39.6,257.1a4.447,4.447,0,0,1,.614.028l1.672.135,6.121.545c5.186.469,12.364,1.126,20.591,1.979l-.33.222c1.171-2.916,2.407-5.992,3.676-9.155l.174-.431.267.546c-11.307-1.077-21.4-2.09-28.078-2.807l.206-.125-3.548,6.6-.987,1.807c-.23.417-.358.64-.376.652a4.386,4.386,0,0,1,.265-.594c.231-.478.517-1.072.869-1.8l3.41-6.919.066-.136.141.011c6.688.552,16.794,1.461,28.1,2.534l.469.045-.2.5-.172.431c-1.276,3.158-2.516,6.232-3.693,9.146l-.1.248-.23-.025c-8.388-.9-15.69-1.779-20.83-2.4l-6-.738-1.579-.209a2.339,2.339,0,0,1-.512-.091" transform="translate(5.037 31.505)" fill="#263238"/>
          <g id="Grupo_998949" data-name="Grupo 998949" transform="translate(46.176 282.083)" opacity="0.3">
            <g id="Grupo_998948" data-name="Grupo 998948">
              <g id="Grupo_998947" data-name="Grupo 998947" clip-path="url(#clip-path-22)">
                <path id="Trazado_700051" data-name="Trazado 700051" d="M41.675,256.988l-.711,2.836,29.062,3.127,2.216-12.7-3.857,9.581Z" transform="translate(-40.964 -250.247)"/>
              </g>
            </g>
          </g>
          <path id="Trazado_700052" data-name="Trazado 700052" d="M71.388,156.429l.239.469,2.9,3.582,2.1-.51.342-4.685-3.215-5.566Z" transform="translate(9.082 19.047)" fill="#12263f"/>
          <path id="Trazado_700053" data-name="Trazado 700053" d="M117.624,114.3a71.693,71.693,0,1,1,17.967,63.06,71.327,71.327,0,0,1-17.967-63.06m135.922,27.113a66.869,66.869,0,1,0-19.858,35.756,66.885,66.885,0,0,0,19.858-35.756" transform="translate(14.789 7.2)" fill="#455a64"/>
          <path id="Trazado_700054" data-name="Trazado 700054" d="M117.624,114.3a71.693,71.693,0,1,1,17.967,63.06,71.327,71.327,0,0,1-17.967-63.06m135.922,27.113a66.869,66.869,0,1,0-19.858,35.756,66.885,66.885,0,0,0,19.858-35.756" transform="translate(14.789 7.2)" fill="#263238"/>
          <g id="Grupo_998952" data-name="Grupo 998952" transform="translate(131.036 63.797)" opacity="0.3">
            <g id="Grupo_998951" data-name="Grupo 998951">
              <g id="Grupo_998950" data-name="Grupo 998950" clip-path="url(#clip-path-23)">
                <path id="Trazado_700055" data-name="Trazado 700055" d="M117.624,114.3a71.693,71.693,0,1,1,17.967,63.06,71.327,71.327,0,0,1-17.967-63.06m135.922,27.113a66.869,66.869,0,1,0-19.858,35.756,66.885,66.885,0,0,0,19.858-35.756" transform="translate(-116.247 -56.597)"/>
              </g>
            </g>
          </g>
          <path id="Trazado_700056" data-name="Trazado 700056" d="M116.06,111.236A71.694,71.694,0,1,1,134.027,174.3a71.335,71.335,0,0,1-17.967-63.059m135.922,27.113a66.869,66.869,0,1,0-19.858,35.757,66.882,66.882,0,0,0,19.858-35.757" transform="translate(14.59 6.81)" fill="#263238"/>
          <path id="Trazado_700057" data-name="Trazado 700057" d="M61.581,251.567,59.3,249.359c-2.036-1.97-.9-6.474,1.241-8.659l80.131-82.825,10.714,10.366-80.011,82.7c-2.7,2.65-7.173,3.162-9.793.626" transform="translate(7.408 20.085)" fill="#263238"/>
          <path id="Trazado_700058" data-name="Trazado 700058" d="M130.92,166.494a1.881,1.881,0,0,1,1.62-.432,3.156,3.156,0,0,1,1.273.886A14.535,14.535,0,0,1,137.941,177c0,1.593-.419,3.418-1.836,4.143l-1.61-.931c-.5-.644-1.989-1.721-2.187-2.511-.833-3.328.362-3.188-1.725-8.959a1.989,1.989,0,0,1,.337-2.243" transform="translate(16.587 21.12)" fill="#ffc09d"/>
          <path id="Trazado_700059" data-name="Trazado 700059" d="M131.79,170.941a7.93,7.93,0,0,0-1.594-2.1,2.317,2.317,0,0,0-2.119-.633c-1.111.349-1.651,1.949-1.525,3.437a12.983,12.983,0,0,0,1.381,4.229q1.98,4.291,3.959,8.581l.768-.564a1.085,1.085,0,0,0,1.71-.377,4.555,4.555,0,0,0,.377-2.337,22.428,22.428,0,0,0-2.956-10.237" transform="translate(16.097 21.39)" fill="#ffc09d"/>
          <path id="Trazado_700060" data-name="Trazado 700060" d="M130.38,178.988a20.078,20.078,0,0,0-3.963-5.311,4.871,4.871,0,0,0-1.84-1.4,1.733,1.733,0,0,0-2.068.608,2.392,2.392,0,0,0,.281,2.1,98.249,98.249,0,0,0,6.814,11.965l2.367-2.384c1.073-1.935-.68-3.572-1.59-5.585" transform="translate(15.566 21.903)" fill="#ffc09d"/>
          <path id="Trazado_700061" data-name="Trazado 700061" d="M78.7,203.46l2.077-.441,10.863-9.259,5.946-4.995a3.639,3.639,0,0,1,1.74-.8l5.886-.982a3.348,3.348,0,0,1-1.762,4.037l-3.225,1.669-2.952,3.488.379.755s19.34,3,20.547,4.475a2.01,2.01,0,0,1-.537,3.085,3.132,3.132,0,0,1-1.477.134s.94,2.28-1.878,4.158c0,0,2.147,2.817-1.607,4.158a6.071,6.071,0,0,1-3.22,2.817c-2.146.671-13.682,2.012-14.889,2.012s-13.865.02-13.865.02l-2.783.454Z" transform="translate(9.916 23.787)" fill="#ffc09d"/>
          <path id="Trazado_700062" data-name="Trazado 700062" d="M113.47,202.727a15.435,15.435,0,0,1-5.349.287,21.358,21.358,0,0,1-5.292-.786c.015-.183,2.41-.035,5.331.179,2.918.2,5.3.141,5.31.319" transform="translate(13.082 25.717)" fill="#ff9b6c"/>
          <path id="Trazado_700063" data-name="Trazado 700063" d="M111.227,206.341c0,.086-.5.154-1.309.262s-1.921.259-3.18.336a27.178,27.178,0,0,1-3.208-.069,5.069,5.069,0,0,1-1.32-.118c-.024-.087.489-.257,1.314-.311.83-.078,1.956-.028,3.179-.108s2.363-.167,3.188-.159,1.337.086,1.336.168" transform="translate(13.003 26.229)" fill="#ff9b6c"/>
          <path id="Trazado_700064" data-name="Trazado 700064" d="M110.264,209.948c.012.168-2.322.48-5.215.7a12.384,12.384,0,0,0-3.569.554c-.852.32-1.241.778-1.318.709-.059-.027.237-.631,1.138-1.1a9.441,9.441,0,0,1,3.7-.769c2.892-.22,5.248-.261,5.261-.094" transform="translate(12.742 26.696)" fill="#ff9b6c"/>
          <path id="Trazado_700065" data-name="Trazado 700065" d="M73.32,202.531l3.135,18.392,8.531-2.5-2.569-19.295Z" transform="translate(9.328 25.332)" fill="#e0e0e0"/>
          <path id="Trazado_700066" data-name="Trazado 700066" d="M73.321,202.565a2.8,2.8,0,0,1,.579-.272l1.773-.724,6.667-2.619.257-.1.038.28c.676,4.934,1.562,11.4,2.533,18.473q.054.408.108.81l.033.25-.241.07-8.535,2.488-.3.087-.051-.3c-.905-5.432-1.641-10.073-2.144-13.329-.233-1.557-.423-2.825-.568-3.789a8.923,8.923,0,0,1-.151-1.32,12.246,12.246,0,0,1,.313,1.4c.185.97.428,2.248.727,3.817.608,3.251,1.439,7.8,2.366,13.124l-.348-.218L84.9,218.17l-.207.32q-.054-.4-.108-.811c-.915-7.085-1.751-13.554-2.389-18.493l.3.177-6.634,2.365-1.853.633a4.312,4.312,0,0,1-.688.2" transform="translate(9.327 25.297)" fill="#263238"/>
          <path id="Trazado_700067" data-name="Trazado 700067" d="M36.491,149.109s-14.223,5.671-15.308,19c-.842,10.36,2.469,41.508,2.924,47.04,1.352,16.4,6.209,26,18.725,27.959,8.647,1.355,44.083-15.6,44.083-15.6L83.7,207.243l-32.722,9.522L47.811,177.78s-.305-3.051-1.145-7.126" transform="translate(2.678 18.969)" fill="#455a64"/>
          <path id="Trazado_700068" data-name="Trazado 700068" d="M46.685,170.654s.078.271.2.8.277,1.331.462,2.381.4,2.347.579,3.891c.134,1.55.289,3.331.463,5.331.675,8.03,1.647,19.567,2.835,33.686l-.287-.2,32.708-9.566.3-.087.048.305c1.036,6.494,2.117,13.27,3.233,20.263l.034.213-.193.091c-8.077,3.8-16.623,7.592-25.6,10.993a105.709,105.709,0,0,1-12.573,4.017,29.9,29.9,0,0,1-3.214.58,10.155,10.155,0,0,1-3.278-.044,22.744,22.744,0,0,1-6.1-1.946,18,18,0,0,1-5.022-3.8,20.987,20.987,0,0,1-3.434-5.127,41.394,41.394,0,0,1-3.3-11.405c-.6-3.829-.786-7.586-1.168-11.211q-.492-5.455-.953-10.578c-.585-6.829-1.054-13.2-1.329-19.021-.138-2.912-.225-5.688-.2-8.319,0-1.314.063-2.594.141-3.833a21.6,21.6,0,0,1,.677-3.553,21.032,21.032,0,0,1,1.164-3.164,23.836,23.836,0,0,1,5.148-6.794,30.934,30.934,0,0,1,6.115-4.353c.757-.406,1.35-.686,1.753-.863s.621-.241.621-.241-.2.1-.6.3-.976.491-1.721.912a32.157,32.157,0,0,0-6.016,4.418,23.826,23.826,0,0,0-3.485,4.1,23.247,23.247,0,0,0-1.544,2.659,20.749,20.749,0,0,0-1.123,3.12,21.367,21.367,0,0,0-.645,3.493c-.069,1.229-.129,2.5-.117,3.807-.009,2.618.092,5.389.243,8.3.3,5.814.794,12.176,1.4,19q.475,5.117.982,10.571c.391,3.631.59,7.391,1.189,11.177A40.866,40.866,0,0,0,28.341,232.2a20.428,20.428,0,0,0,3.347,4.987,17.5,17.5,0,0,0,4.864,3.671,22.232,22.232,0,0,0,5.94,1.887,9.533,9.533,0,0,0,3.111.037,29.715,29.715,0,0,0,3.149-.572,105.354,105.354,0,0,0,12.5-4c8.951-3.39,17.5-7.176,25.56-10.96l-.159.3c-1.106-6.994-2.177-13.772-3.2-20.267l.344.218-32.734,9.477-.266.077-.021-.275c-1.1-14.124-2.009-25.666-2.638-33.7-.151-2-.286-3.782-.4-5.333-.161-1.539-.353-2.841-.516-3.89-.172-1.034-.305-1.828-.4-2.39-.1-.538-.13-.817-.13-.817" transform="translate(2.657 18.969)" fill="#263238"/>
          <path id="Trazado_700069" data-name="Trazado 700069" d="M72.728,193.4a2.111,2.111,0,0,1-.3-.487c-.2-.391-.45-.868-.748-1.446-.63-1.264-1.577-3.075-2.772-5.3-2.376-4.457-5.9-10.479-9.77-17.152s-7.168-12.849-9.3-17.44c-1.065-2.3-1.89-4.17-2.4-5.49-.237-.606-.432-1.108-.591-1.518a2.037,2.037,0,0,1-.169-.544,2.129,2.129,0,0,1,.277.5c.187.4.416.884.692,1.473.576,1.29,1.456,3.134,2.567,5.4,2.223,4.534,5.563,10.658,9.435,17.328s7.342,12.735,9.629,17.251c1.15,2.253,2.043,4.1,2.611,5.394.259.6.475,1.09.649,1.494a2.1,2.1,0,0,1,.191.538" transform="translate(5.938 18.322)" fill="#263238"/>
          <path id="Trazado_700070" data-name="Trazado 700070" d="M44.03,165.984a21.3,21.3,0,0,1-.441-2.236,15.642,15.642,0,0,0-5.694-8.984,21.051,21.051,0,0,1-1.834-1.353,5.736,5.736,0,0,1,2.076,1.017A13.786,13.786,0,0,1,44,163.672a5.76,5.76,0,0,1,.033,2.312" transform="translate(4.587 19.516)" fill="#263238"/>
          <path id="Trazado_700071" data-name="Trazado 700071" d="M42.96,217.512A10.639,10.639,0,0,1,44.9,212.29a10.627,10.627,0,0,1,3.927-3.949c.117.138-1.819,1.711-3.434,4.265-1.64,2.536-2.256,4.954-2.43,4.906" transform="translate(5.462 26.504)" fill="#263238"/>
          <path id="Trazado_700072" data-name="Trazado 700072" d="M75.512,150.09a3.481,3.481,0,0,1-.2,1.031c-.17.655-.463,1.59-.875,2.732-.822,2.288-2.126,5.4-3.759,8.8l-.145.3-.271-.182c-.286-.192-.608-.38-.9-.6a73.387,73.387,0,0,1-7.7-6.837l-2.213-2.187a4.546,4.546,0,0,1-.773-.845,4.083,4.083,0,0,1,.928.676c.569.467,1.367,1.172,2.342,2.054A100.578,100.578,0,0,0,69.7,161.7c.29.216.6.394.871.582l-.416.123c1.636-3.383,3-6.454,3.911-8.69s1.366-3.642,1.447-3.621" transform="translate(7.464 19.094)" fill="#263238"/>
          <path id="Trazado_700073" data-name="Trazado 700073" d="M81.013,154.709a5.223,5.223,0,0,1-.544,1.246,29.727,29.727,0,0,1-1.609,3.075l-.23.363-.239-.37c-.356-.549-.709-1.158-1.065-1.795A33.284,33.284,0,0,1,74.386,151c.151-.077,1.624,2.628,3.453,5.943.353.631.7,1.239,1.025,1.781l-.468-.007c.759-1.128,1.3-2.214,1.767-2.932s.8-1.114.85-1.076" transform="translate(9.462 19.21)" fill="#263238"/>
        </g>
      </g>
    </g>
  </g>
</svg>
