<svg xmlns="http://www.w3.org/2000/svg" xmlns:xlink="http://www.w3.org/1999/xlink" width="796" height="315" viewBox="0 0 796 315">
  <defs>
    <clipPath id="clip-path">
      <rect id="Rectángulo_346532" data-name="Rectángulo 346532" width="37.828" height="38.809" fill="#12263f" stroke="#12263f" stroke-width="0.5"/>
    </clipPath>
    <filter id="Rectángulo_346533" x="0" y="133" width="170" height="182" filterUnits="userSpaceOnUse">
      <feOffset dy="3" input="SourceAlpha"/>
      <feGaussianBlur stdDeviation="3" result="blur"/>
      <feFlood flood-opacity="0.161"/>
      <feComposite operator="in" in2="blur"/>
      <feComposite in="SourceGraphic"/>
    </filter>
    <filter id="Rectángulo_346536" x="208" y="133" width="170" height="182" filterUnits="userSpaceOnUse">
      <feOffset dy="3" input="SourceAlpha"/>
      <feGaussianBlur stdDeviation="3" result="blur-2"/>
      <feFlood flood-opacity="0.161"/>
      <feComposite operator="in" in2="blur-2"/>
      <feComposite in="SourceGraphic"/>
    </filter>
    <filter id="Rectángulo_346539" x="417" y="133" width="170" height="182" filterUnits="userSpaceOnUse">
      <feOffset dy="3" input="SourceAlpha"/>
      <feGaussianBlur stdDeviation="3" result="blur-3"/>
      <feFlood flood-opacity="0.161"/>
      <feComposite operator="in" in2="blur-3"/>
      <feComposite in="SourceGraphic"/>
    </filter>
    <filter id="Rectángulo_346541" x="626" y="133" width="170" height="182" filterUnits="userSpaceOnUse">
      <feOffset dy="3" input="SourceAlpha"/>
      <feGaussianBlur stdDeviation="3" result="blur-4"/>
      <feFlood flood-opacity="0.161"/>
      <feComposite operator="in" in2="blur-4"/>
      <feComposite in="SourceGraphic"/>
    </filter>
    <clipPath id="clip-path-2">
      <rect id="Rectángulo_346534" data-name="Rectángulo 346534" width="40.335" height="49.505" transform="translate(0 0)" fill="none"/>
    </clipPath>
    <clipPath id="clip-path-3">
      <rect id="Rectángulo_346538" data-name="Rectángulo 346538" width="32.242" height="49.412" transform="translate(0 0)" fill="#12263f"/>
    </clipPath>
    <clipPath id="clip-path-4">
      <rect id="Rectángulo_346543" data-name="Rectángulo 346543" width="49.514" height="50.081" transform="translate(0 0)" fill="none"/>
    </clipPath>
    <clipPath id="clip-path-5">
      <rect id="Rectángulo_346544" data-name="Rectángulo 346544" width="59.405" height="54.418" transform="translate(0 0)" fill="none"/>
    </clipPath>
  </defs>
  <g id="Grupo_1002605" data-name="Grupo 1002605" transform="translate(-663 -4385)">
    <path id="Trazado_711299" data-name="Trazado 711299" d="M-854.638-7486.982v-25.877H-655" transform="translate(1603 11934)" fill="none" stroke="#12263f" stroke-width="2"/>
    <path id="Trazado_711301" data-name="Trazado 711301" d="M-658.428-7488.019v-24.84h-196.21" transform="translate(2031 11934.519)" fill="none" stroke="#12263f" stroke-width="2"/>
    <path id="Trazado_711300" data-name="Trazado 711300" d="M-854.638-7486.982v-25.877h56.372" transform="translate(1811 11934)" fill="none" stroke="#12263f" stroke-width="2"/>
    <path id="Trazado_711302" data-name="Trazado 711302" d="M-803.578-7487.42v-25.439h-51.06" transform="translate(1968.656 11935.22)" fill="none" stroke="#12263f" stroke-width="2"/>
    <g id="Grupo_1002462" data-name="Grupo 1002462" transform="translate(53 234)">
      <circle id="Elipse_8330" data-name="Elipse 8330" cx="18" cy="18" r="18" transform="translate(677 4213)" fill="#4db1f0"/>
      <g id="Elipse_8331" data-name="Elipse 8331" transform="translate(681 4217)" fill="#fafdff" stroke="#12263f" stroke-width="1">
        <circle cx="14" cy="14" r="14" stroke="none"/>
        <circle cx="14" cy="14" r="13.5" fill="none"/>
      </g>
    </g>
    <g id="Grupo_1002464" data-name="Grupo 1002464" transform="translate(53 234)">
      <circle id="Elipse_8336" data-name="Elipse 8336" cx="18" cy="18" r="18" transform="translate(1094 4213)" fill="#008b8a"/>
      <g id="Elipse_8337" data-name="Elipse 8337" transform="translate(1098 4217)" fill="#fafdff" stroke="#12263f" stroke-width="1">
        <circle cx="14" cy="14" r="14" stroke="none"/>
        <circle cx="14" cy="14" r="13.5" fill="none"/>
      </g>
    </g>
    <g id="Grupo_1002463" data-name="Grupo 1002463" transform="translate(53 234)">
      <circle id="Elipse_8332" data-name="Elipse 8332" cx="18" cy="18" r="18" transform="translate(885 4213)" fill="#ffa031"/>
      <g id="Elipse_8333" data-name="Elipse 8333" transform="translate(889 4217)" fill="#fafdff" stroke="#12263f" stroke-width="1">
        <circle cx="14" cy="14" r="14" stroke="none"/>
        <circle cx="14" cy="14" r="13.5" fill="none"/>
      </g>
    </g>
    <g id="Grupo_1002465" data-name="Grupo 1002465" transform="translate(53 234)">
      <circle id="Elipse_8334" data-name="Elipse 8334" cx="18" cy="18" r="18" transform="translate(1302 4213)" fill="#12263f"/>
      <g id="Elipse_8335" data-name="Elipse 8335" transform="translate(1306 4217)" fill="#fafdff" stroke="#12263f" stroke-width="1">
        <circle cx="14" cy="14" r="14" stroke="none"/>
        <circle cx="14" cy="14" r="13.5" fill="none"/>
      </g>
    </g>
    <g id="Grupo_1002528" data-name="Grupo 1002528" transform="translate(53 214)">
      <circle id="Elipse_8338" data-name="Elipse 8338" cx="36" cy="36" r="36" transform="translate(976 4171)" fill="#dbe9f1"/>
      <g id="Elipse_8339" data-name="Elipse 8339" transform="translate(984 4179)" fill="#fafdff" stroke="#12263f" stroke-width="1">
        <circle cx="28" cy="28" r="28" stroke="none"/>
        <circle cx="28" cy="28" r="27.5" fill="none"/>
      </g>
      <g id="Grupo_1002461" data-name="Grupo 1002461" transform="translate(993.496 4186.526)">
        <g id="Grupo_1002460" data-name="Grupo 1002460" transform="translate(0 0)" clip-path="url(#clip-path)">
          <path id="Trazado_711303" data-name="Trazado 711303" d="M25.986,33.736c0,1.444,0,2.8,0,4.149,0,.838-.088.923-.93.923H13.014c-.832,0-.907-.084-.921-.936-.039-2.394-.067-4.789-.129-7.183a10.9,10.9,0,0,0-.791-3.77,2.485,2.485,0,0,1-2.472.211,3.262,3.262,0,0,1-1.215-1.17c-.672-1.187-.188-2.413,1.156-3.341-.388-1.229-.832-2.422-1.134-3.649a12.117,12.117,0,0,1-.115-4.934c.063-.375.131-.775.617-.705s.45.454.389.842a12.956,12.956,0,0,0,1.164,7.748c.327.683,1,.559,1.481.866.1.065.485-.241.7-.426,1.153-1.013,2.292-2.039,3.466-3.086A5.015,5.015,0,0,1,13.759,16.1a7.5,7.5,0,0,1,.151-1.776.553.553,0,0,0-.307-.708q-4.472-2.73-8.925-5.492a.644.644,0,0,0-.837.013A2.436,2.436,0,0,1,.292,7.275,2.461,2.461,0,0,1,1.477,3.853,2.431,2.431,0,0,1,4.8,5.368a2.66,2.66,0,0,1,.074,1.177.58.58,0,0,0,.314.717c1.246.744,2.478,1.514,3.768,2.308a14.072,14.072,0,0,1,6.951-6.011c-.192-2.191.455-3.321,2-3.532,1.481-.2,2.564.765,2.847,2.53.968.124,1.947.183,2.9.381A12.994,12.994,0,0,1,31.4,7.892a2.134,2.134,0,0,0,.825.615A2.538,2.538,0,0,1,33.721,11.5a1.7,1.7,0,0,0,.038.956c1.29,3.458,2.605,6.906,3.914,10.357a1.7,1.7,0,0,1-1.659,2.461,11.65,11.65,0,0,1-1.378-.009c-.493-.051-.642.167-.727.613-.249,1.312-.53,2.62-.825,3.923a4.917,4.917,0,0,1-4.853,3.936c-.717.014-1.435,0-2.247,0M32.8,12.847a2.561,2.561,0,0,1-3.333-.39c-.087-.085-.369-.042-.524.025-1.534.677-3.056,1.378-4.59,2.053a.588.588,0,0,0-.415.669,5.119,5.119,0,0,1-7.592,4.926.676.676,0,0,0-.6.06c-1.225,1.056-2.427,2.137-3.627,3.22-.1.093-.242.3-.206.375a3.022,3.022,0,0,1,.059,2.164c-.04.144.1.336.136.508a29.92,29.92,0,0,1,.83,3.9c.167,1.964.112,3.947.147,5.922.009.489,0,.978,0,1.462H24.909V33.736c-1.1,0-2.159-.014-3.215.007a.968.968,0,0,1-.944-.48c-.717-1.129-1.46-2.24-2.2-3.356-.2-.3-.381-.619,0-.885.418-.292.65.02.859.339.645.984,1.3,1.96,1.934,2.955a.8.8,0,0,0,.779.406c2-.017,3.994-.005,5.99-.011a3.9,3.9,0,0,0,4-3.251c.32-1.5.652-3,.95-4.507.1-.5.327-.729.845-.707.618.024,1.238.005,1.857,0,.992,0,1.229-.339.881-1.259q-1.186-3.132-2.379-6.264c-.488-1.283-.976-2.565-1.476-3.88M30.523,8.454c-.159-.2-.275-.361-.4-.51a11.971,11.971,0,0,0-8.83-4.288c-.52-.024-.972-.013-1.284.511a1.257,1.257,0,0,1-.605.466c-.359.141-.4.377-.375.7.095,1.512.2,3.025.244,4.538.015.481.148.679.641.778a4.924,4.924,0,0,1,3.463,2.61c.084.153.175.3.277.476,1.689-.763,3.345-1.5,4.99-2.264a.522.522,0,0,0,.226-.41,2.6,2.6,0,0,1,1.657-2.611M9.812,10.094l4.645,2.86A5.414,5.414,0,0,1,18.3,10.519C18.2,8.87,18.1,7.281,18.033,5.689c-.022-.47-.07-.831-.651-.919-.4-.061-.688-.455-1.212-.229a13.071,13.071,0,0,0-5.2,3.915c-.4.51-.752,1.062-1.155,1.637m13.131,5.545a4.105,4.105,0,1,0-4.12,4.109,4.12,4.12,0,0,0,4.12-4.109M2.44,4.666a1.445,1.445,0,0,0,.053,2.89,1.445,1.445,0,1,0-.053-2.89m5.8,20.248A1.444,1.444,0,0,0,9.7,26.346a1.473,1.473,0,0,0,1.433-1.467,1.445,1.445,0,0,0-2.89.035m23.1-12.655a1.453,1.453,0,0,0,1.446-1.446,1.449,1.449,0,0,0-2.9.014,1.436,1.436,0,0,0,1.453,1.432M18.26,1.033A1.449,1.449,0,0,0,16.788,2.45a1.483,1.483,0,0,0,1.428,1.475,1.455,1.455,0,0,0,1.461-1.431A1.424,1.424,0,0,0,18.26,1.033" transform="translate(0 0)" fill="#12263f" stroke="#12263f" stroke-width="0.5"/>
          <path id="Trazado_711304" data-name="Trazado 711304" d="M17.522,17.048a2.46,2.46,0,1,1,.061-4.919,2.46,2.46,0,0,1-.061,4.919m.033-3.9a1.448,1.448,0,1,0-.037,2.9,1.448,1.448,0,0,0,.037-2.9" transform="translate(1.302 1.048)" fill="#12263f" stroke="#12263f" stroke-width="0.5"/>
        </g>
      </g>
    </g>
    <g transform="matrix(1, 0, 0, 1, 663, 4385)" filter="url(#Rectángulo_346533)">
      <path id="Rectángulo_346533-2" data-name="Rectángulo 346533" d="M25,0H127a25,25,0,0,1,25,25V164a0,0,0,0,1,0,0H0a0,0,0,0,1,0,0V25A25,25,0,0,1,25,0Z" transform="translate(9 139)" fill="#f6f6f6"/>
    </g>
    <g transform="matrix(1, 0, 0, 1, 663, 4385)" filter="url(#Rectángulo_346536)">
      <path id="Rectángulo_346536-2" data-name="Rectángulo 346536" d="M25,0H127a25,25,0,0,1,25,25V164a0,0,0,0,1,0,0H0a0,0,0,0,1,0,0V25A25,25,0,0,1,25,0Z" transform="translate(217 139)" fill="#f6f6f6"/>
    </g>
    <g transform="matrix(1, 0, 0, 1, 663, 4385)" filter="url(#Rectángulo_346539)">
      <path id="Rectángulo_346539-2" data-name="Rectángulo 346539" d="M25,0H127a25,25,0,0,1,25,25V164a0,0,0,0,1,0,0H0a0,0,0,0,1,0,0V25A25,25,0,0,1,25,0Z" transform="translate(426 139)" fill="#f6f6f6"/>
    </g>
    <g transform="matrix(1, 0, 0, 1, 663, 4385)" filter="url(#Rectángulo_346541)">
      <path id="Rectángulo_346541-2" data-name="Rectángulo 346541" d="M25,0H127a25,25,0,0,1,25,25V164a0,0,0,0,1,0,0H0a0,0,0,0,1,0,0V25A25,25,0,0,1,25,0Z" transform="translate(635 139)" fill="#f6f6f6"/>
    </g>
    <g id="Grupo_1002468" data-name="Grupo 1002468" transform="translate(731 4573.247)">
      <g id="Grupo_1002467" data-name="Grupo 1002467" clip-path="url(#clip-path-2)">
        <path id="Trazado_711305" data-name="Trazado 711305" d="M13.011,49.505c-.552-.092-1.109-.16-1.654-.28A13.615,13.615,0,0,1,.719,39.816,13.873,13.873,0,0,1,6.125,23.933c.1-.071.214-.132.365-.225.336,1.241.67,2.442.973,3.652.029.116-.108.318-.222.42a10.415,10.415,0,0,0-3.373,6.091,10.258,10.258,0,0,0,20.075,4.134,9.972,9.972,0,0,0-.912-7.4.649.649,0,0,1-.1-.333c.108.1.221.192.324.3,1.476,1.486,2.947,2.977,4.431,4.455a.942.942,0,0,1,.308.758,14,14,0,0,1-11.2,13.421c-.58.118-1.168.2-1.751.3Z" fill="#232323"/>
        <path id="Trazado_711306" data-name="Trazado 711306" d="M11.887,18.559l5.84-3.024c.671-.348,1.34-.7,2.015-1.043a2.34,2.34,0,1,1,2.119,4.154q-4.11,2.141-8.227,4.268c-.156.08-.311.164-.511.27.2.744.4,1.48.6,2.239l7.358-1.966c.606-.162,1.217-.308,1.817-.49a2.561,2.561,0,0,1,2.767.745c2.986,3.03,5.993,6.039,8.971,9.077a.912.912,0,0,0,1.088.284c.516-.178,1.052-.3,1.583-.431a2.329,2.329,0,1,1,1.255,4.484c-1.158.338-2.325.645-3.494.942a2.5,2.5,0,0,1-2.535-.79c-3.021-3.063-6.057-6.112-9.073-9.18a.773.773,0,0,0-.878-.226q-4.818,1.314-9.646,2.594a2.367,2.367,0,0,1-3.194-1.842C8.459,23.839,7.2,19.047,5.888,14.271a2.348,2.348,0,1,1,4.506-1.263c.395,1.459.781,2.921,1.171,4.382.1.372.205.743.322,1.169" fill="#232323"/>
        <path id="Trazado_711307" data-name="Trazado 711307" d="M7.78,10.261a5.131,5.131,0,1,1,5.144-5.106A5.134,5.134,0,0,1,7.78,10.261" fill="#232323"/>
      </g>
    </g>
    <path id="Trazado_711308" data-name="Trazado 711308" d="M-916.086-7302.742h119.914" transform="translate(1603 11934)" fill="none" stroke="#afafaf" stroke-width="1"/>
    <path id="Trazado_711309" data-name="Trazado 711309" d="M-916.086-7302.742h119.914" transform="translate(1811 11934)" fill="none" stroke="#afafaf" stroke-width="1"/>
    <path id="Trazado_711312" data-name="Trazado 711312" d="M-916.086-7302.742h119.914" transform="translate(2020 11934)" fill="none" stroke="#afafaf" stroke-width="1"/>
    <path id="Trazado_711313" data-name="Trazado 711313" d="M-916.086-7302.742h119.914" transform="translate(2229 11934)" fill="none" stroke="#afafaf" stroke-width="1"/>
    <path id="Trazado_711928" data-name="Trazado 711928" d="M-49.262,0V-11.375h3.5a5.315,5.315,0,0,1,2.684.676A4.712,4.712,0,0,1-41.23-8.777a5.928,5.928,0,0,1,.664,2.832v.523a5.945,5.945,0,0,1-.652,2.82,4.672,4.672,0,0,1-1.84,1.914A5.355,5.355,0,0,1-45.738,0Zm2.344-9.477v7.594h1.133a2.545,2.545,0,0,0,2.1-.9,4.06,4.06,0,0,0,.742-2.57v-.6a4.124,4.124,0,0,0-.719-2.629,2.537,2.537,0,0,0-2.1-.895ZM-36.629,0h-2.266V-8.453h2.266Zm-2.4-10.641a1.112,1.112,0,0,1,.34-.836,1.277,1.277,0,0,1,.926-.328,1.28,1.28,0,0,1,.922.328,1.105,1.105,0,0,1,.344.836,1.108,1.108,0,0,1-.348.844,1.283,1.283,0,0,1-.918.328A1.283,1.283,0,0,1-38.68-9.8,1.108,1.108,0,0,1-39.027-10.641Zm8.836,8.3a.727.727,0,0,0-.41-.652,4.659,4.659,0,0,0-1.316-.426q-3.016-.633-3.016-2.562A2.323,2.323,0,0,1-34-7.855a3.766,3.766,0,0,1,2.441-.754,4.053,4.053,0,0,1,2.574.758,2.388,2.388,0,0,1,.965,1.969h-2.258a1.092,1.092,0,0,0-.312-.8A1.322,1.322,0,0,0-31.566-7a1.351,1.351,0,0,0-.883.258.814.814,0,0,0-.312.656.7.7,0,0,0,.355.605,3.657,3.657,0,0,0,1.2.4,9.8,9.8,0,0,1,1.422.379A2.336,2.336,0,0,1-28-2.43a2.2,2.2,0,0,1-.992,1.871,4.28,4.28,0,0,1-2.562.715,4.47,4.47,0,0,1-1.887-.379A3.166,3.166,0,0,1-34.73-1.262,2.414,2.414,0,0,1-35.2-2.687h2.141a1.179,1.179,0,0,0,.445.922,1.766,1.766,0,0,0,1.109.32,1.635,1.635,0,0,0,.98-.246A.766.766,0,0,0-30.191-2.336Zm7.164.672a1.481,1.481,0,0,0,1.016-.344,1.2,1.2,0,0,0,.406-.914h2.117a2.9,2.9,0,0,1-.469,1.574A3.093,3.093,0,0,1-21.219-.238a3.949,3.949,0,0,1-1.77.395A3.67,3.67,0,0,1-25.848-1,4.56,4.56,0,0,1-26.895-4.18v-.148a4.508,4.508,0,0,1,1.039-3.117A3.627,3.627,0,0,1-23-8.609a3.555,3.555,0,0,1,2.543.9,3.2,3.2,0,0,1,.973,2.4h-2.117a1.551,1.551,0,0,0-.406-1.072,1.354,1.354,0,0,0-1.031-.412,1.36,1.36,0,0,0-1.191.575,3.333,3.333,0,0,0-.4,1.866v.235a3.375,3.375,0,0,0,.4,1.878A1.377,1.377,0,0,0-23.027-1.664ZM-13.3,0a2.507,2.507,0,0,1-.227-.758A2.732,2.732,0,0,1-15.66.156a3,3,0,0,1-2.059-.719,2.312,2.312,0,0,1-.816-1.812,2.389,2.389,0,0,1,1-2.062,4.915,4.915,0,0,1,2.879-.727h1.039v-.484a1.393,1.393,0,0,0-.3-.937,1.183,1.183,0,0,0-.949-.352,1.345,1.345,0,0,0-.895.273.929.929,0,0,0-.324.75h-2.258a2.268,2.268,0,0,1,.453-1.359,3,3,0,0,1,1.281-.98,4.669,4.669,0,0,1,1.859-.355,3.689,3.689,0,0,1,2.48.785,2.747,2.747,0,0,1,.918,2.207v3.664a4.041,4.041,0,0,0,.336,1.82V0Zm-1.867-1.57a1.945,1.945,0,0,0,.922-.223,1.462,1.462,0,0,0,.625-.6V-3.844h-.844q-1.7,0-1.8,1.172l-.008.133a.9.9,0,0,0,.3.7A1.153,1.153,0,0,0-15.168-1.57ZM-2.012-4.148A5.07,5.07,0,0,1-2.9-1.02,2.843,2.843,0,0,1-5.293.156a2.633,2.633,0,0,1-2.07-.891V3.25H-9.621v-11.7h2.094l.078.828a2.654,2.654,0,0,1,2.141-.984,2.862,2.862,0,0,1,2.43,1.156,5.207,5.207,0,0,1,.867,3.188ZM-4.27-4.321a3.345,3.345,0,0,0-.418-1.826A1.36,1.36,0,0,0-5.9-6.789a1.478,1.478,0,0,0-1.461.815V-2.5a1.5,1.5,0,0,0,1.477.839Q-4.27-1.664-4.27-4.321ZM4.285,0a2.507,2.507,0,0,1-.227-.758A2.732,2.732,0,0,1,1.926.156,3,3,0,0,1-.133-.562,2.312,2.312,0,0,1-.949-2.375a2.389,2.389,0,0,1,1-2.062,4.915,4.915,0,0,1,2.879-.727H3.965v-.484a1.393,1.393,0,0,0-.3-.937,1.183,1.183,0,0,0-.949-.352,1.345,1.345,0,0,0-.895.273.929.929,0,0,0-.324.75H-.762A2.268,2.268,0,0,1-.309-7.273a3,3,0,0,1,1.281-.98,4.669,4.669,0,0,1,1.859-.355,3.689,3.689,0,0,1,2.48.785A2.747,2.747,0,0,1,6.23-5.617v3.664a4.041,4.041,0,0,0,.336,1.82V0ZM2.418-1.57a1.945,1.945,0,0,0,.922-.223,1.462,1.462,0,0,0,.625-.6V-3.844H3.121q-1.7,0-1.8,1.172l-.008.133a.9.9,0,0,0,.3.7A1.153,1.153,0,0,0,2.418-1.57Zm9.063-.094A1.481,1.481,0,0,0,12.5-2.008a1.2,1.2,0,0,0,.406-.914H15.02a2.9,2.9,0,0,1-.469,1.574A3.093,3.093,0,0,1,13.289-.238a3.949,3.949,0,0,1-1.77.395A3.67,3.67,0,0,1,8.66-1,4.56,4.56,0,0,1,7.613-4.18v-.148A4.508,4.508,0,0,1,8.652-7.445,3.627,3.627,0,0,1,11.5-8.609a3.555,3.555,0,0,1,2.543.9,3.2,3.2,0,0,1,.973,2.4H12.9A1.551,1.551,0,0,0,12.5-6.377a1.354,1.354,0,0,0-1.031-.412,1.36,1.36,0,0,0-1.191.575,3.333,3.333,0,0,0-.4,1.866v.235a3.375,3.375,0,0,0,.4,1.878A1.377,1.377,0,0,0,11.48-1.664ZM18.691,0H16.426V-8.453h2.266Zm-2.4-10.641a1.112,1.112,0,0,1,.34-.836,1.277,1.277,0,0,1,.926-.328,1.28,1.28,0,0,1,.922.328,1.105,1.105,0,0,1,.344.836,1.108,1.108,0,0,1-.348.844,1.283,1.283,0,0,1-.918.328,1.283,1.283,0,0,1-.918-.328A1.108,1.108,0,0,1,16.293-10.641ZM20.2-4.289a5.094,5.094,0,0,1,.887-3.148,2.877,2.877,0,0,1,2.426-1.172,2.589,2.589,0,0,1,2.039.922V-12h2.266V0H25.777l-.109-.9A2.657,2.657,0,0,1,23.5.156,2.869,2.869,0,0,1,21.1-1.02,5.258,5.258,0,0,1,20.2-4.289Zm2.258.161A3.355,3.355,0,0,0,22.871-2.3a1.348,1.348,0,0,0,1.2.636,1.51,1.51,0,0,0,1.477-.887V-5.9a1.489,1.489,0,0,0-1.461-.887Q22.457-6.789,22.457-4.128ZM34.465,0a2.507,2.507,0,0,1-.227-.758,2.732,2.732,0,0,1-2.133.914,3,3,0,0,1-2.059-.719,2.312,2.312,0,0,1-.816-1.812,2.389,2.389,0,0,1,1-2.062,4.915,4.915,0,0,1,2.879-.727h1.039v-.484a1.393,1.393,0,0,0-.3-.937,1.183,1.183,0,0,0-.949-.352A1.345,1.345,0,0,0,32-6.664a.929.929,0,0,0-.324.75H29.418a2.268,2.268,0,0,1,.453-1.359,3,3,0,0,1,1.281-.98,4.669,4.669,0,0,1,1.859-.355,3.689,3.689,0,0,1,2.48.785,2.747,2.747,0,0,1,.918,2.207v3.664a4.041,4.041,0,0,0,.336,1.82V0ZM32.6-1.57a1.945,1.945,0,0,0,.922-.223,1.462,1.462,0,0,0,.625-.6V-3.844H33.3q-1.7,0-1.8,1.172l-.008.133a.9.9,0,0,0,.3.7A1.153,1.153,0,0,0,32.6-1.57Zm5.2-2.719a5.094,5.094,0,0,1,.887-3.148,2.877,2.877,0,0,1,2.426-1.172,2.589,2.589,0,0,1,2.039.922V-12H45.41V0H43.371l-.109-.9A2.657,2.657,0,0,1,41.09.156,2.869,2.869,0,0,1,38.7-1.02,5.258,5.258,0,0,1,37.793-4.289Zm2.258.161A3.355,3.355,0,0,0,40.465-2.3a1.348,1.348,0,0,0,1.2.636,1.51,1.51,0,0,0,1.477-.887V-5.9a1.489,1.489,0,0,0-1.461-.887Q40.051-6.789,40.051-4.128ZM-18.27,18V11.2h-1.258V9.547h1.258V8.828a2.918,2.918,0,0,1,.816-2.207,3.162,3.162,0,0,1,2.285-.785,5.321,5.321,0,0,1,1.148.155l-.023,1.736a2.878,2.878,0,0,0-.687-.07Q-16,7.656-16,8.862v.685h1.68V11.2H-16V18Zm7.555,0h-2.258V9.547h2.258Zm-.664-11.883h2.461l-2.164,2.422h-1.836Zm7.188,9.547a.727.727,0,0,0-.41-.652,4.659,4.659,0,0,0-1.316-.426q-3.016-.633-3.016-2.562A2.323,2.323,0,0,1-8,10.145a3.766,3.766,0,0,1,2.441-.754,4.053,4.053,0,0,1,2.574.758,2.388,2.388,0,0,1,.965,1.969H-4.277a1.092,1.092,0,0,0-.312-.8A1.322,1.322,0,0,0-5.566,11a1.351,1.351,0,0,0-.883.258.814.814,0,0,0-.312.656.7.7,0,0,0,.355.605,3.657,3.657,0,0,0,1.2.4,9.8,9.8,0,0,1,1.422.379A2.336,2.336,0,0,1-2,15.57a2.2,2.2,0,0,1-.992,1.871,4.28,4.28,0,0,1-2.562.715,4.47,4.47,0,0,1-1.887-.379A3.166,3.166,0,0,1-8.73,16.738,2.414,2.414,0,0,1-9.2,15.313h2.141a1.179,1.179,0,0,0,.445.922,1.766,1.766,0,0,0,1.109.32,1.635,1.635,0,0,0,.98-.246A.766.766,0,0,0-4.191,15.664ZM1.84,18H-.426V9.547H1.84ZM-.559,7.359a1.112,1.112,0,0,1,.34-.836A1.277,1.277,0,0,1,.707,6.2a1.28,1.28,0,0,1,.922.328,1.193,1.193,0,0,1,0,1.68,1.283,1.283,0,0,1-.918.328A1.283,1.283,0,0,1-.211,8.2,1.108,1.108,0,0,1-.559,7.359Zm7.773,8.977a1.481,1.481,0,0,0,1.016-.344,1.2,1.2,0,0,0,.406-.914h2.117a2.9,2.9,0,0,1-.469,1.574,3.093,3.093,0,0,1-1.262,1.109,3.949,3.949,0,0,1-1.77.395A3.67,3.67,0,0,1,4.395,17,4.56,4.56,0,0,1,3.348,13.82v-.148a4.508,4.508,0,0,1,1.039-3.117A3.627,3.627,0,0,1,7.238,9.391a3.555,3.555,0,0,1,2.543.9,3.2,3.2,0,0,1,.973,2.4H8.637a1.551,1.551,0,0,0-.406-1.072A1.354,1.354,0,0,0,7.2,11.211a1.36,1.36,0,0,0-1.191.575,3.333,3.333,0,0,0-.4,1.866v.235A3.375,3.375,0,0,0,6,15.765,1.377,1.377,0,0,0,7.215,16.336ZM16.941,18a2.507,2.507,0,0,1-.227-.758,2.732,2.732,0,0,1-2.133.914,3,3,0,0,1-2.059-.719,2.312,2.312,0,0,1-.816-1.812,2.389,2.389,0,0,1,1-2.062,4.915,4.915,0,0,1,2.879-.727h1.039v-.484a1.393,1.393,0,0,0-.3-.937,1.183,1.183,0,0,0-.949-.352,1.345,1.345,0,0,0-.895.273.929.929,0,0,0-.324.75H11.895a2.268,2.268,0,0,1,.453-1.359,3,3,0,0,1,1.281-.98,4.669,4.669,0,0,1,1.859-.355,3.689,3.689,0,0,1,2.48.785,2.747,2.747,0,0,1,.918,2.207v3.664a4.041,4.041,0,0,0,.336,1.82V18Zm-1.867-1.57A1.945,1.945,0,0,0,16,16.207a1.462,1.462,0,0,0,.625-.6V14.156h-.844q-1.7,0-1.8,1.172l-.008.133a.9.9,0,0,0,.3.7A1.153,1.153,0,0,0,15.074,16.43Z" transform="translate(749 4652)" fill="#12263f"/>
    <path id="Trazado_711927" data-name="Trazado 711927" d="M-49.262,0V-11.375h3.5a5.315,5.315,0,0,1,2.684.676A4.712,4.712,0,0,1-41.23-8.777a5.928,5.928,0,0,1,.664,2.832v.523a5.945,5.945,0,0,1-.652,2.82,4.672,4.672,0,0,1-1.84,1.914A5.355,5.355,0,0,1-45.738,0Zm2.344-9.477v7.594h1.133a2.545,2.545,0,0,0,2.1-.9,4.06,4.06,0,0,0,.742-2.57v-.6a4.124,4.124,0,0,0-.719-2.629,2.537,2.537,0,0,0-2.1-.895ZM-36.629,0h-2.266V-8.453h2.266Zm-2.4-10.641a1.112,1.112,0,0,1,.34-.836,1.277,1.277,0,0,1,.926-.328,1.28,1.28,0,0,1,.922.328,1.105,1.105,0,0,1,.344.836,1.108,1.108,0,0,1-.348.844,1.283,1.283,0,0,1-.918.328A1.283,1.283,0,0,1-38.68-9.8,1.108,1.108,0,0,1-39.027-10.641Zm8.836,8.3a.727.727,0,0,0-.41-.652,4.659,4.659,0,0,0-1.316-.426q-3.016-.633-3.016-2.562A2.323,2.323,0,0,1-34-7.855a3.766,3.766,0,0,1,2.441-.754,4.053,4.053,0,0,1,2.574.758,2.388,2.388,0,0,1,.965,1.969h-2.258a1.092,1.092,0,0,0-.312-.8A1.322,1.322,0,0,0-31.566-7a1.351,1.351,0,0,0-.883.258.814.814,0,0,0-.312.656.7.7,0,0,0,.355.605,3.657,3.657,0,0,0,1.2.4,9.8,9.8,0,0,1,1.422.379A2.336,2.336,0,0,1-28-2.43a2.2,2.2,0,0,1-.992,1.871,4.28,4.28,0,0,1-2.562.715,4.47,4.47,0,0,1-1.887-.379A3.166,3.166,0,0,1-34.73-1.262,2.414,2.414,0,0,1-35.2-2.687h2.141a1.179,1.179,0,0,0,.445.922,1.766,1.766,0,0,0,1.109.32,1.635,1.635,0,0,0,.98-.246A.766.766,0,0,0-30.191-2.336Zm7.164.672a1.481,1.481,0,0,0,1.016-.344,1.2,1.2,0,0,0,.406-.914h2.117a2.9,2.9,0,0,1-.469,1.574A3.093,3.093,0,0,1-21.219-.238a3.949,3.949,0,0,1-1.77.395A3.67,3.67,0,0,1-25.848-1,4.56,4.56,0,0,1-26.895-4.18v-.148a4.508,4.508,0,0,1,1.039-3.117A3.627,3.627,0,0,1-23-8.609a3.555,3.555,0,0,1,2.543.9,3.2,3.2,0,0,1,.973,2.4h-2.117a1.551,1.551,0,0,0-.406-1.072,1.354,1.354,0,0,0-1.031-.412,1.36,1.36,0,0,0-1.191.575,3.333,3.333,0,0,0-.4,1.866v.235a3.375,3.375,0,0,0,.4,1.878A1.377,1.377,0,0,0-23.027-1.664ZM-13.3,0a2.507,2.507,0,0,1-.227-.758A2.732,2.732,0,0,1-15.66.156a3,3,0,0,1-2.059-.719,2.312,2.312,0,0,1-.816-1.812,2.389,2.389,0,0,1,1-2.062,4.915,4.915,0,0,1,2.879-.727h1.039v-.484a1.393,1.393,0,0,0-.3-.937,1.183,1.183,0,0,0-.949-.352,1.345,1.345,0,0,0-.895.273.929.929,0,0,0-.324.75h-2.258a2.268,2.268,0,0,1,.453-1.359,3,3,0,0,1,1.281-.98,4.669,4.669,0,0,1,1.859-.355,3.689,3.689,0,0,1,2.48.785,2.747,2.747,0,0,1,.918,2.207v3.664a4.041,4.041,0,0,0,.336,1.82V0Zm-1.867-1.57a1.945,1.945,0,0,0,.922-.223,1.462,1.462,0,0,0,.625-.6V-3.844h-.844q-1.7,0-1.8,1.172l-.008.133a.9.9,0,0,0,.3.7A1.153,1.153,0,0,0-15.168-1.57ZM-2.012-4.148A5.07,5.07,0,0,1-2.9-1.02,2.843,2.843,0,0,1-5.293.156a2.633,2.633,0,0,1-2.07-.891V3.25H-9.621v-11.7h2.094l.078.828a2.654,2.654,0,0,1,2.141-.984,2.862,2.862,0,0,1,2.43,1.156,5.207,5.207,0,0,1,.867,3.188ZM-4.27-4.321a3.345,3.345,0,0,0-.418-1.826A1.36,1.36,0,0,0-5.9-6.789a1.478,1.478,0,0,0-1.461.815V-2.5a1.5,1.5,0,0,0,1.477.839Q-4.27-1.664-4.27-4.321ZM4.285,0a2.507,2.507,0,0,1-.227-.758A2.732,2.732,0,0,1,1.926.156,3,3,0,0,1-.133-.562,2.312,2.312,0,0,1-.949-2.375a2.389,2.389,0,0,1,1-2.062,4.915,4.915,0,0,1,2.879-.727H3.965v-.484a1.393,1.393,0,0,0-.3-.937,1.183,1.183,0,0,0-.949-.352,1.345,1.345,0,0,0-.895.273.929.929,0,0,0-.324.75H-.762A2.268,2.268,0,0,1-.309-7.273a3,3,0,0,1,1.281-.98,4.669,4.669,0,0,1,1.859-.355,3.689,3.689,0,0,1,2.48.785A2.747,2.747,0,0,1,6.23-5.617v3.664a4.041,4.041,0,0,0,.336,1.82V0ZM2.418-1.57a1.945,1.945,0,0,0,.922-.223,1.462,1.462,0,0,0,.625-.6V-3.844H3.121q-1.7,0-1.8,1.172l-.008.133a.9.9,0,0,0,.3.7A1.153,1.153,0,0,0,2.418-1.57Zm9.063-.094A1.481,1.481,0,0,0,12.5-2.008a1.2,1.2,0,0,0,.406-.914H15.02a2.9,2.9,0,0,1-.469,1.574A3.093,3.093,0,0,1,13.289-.238a3.949,3.949,0,0,1-1.77.395A3.67,3.67,0,0,1,8.66-1,4.56,4.56,0,0,1,7.613-4.18v-.148A4.508,4.508,0,0,1,8.652-7.445,3.627,3.627,0,0,1,11.5-8.609a3.555,3.555,0,0,1,2.543.9,3.2,3.2,0,0,1,.973,2.4H12.9A1.551,1.551,0,0,0,12.5-6.377a1.354,1.354,0,0,0-1.031-.412,1.36,1.36,0,0,0-1.191.575,3.333,3.333,0,0,0-.4,1.866v.235a3.375,3.375,0,0,0,.4,1.878A1.377,1.377,0,0,0,11.48-1.664ZM18.691,0H16.426V-8.453h2.266Zm-2.4-10.641a1.112,1.112,0,0,1,.34-.836,1.277,1.277,0,0,1,.926-.328,1.28,1.28,0,0,1,.922.328,1.105,1.105,0,0,1,.344.836,1.108,1.108,0,0,1-.348.844,1.283,1.283,0,0,1-.918.328,1.283,1.283,0,0,1-.918-.328A1.108,1.108,0,0,1,16.293-10.641ZM20.2-4.289a5.094,5.094,0,0,1,.887-3.148,2.877,2.877,0,0,1,2.426-1.172,2.589,2.589,0,0,1,2.039.922V-12h2.266V0H25.777l-.109-.9A2.657,2.657,0,0,1,23.5.156,2.869,2.869,0,0,1,21.1-1.02,5.258,5.258,0,0,1,20.2-4.289Zm2.258.161A3.355,3.355,0,0,0,22.871-2.3a1.348,1.348,0,0,0,1.2.636,1.51,1.51,0,0,0,1.477-.887V-5.9a1.489,1.489,0,0,0-1.461-.887Q22.457-6.789,22.457-4.128ZM34.465,0a2.507,2.507,0,0,1-.227-.758,2.732,2.732,0,0,1-2.133.914,3,3,0,0,1-2.059-.719,2.312,2.312,0,0,1-.816-1.812,2.389,2.389,0,0,1,1-2.062,4.915,4.915,0,0,1,2.879-.727h1.039v-.484a1.393,1.393,0,0,0-.3-.937,1.183,1.183,0,0,0-.949-.352A1.345,1.345,0,0,0,32-6.664a.929.929,0,0,0-.324.75H29.418a2.268,2.268,0,0,1,.453-1.359,3,3,0,0,1,1.281-.98,4.669,4.669,0,0,1,1.859-.355,3.689,3.689,0,0,1,2.48.785,2.747,2.747,0,0,1,.918,2.207v3.664a4.041,4.041,0,0,0,.336,1.82V0ZM32.6-1.57a1.945,1.945,0,0,0,.922-.223,1.462,1.462,0,0,0,.625-.6V-3.844H33.3q-1.7,0-1.8,1.172l-.008.133a.9.9,0,0,0,.3.7A1.153,1.153,0,0,0,32.6-1.57Zm5.2-2.719a5.094,5.094,0,0,1,.887-3.148,2.877,2.877,0,0,1,2.426-1.172,2.589,2.589,0,0,1,2.039.922V-12H45.41V0H43.371l-.109-.9A2.657,2.657,0,0,1,41.09.156,2.869,2.869,0,0,1,38.7-1.02,5.258,5.258,0,0,1,37.793-4.289Zm2.258.161A3.355,3.355,0,0,0,40.465-2.3a1.348,1.348,0,0,0,1.2.636,1.51,1.51,0,0,0,1.477-.887V-5.9a1.489,1.489,0,0,0-1.461-.887Q40.051-6.789,40.051-4.128ZM-27.559,15.664a.727.727,0,0,0-.41-.652,4.659,4.659,0,0,0-1.316-.426q-3.016-.633-3.016-2.562a2.323,2.323,0,0,1,.934-1.879,3.766,3.766,0,0,1,2.441-.754,4.053,4.053,0,0,1,2.574.758,2.388,2.388,0,0,1,.965,1.969h-2.258a1.092,1.092,0,0,0-.312-.8A1.322,1.322,0,0,0-28.934,11a1.351,1.351,0,0,0-.883.258.814.814,0,0,0-.312.656.7.7,0,0,0,.355.605,3.657,3.657,0,0,0,1.2.4,9.8,9.8,0,0,1,1.422.379,2.336,2.336,0,0,1,1.789,2.273,2.2,2.2,0,0,1-.992,1.871,4.28,4.28,0,0,1-2.562.715,4.47,4.47,0,0,1-1.887-.379A3.166,3.166,0,0,1-32.1,16.738a2.414,2.414,0,0,1-.469-1.426h2.141a1.179,1.179,0,0,0,.445.922,1.766,1.766,0,0,0,1.109.32,1.635,1.635,0,0,0,.98-.246A.766.766,0,0,0-27.559,15.664Zm7.539,2.492a4.15,4.15,0,0,1-3.027-1.141,4.054,4.054,0,0,1-1.168-3.039v-.219a5.106,5.106,0,0,1,.492-2.277,3.612,3.612,0,0,1,1.395-1.547,3.914,3.914,0,0,1,2.059-.543,3.508,3.508,0,0,1,2.73,1.094,4.444,4.444,0,0,1,1,3.1v.922h-5.383a2.1,2.1,0,0,0,.66,1.328,2,2,0,0,0,1.395.5,2.437,2.437,0,0,0,2.039-.945l1.109,1.242A3.389,3.389,0,0,1-18.1,17.754,4.511,4.511,0,0,1-20.02,18.156Zm-.258-6.945a1.411,1.411,0,0,0-1.09.455,2.357,2.357,0,0,0-.535,1.3h3.141v-.181a1.681,1.681,0,0,0-.406-1.165A1.456,1.456,0,0,0-20.277,11.211Zm7.094-1.664.07.977a2.951,2.951,0,0,1,2.43-1.133,2.453,2.453,0,0,1,2,.789,3.682,3.682,0,0,1,.672,2.359V18H-10.27V12.581a1.47,1.47,0,0,0-.312-1.045,1.4,1.4,0,0,0-1.039-.325,1.553,1.553,0,0,0-1.43.814V18h-2.258V9.547Zm11.461,6.117a.727.727,0,0,0-.41-.652,4.659,4.659,0,0,0-1.316-.426q-3.016-.633-3.016-2.562a2.323,2.323,0,0,1,.934-1.879A3.766,3.766,0,0,1-3.09,9.391a4.053,4.053,0,0,1,2.574.758,2.388,2.388,0,0,1,.965,1.969H-1.809a1.092,1.092,0,0,0-.312-.8A1.322,1.322,0,0,0-3.1,11a1.351,1.351,0,0,0-.883.258.814.814,0,0,0-.312.656.7.7,0,0,0,.355.605,3.657,3.657,0,0,0,1.2.4,9.8,9.8,0,0,1,1.422.379A2.336,2.336,0,0,1,.473,15.57,2.2,2.2,0,0,1-.52,17.441a4.28,4.28,0,0,1-2.562.715,4.47,4.47,0,0,1-1.887-.379,3.166,3.166,0,0,1-1.293-1.039,2.414,2.414,0,0,1-.469-1.426H-4.59a1.179,1.179,0,0,0,.445.922,1.766,1.766,0,0,0,1.109.32,1.635,1.635,0,0,0,.98-.246A.766.766,0,0,0-1.723,15.664Zm3.3-1.969a5.013,5.013,0,0,1,.484-2.242A3.546,3.546,0,0,1,3.453,9.93a4.069,4.069,0,0,1,2.113-.539,3.849,3.849,0,0,1,2.793,1.047,4.2,4.2,0,0,1,1.207,2.844l.016.578A4.418,4.418,0,0,1,8.5,16.98a3.775,3.775,0,0,1-2.914,1.176,3.793,3.793,0,0,1-2.918-1.172A4.5,4.5,0,0,1,1.574,13.8Zm2.258.16A3.16,3.16,0,0,0,4.285,15.7a1.5,1.5,0,0,0,1.3.638,1.5,1.5,0,0,0,1.281-.63,3.457,3.457,0,0,0,.461-2.015,3.128,3.128,0,0,0-.461-1.831,1.5,1.5,0,0,0-1.3-.649,1.474,1.474,0,0,0-1.281.646A3.516,3.516,0,0,0,3.832,13.856Zm11.891-2.192a6.134,6.134,0,0,0-.812-.062,1.654,1.654,0,0,0-1.68.867V18H10.973V9.547h2.133l.063,1.008a2.092,2.092,0,0,1,1.883-1.164,2.366,2.366,0,0,1,.7.1ZM19.191,18H16.926V9.547h2.266Zm-2.4-10.641a1.112,1.112,0,0,1,.34-.836,1.465,1.465,0,0,1,1.848,0,1.193,1.193,0,0,1,0,1.68,1.448,1.448,0,0,1-1.836,0A1.108,1.108,0,0,1,16.793,7.359ZM25.949,18a2.507,2.507,0,0,1-.227-.758,2.732,2.732,0,0,1-2.133.914,3,3,0,0,1-2.059-.719,2.312,2.312,0,0,1-.816-1.812,2.389,2.389,0,0,1,1-2.062,4.915,4.915,0,0,1,2.879-.727h1.039v-.484a1.393,1.393,0,0,0-.3-.937,1.183,1.183,0,0,0-.949-.352,1.345,1.345,0,0,0-.895.273.929.929,0,0,0-.324.75H20.9a2.268,2.268,0,0,1,.453-1.359,3,3,0,0,1,1.281-.98A4.669,4.669,0,0,1,24.5,9.391a3.689,3.689,0,0,1,2.48.785,2.747,2.747,0,0,1,.918,2.207v3.664a4.041,4.041,0,0,0,.336,1.82V18Zm-1.867-1.57A1.945,1.945,0,0,0,25,16.207a1.462,1.462,0,0,0,.625-.6V14.156h-.844q-1.7,0-1.8,1.172l-.008.133a.9.9,0,0,0,.3.7A1.153,1.153,0,0,0,24.082,16.43ZM32.012,18H29.746V6h2.266Z" transform="translate(957 4652)" fill="#12263f"/>
    <path id="Trazado_711926" data-name="Trazado 711926" d="M-49.262,0V-11.375h3.5a5.315,5.315,0,0,1,2.684.676A4.712,4.712,0,0,1-41.23-8.777a5.928,5.928,0,0,1,.664,2.832v.523a5.945,5.945,0,0,1-.652,2.82,4.672,4.672,0,0,1-1.84,1.914A5.355,5.355,0,0,1-45.738,0Zm2.344-9.477v7.594h1.133a2.545,2.545,0,0,0,2.1-.9,4.06,4.06,0,0,0,.742-2.57v-.6a4.124,4.124,0,0,0-.719-2.629,2.537,2.537,0,0,0-2.1-.895ZM-36.629,0h-2.266V-8.453h2.266Zm-2.4-10.641a1.112,1.112,0,0,1,.34-.836,1.277,1.277,0,0,1,.926-.328,1.28,1.28,0,0,1,.922.328,1.105,1.105,0,0,1,.344.836,1.108,1.108,0,0,1-.348.844,1.283,1.283,0,0,1-.918.328A1.283,1.283,0,0,1-38.68-9.8,1.108,1.108,0,0,1-39.027-10.641Zm8.836,8.3a.727.727,0,0,0-.41-.652,4.659,4.659,0,0,0-1.316-.426q-3.016-.633-3.016-2.562A2.323,2.323,0,0,1-34-7.855a3.766,3.766,0,0,1,2.441-.754,4.053,4.053,0,0,1,2.574.758,2.388,2.388,0,0,1,.965,1.969h-2.258a1.092,1.092,0,0,0-.312-.8A1.322,1.322,0,0,0-31.566-7a1.351,1.351,0,0,0-.883.258.814.814,0,0,0-.312.656.7.7,0,0,0,.355.605,3.657,3.657,0,0,0,1.2.4,9.8,9.8,0,0,1,1.422.379A2.336,2.336,0,0,1-28-2.43a2.2,2.2,0,0,1-.992,1.871,4.28,4.28,0,0,1-2.562.715,4.47,4.47,0,0,1-1.887-.379A3.166,3.166,0,0,1-34.73-1.262,2.414,2.414,0,0,1-35.2-2.687h2.141a1.179,1.179,0,0,0,.445.922,1.766,1.766,0,0,0,1.109.32,1.635,1.635,0,0,0,.98-.246A.766.766,0,0,0-30.191-2.336Zm7.164.672a1.481,1.481,0,0,0,1.016-.344,1.2,1.2,0,0,0,.406-.914h2.117a2.9,2.9,0,0,1-.469,1.574A3.093,3.093,0,0,1-21.219-.238a3.949,3.949,0,0,1-1.77.395A3.67,3.67,0,0,1-25.848-1,4.56,4.56,0,0,1-26.895-4.18v-.148a4.508,4.508,0,0,1,1.039-3.117A3.627,3.627,0,0,1-23-8.609a3.555,3.555,0,0,1,2.543.9,3.2,3.2,0,0,1,.973,2.4h-2.117a1.551,1.551,0,0,0-.406-1.072,1.354,1.354,0,0,0-1.031-.412,1.36,1.36,0,0,0-1.191.575,3.333,3.333,0,0,0-.4,1.866v.235a3.375,3.375,0,0,0,.4,1.878A1.377,1.377,0,0,0-23.027-1.664ZM-13.3,0a2.507,2.507,0,0,1-.227-.758A2.732,2.732,0,0,1-15.66.156a3,3,0,0,1-2.059-.719,2.312,2.312,0,0,1-.816-1.812,2.389,2.389,0,0,1,1-2.062,4.915,4.915,0,0,1,2.879-.727h1.039v-.484a1.393,1.393,0,0,0-.3-.937,1.183,1.183,0,0,0-.949-.352,1.345,1.345,0,0,0-.895.273.929.929,0,0,0-.324.75h-2.258a2.268,2.268,0,0,1,.453-1.359,3,3,0,0,1,1.281-.98,4.669,4.669,0,0,1,1.859-.355,3.689,3.689,0,0,1,2.48.785,2.747,2.747,0,0,1,.918,2.207v3.664a4.041,4.041,0,0,0,.336,1.82V0Zm-1.867-1.57a1.945,1.945,0,0,0,.922-.223,1.462,1.462,0,0,0,.625-.6V-3.844h-.844q-1.7,0-1.8,1.172l-.008.133a.9.9,0,0,0,.3.7A1.153,1.153,0,0,0-15.168-1.57ZM-2.012-4.148A5.07,5.07,0,0,1-2.9-1.02,2.843,2.843,0,0,1-5.293.156a2.633,2.633,0,0,1-2.07-.891V3.25H-9.621v-11.7h2.094l.078.828a2.654,2.654,0,0,1,2.141-.984,2.862,2.862,0,0,1,2.43,1.156,5.207,5.207,0,0,1,.867,3.188ZM-4.27-4.321a3.345,3.345,0,0,0-.418-1.826A1.36,1.36,0,0,0-5.9-6.789a1.478,1.478,0,0,0-1.461.815V-2.5a1.5,1.5,0,0,0,1.477.839Q-4.27-1.664-4.27-4.321ZM4.285,0a2.507,2.507,0,0,1-.227-.758A2.732,2.732,0,0,1,1.926.156,3,3,0,0,1-.133-.562,2.312,2.312,0,0,1-.949-2.375a2.389,2.389,0,0,1,1-2.062,4.915,4.915,0,0,1,2.879-.727H3.965v-.484a1.393,1.393,0,0,0-.3-.937,1.183,1.183,0,0,0-.949-.352,1.345,1.345,0,0,0-.895.273.929.929,0,0,0-.324.75H-.762A2.268,2.268,0,0,1-.309-7.273a3,3,0,0,1,1.281-.98,4.669,4.669,0,0,1,1.859-.355,3.689,3.689,0,0,1,2.48.785A2.747,2.747,0,0,1,6.23-5.617v3.664a4.041,4.041,0,0,0,.336,1.82V0ZM2.418-1.57a1.945,1.945,0,0,0,.922-.223,1.462,1.462,0,0,0,.625-.6V-3.844H3.121q-1.7,0-1.8,1.172l-.008.133a.9.9,0,0,0,.3.7A1.153,1.153,0,0,0,2.418-1.57Zm9.063-.094A1.481,1.481,0,0,0,12.5-2.008a1.2,1.2,0,0,0,.406-.914H15.02a2.9,2.9,0,0,1-.469,1.574A3.093,3.093,0,0,1,13.289-.238a3.949,3.949,0,0,1-1.77.395A3.67,3.67,0,0,1,8.66-1,4.56,4.56,0,0,1,7.613-4.18v-.148A4.508,4.508,0,0,1,8.652-7.445,3.627,3.627,0,0,1,11.5-8.609a3.555,3.555,0,0,1,2.543.9,3.2,3.2,0,0,1,.973,2.4H12.9A1.551,1.551,0,0,0,12.5-6.377a1.354,1.354,0,0,0-1.031-.412,1.36,1.36,0,0,0-1.191.575,3.333,3.333,0,0,0-.4,1.866v.235a3.375,3.375,0,0,0,.4,1.878A1.377,1.377,0,0,0,11.48-1.664ZM18.691,0H16.426V-8.453h2.266Zm-2.4-10.641a1.112,1.112,0,0,1,.34-.836,1.277,1.277,0,0,1,.926-.328,1.28,1.28,0,0,1,.922.328,1.105,1.105,0,0,1,.344.836,1.108,1.108,0,0,1-.348.844,1.283,1.283,0,0,1-.918.328,1.283,1.283,0,0,1-.918-.328A1.108,1.108,0,0,1,16.293-10.641ZM20.2-4.289a5.094,5.094,0,0,1,.887-3.148,2.877,2.877,0,0,1,2.426-1.172,2.589,2.589,0,0,1,2.039.922V-12h2.266V0H25.777l-.109-.9A2.657,2.657,0,0,1,23.5.156,2.869,2.869,0,0,1,21.1-1.02,5.258,5.258,0,0,1,20.2-4.289Zm2.258.161A3.355,3.355,0,0,0,22.871-2.3a1.348,1.348,0,0,0,1.2.636,1.51,1.51,0,0,0,1.477-.887V-5.9a1.489,1.489,0,0,0-1.461-.887Q22.457-6.789,22.457-4.128ZM34.465,0a2.507,2.507,0,0,1-.227-.758,2.732,2.732,0,0,1-2.133.914,3,3,0,0,1-2.059-.719,2.312,2.312,0,0,1-.816-1.812,2.389,2.389,0,0,1,1-2.062,4.915,4.915,0,0,1,2.879-.727h1.039v-.484a1.393,1.393,0,0,0-.3-.937,1.183,1.183,0,0,0-.949-.352A1.345,1.345,0,0,0,32-6.664a.929.929,0,0,0-.324.75H29.418a2.268,2.268,0,0,1,.453-1.359,3,3,0,0,1,1.281-.98,4.669,4.669,0,0,1,1.859-.355,3.689,3.689,0,0,1,2.48.785,2.747,2.747,0,0,1,.918,2.207v3.664a4.041,4.041,0,0,0,.336,1.82V0ZM32.6-1.57a1.945,1.945,0,0,0,.922-.223,1.462,1.462,0,0,0,.625-.6V-3.844H33.3q-1.7,0-1.8,1.172l-.008.133a.9.9,0,0,0,.3.7A1.153,1.153,0,0,0,32.6-1.57Zm5.2-2.719a5.094,5.094,0,0,1,.887-3.148,2.877,2.877,0,0,1,2.426-1.172,2.589,2.589,0,0,1,2.039.922V-12H45.41V0H43.371l-.109-.9A2.657,2.657,0,0,1,41.09.156,2.869,2.869,0,0,1,38.7-1.02,5.258,5.258,0,0,1,37.793-4.289Zm2.258.161A3.355,3.355,0,0,0,40.465-2.3a1.348,1.348,0,0,0,1.2.636,1.51,1.51,0,0,0,1.477-.887V-5.9a1.489,1.489,0,0,0-1.461-.887Q40.051-6.789,40.051-4.128ZM-28.578,16.336a1.481,1.481,0,0,0,1.016-.344,1.2,1.2,0,0,0,.406-.914h2.117a2.9,2.9,0,0,1-.469,1.574,3.093,3.093,0,0,1-1.262,1.109,3.949,3.949,0,0,1-1.77.395A3.67,3.67,0,0,1-31.4,17a4.56,4.56,0,0,1-1.047-3.184v-.148a4.508,4.508,0,0,1,1.039-3.117,3.627,3.627,0,0,1,2.852-1.164,3.555,3.555,0,0,1,2.543.9,3.2,3.2,0,0,1,.973,2.4h-2.117a1.551,1.551,0,0,0-.406-1.072,1.354,1.354,0,0,0-1.031-.412,1.36,1.36,0,0,0-1.191.575,3.333,3.333,0,0,0-.4,1.866v.235a3.375,3.375,0,0,0,.4,1.878A1.377,1.377,0,0,0-28.578,16.336ZM-24.1,13.7a5.013,5.013,0,0,1,.484-2.242A3.546,3.546,0,0,1-22.223,9.93a4.069,4.069,0,0,1,2.113-.539,3.849,3.849,0,0,1,2.793,1.047,4.2,4.2,0,0,1,1.207,2.844l.016.578A4.418,4.418,0,0,1-17.18,16.98a3.775,3.775,0,0,1-2.914,1.176,3.793,3.793,0,0,1-2.918-1.172A4.5,4.5,0,0,1-24.1,13.8Zm2.258.16a3.16,3.16,0,0,0,.453,1.843,1.5,1.5,0,0,0,1.3.638,1.5,1.5,0,0,0,1.281-.63,3.457,3.457,0,0,0,.461-2.015,3.128,3.128,0,0,0-.461-1.831,1.5,1.5,0,0,0-1.3-.649,1.474,1.474,0,0,0-1.281.646A3.516,3.516,0,0,0-21.844,13.856Zm6.813-.145a4.954,4.954,0,0,1,.926-3.133,3,3,0,0,1,2.5-1.187,2.631,2.631,0,0,1,2.164.953l.094-.8H-7.3v8.172a3.613,3.613,0,0,1-.5,1.93A3.236,3.236,0,0,1-9.227,20.9a4.985,4.985,0,0,1-2.141.43,4.635,4.635,0,0,1-1.812-.371A3.217,3.217,0,0,1-14.516,20l1-1.375a2.645,2.645,0,0,0,2.047.945,1.936,1.936,0,0,0,1.4-.48,1.8,1.8,0,0,0,.5-1.363v-.453a2.612,2.612,0,0,1-2.055.883,2.992,2.992,0,0,1-2.465-1.191,4.953,4.953,0,0,1-.941-3.16Zm2.258.161a3.1,3.1,0,0,0,.461,1.809,1.465,1.465,0,0,0,1.266.655,1.567,1.567,0,0,0,1.477-.777V11.988a1.563,1.563,0,0,0-1.461-.777,1.474,1.474,0,0,0-1.277.667A3.5,3.5,0,0,0-12.773,13.872Zm9.281-4.325.07.977A2.951,2.951,0,0,1-.992,9.391a2.453,2.453,0,0,1,2,.789,3.682,3.682,0,0,1,.672,2.359V18H-.578V12.581a1.47,1.47,0,0,0-.312-1.045,1.4,1.4,0,0,0-1.039-.325,1.553,1.553,0,0,0-1.43.814V18H-5.617V9.547ZM5.773,18H3.508V9.547H5.773ZM3.375,7.359a1.112,1.112,0,0,1,.34-.836A1.277,1.277,0,0,1,4.641,6.2a1.28,1.28,0,0,1,.922.328,1.193,1.193,0,0,1,0,1.68,1.283,1.283,0,0,1-.918.328A1.283,1.283,0,0,1,3.723,8.2,1.108,1.108,0,0,1,3.375,7.359Zm6.961.109V9.547h1.445V11.2H10.336v4.219a1.007,1.007,0,0,0,.18.672.9.9,0,0,0,.688.2,3.6,3.6,0,0,0,.664-.055v1.711a4.648,4.648,0,0,1-1.367.2,2.156,2.156,0,0,1-2.422-2.4V11.2H6.844V9.547H8.078V7.469ZM15.422,18H13.156V9.547h2.266Zm-2.4-10.641a1.112,1.112,0,0,1,.34-.836,1.465,1.465,0,0,1,1.848,0,1.193,1.193,0,0,1,0,1.68,1.448,1.448,0,0,1-1.836,0A1.108,1.108,0,0,1,13.023,7.359Zm7.422,7.883,1.57-5.7h2.359L21.523,18H19.367L16.516,9.547h2.359ZM30.148,18a2.507,2.507,0,0,1-.227-.758,2.732,2.732,0,0,1-2.133.914,3,3,0,0,1-2.059-.719,2.312,2.312,0,0,1-.816-1.812,2.389,2.389,0,0,1,1-2.062,4.915,4.915,0,0,1,2.879-.727h1.039v-.484a1.393,1.393,0,0,0-.3-.937,1.183,1.183,0,0,0-.949-.352,1.345,1.345,0,0,0-.895.273.929.929,0,0,0-.324.75H25.1a2.268,2.268,0,0,1,.453-1.359,3,3,0,0,1,1.281-.98A4.669,4.669,0,0,1,28.7,9.391a3.689,3.689,0,0,1,2.48.785,2.747,2.747,0,0,1,.918,2.207v3.664a4.041,4.041,0,0,0,.336,1.82V18Zm-1.867-1.57a1.945,1.945,0,0,0,.922-.223,1.462,1.462,0,0,0,.625-.6V14.156h-.844q-1.7,0-1.8,1.172l-.008.133a.9.9,0,0,0,.3.7A1.153,1.153,0,0,0,28.281,16.43Z" transform="translate(1166 4652)" fill="#12263f"/>
    <path id="Trazado_711925" data-name="Trazado 711925" d="M-49.262,0V-11.375h3.5a5.315,5.315,0,0,1,2.684.676A4.712,4.712,0,0,1-41.23-8.777a5.928,5.928,0,0,1,.664,2.832v.523a5.945,5.945,0,0,1-.652,2.82,4.672,4.672,0,0,1-1.84,1.914A5.355,5.355,0,0,1-45.738,0Zm2.344-9.477v7.594h1.133a2.545,2.545,0,0,0,2.1-.9,4.06,4.06,0,0,0,.742-2.57v-.6a4.124,4.124,0,0,0-.719-2.629,2.537,2.537,0,0,0-2.1-.895ZM-36.629,0h-2.266V-8.453h2.266Zm-2.4-10.641a1.112,1.112,0,0,1,.34-.836,1.277,1.277,0,0,1,.926-.328,1.28,1.28,0,0,1,.922.328,1.105,1.105,0,0,1,.344.836,1.108,1.108,0,0,1-.348.844,1.283,1.283,0,0,1-.918.328A1.283,1.283,0,0,1-38.68-9.8,1.108,1.108,0,0,1-39.027-10.641Zm8.836,8.3a.727.727,0,0,0-.41-.652,4.659,4.659,0,0,0-1.316-.426q-3.016-.633-3.016-2.562A2.323,2.323,0,0,1-34-7.855a3.766,3.766,0,0,1,2.441-.754,4.053,4.053,0,0,1,2.574.758,2.388,2.388,0,0,1,.965,1.969h-2.258a1.092,1.092,0,0,0-.312-.8A1.322,1.322,0,0,0-31.566-7a1.351,1.351,0,0,0-.883.258.814.814,0,0,0-.312.656.7.7,0,0,0,.355.605,3.657,3.657,0,0,0,1.2.4,9.8,9.8,0,0,1,1.422.379A2.336,2.336,0,0,1-28-2.43a2.2,2.2,0,0,1-.992,1.871,4.28,4.28,0,0,1-2.562.715,4.47,4.47,0,0,1-1.887-.379A3.166,3.166,0,0,1-34.73-1.262,2.414,2.414,0,0,1-35.2-2.687h2.141a1.179,1.179,0,0,0,.445.922,1.766,1.766,0,0,0,1.109.32,1.635,1.635,0,0,0,.98-.246A.766.766,0,0,0-30.191-2.336Zm7.164.672a1.481,1.481,0,0,0,1.016-.344,1.2,1.2,0,0,0,.406-.914h2.117a2.9,2.9,0,0,1-.469,1.574A3.093,3.093,0,0,1-21.219-.238a3.949,3.949,0,0,1-1.77.395A3.67,3.67,0,0,1-25.848-1,4.56,4.56,0,0,1-26.895-4.18v-.148a4.508,4.508,0,0,1,1.039-3.117A3.627,3.627,0,0,1-23-8.609a3.555,3.555,0,0,1,2.543.9,3.2,3.2,0,0,1,.973,2.4h-2.117a1.551,1.551,0,0,0-.406-1.072,1.354,1.354,0,0,0-1.031-.412,1.36,1.36,0,0,0-1.191.575,3.333,3.333,0,0,0-.4,1.866v.235a3.375,3.375,0,0,0,.4,1.878A1.377,1.377,0,0,0-23.027-1.664ZM-13.3,0a2.507,2.507,0,0,1-.227-.758A2.732,2.732,0,0,1-15.66.156a3,3,0,0,1-2.059-.719,2.312,2.312,0,0,1-.816-1.812,2.389,2.389,0,0,1,1-2.062,4.915,4.915,0,0,1,2.879-.727h1.039v-.484a1.393,1.393,0,0,0-.3-.937,1.183,1.183,0,0,0-.949-.352,1.345,1.345,0,0,0-.895.273.929.929,0,0,0-.324.75h-2.258a2.268,2.268,0,0,1,.453-1.359,3,3,0,0,1,1.281-.98,4.669,4.669,0,0,1,1.859-.355,3.689,3.689,0,0,1,2.48.785,2.747,2.747,0,0,1,.918,2.207v3.664a4.041,4.041,0,0,0,.336,1.82V0Zm-1.867-1.57a1.945,1.945,0,0,0,.922-.223,1.462,1.462,0,0,0,.625-.6V-3.844h-.844q-1.7,0-1.8,1.172l-.008.133a.9.9,0,0,0,.3.7A1.153,1.153,0,0,0-15.168-1.57ZM-2.012-4.148A5.07,5.07,0,0,1-2.9-1.02,2.843,2.843,0,0,1-5.293.156a2.633,2.633,0,0,1-2.07-.891V3.25H-9.621v-11.7h2.094l.078.828a2.654,2.654,0,0,1,2.141-.984,2.862,2.862,0,0,1,2.43,1.156,5.207,5.207,0,0,1,.867,3.188ZM-4.27-4.321a3.345,3.345,0,0,0-.418-1.826A1.36,1.36,0,0,0-5.9-6.789a1.478,1.478,0,0,0-1.461.815V-2.5a1.5,1.5,0,0,0,1.477.839Q-4.27-1.664-4.27-4.321ZM4.285,0a2.507,2.507,0,0,1-.227-.758A2.732,2.732,0,0,1,1.926.156,3,3,0,0,1-.133-.562,2.312,2.312,0,0,1-.949-2.375a2.389,2.389,0,0,1,1-2.062,4.915,4.915,0,0,1,2.879-.727H3.965v-.484a1.393,1.393,0,0,0-.3-.937,1.183,1.183,0,0,0-.949-.352,1.345,1.345,0,0,0-.895.273.929.929,0,0,0-.324.75H-.762A2.268,2.268,0,0,1-.309-7.273a3,3,0,0,1,1.281-.98,4.669,4.669,0,0,1,1.859-.355,3.689,3.689,0,0,1,2.48.785A2.747,2.747,0,0,1,6.23-5.617v3.664a4.041,4.041,0,0,0,.336,1.82V0ZM2.418-1.57a1.945,1.945,0,0,0,.922-.223,1.462,1.462,0,0,0,.625-.6V-3.844H3.121q-1.7,0-1.8,1.172l-.008.133a.9.9,0,0,0,.3.7A1.153,1.153,0,0,0,2.418-1.57Zm9.063-.094A1.481,1.481,0,0,0,12.5-2.008a1.2,1.2,0,0,0,.406-.914H15.02a2.9,2.9,0,0,1-.469,1.574A3.093,3.093,0,0,1,13.289-.238a3.949,3.949,0,0,1-1.77.395A3.67,3.67,0,0,1,8.66-1,4.56,4.56,0,0,1,7.613-4.18v-.148A4.508,4.508,0,0,1,8.652-7.445,3.627,3.627,0,0,1,11.5-8.609a3.555,3.555,0,0,1,2.543.9,3.2,3.2,0,0,1,.973,2.4H12.9A1.551,1.551,0,0,0,12.5-6.377a1.354,1.354,0,0,0-1.031-.412,1.36,1.36,0,0,0-1.191.575,3.333,3.333,0,0,0-.4,1.866v.235a3.375,3.375,0,0,0,.4,1.878A1.377,1.377,0,0,0,11.48-1.664ZM18.691,0H16.426V-8.453h2.266Zm-2.4-10.641a1.112,1.112,0,0,1,.34-.836,1.277,1.277,0,0,1,.926-.328,1.28,1.28,0,0,1,.922.328,1.105,1.105,0,0,1,.344.836,1.108,1.108,0,0,1-.348.844,1.283,1.283,0,0,1-.918.328,1.283,1.283,0,0,1-.918-.328A1.108,1.108,0,0,1,16.293-10.641ZM20.2-4.289a5.094,5.094,0,0,1,.887-3.148,2.877,2.877,0,0,1,2.426-1.172,2.589,2.589,0,0,1,2.039.922V-12h2.266V0H25.777l-.109-.9A2.657,2.657,0,0,1,23.5.156,2.869,2.869,0,0,1,21.1-1.02,5.258,5.258,0,0,1,20.2-4.289Zm2.258.161A3.355,3.355,0,0,0,22.871-2.3a1.348,1.348,0,0,0,1.2.636,1.51,1.51,0,0,0,1.477-.887V-5.9a1.489,1.489,0,0,0-1.461-.887Q22.457-6.789,22.457-4.128ZM34.465,0a2.507,2.507,0,0,1-.227-.758,2.732,2.732,0,0,1-2.133.914,3,3,0,0,1-2.059-.719,2.312,2.312,0,0,1-.816-1.812,2.389,2.389,0,0,1,1-2.062,4.915,4.915,0,0,1,2.879-.727h1.039v-.484a1.393,1.393,0,0,0-.3-.937,1.183,1.183,0,0,0-.949-.352A1.345,1.345,0,0,0,32-6.664a.929.929,0,0,0-.324.75H29.418a2.268,2.268,0,0,1,.453-1.359,3,3,0,0,1,1.281-.98,4.669,4.669,0,0,1,1.859-.355,3.689,3.689,0,0,1,2.48.785,2.747,2.747,0,0,1,.918,2.207v3.664a4.041,4.041,0,0,0,.336,1.82V0ZM32.6-1.57a1.945,1.945,0,0,0,.922-.223,1.462,1.462,0,0,0,.625-.6V-3.844H33.3q-1.7,0-1.8,1.172l-.008.133a.9.9,0,0,0,.3.7A1.153,1.153,0,0,0,32.6-1.57Zm5.2-2.719a5.094,5.094,0,0,1,.887-3.148,2.877,2.877,0,0,1,2.426-1.172,2.589,2.589,0,0,1,2.039.922V-12H45.41V0H43.371l-.109-.9A2.657,2.657,0,0,1,41.09.156,2.869,2.869,0,0,1,38.7-1.02,5.258,5.258,0,0,1,37.793-4.289Zm2.258.161A3.355,3.355,0,0,0,40.465-2.3a1.348,1.348,0,0,0,1.2.636,1.51,1.51,0,0,0,1.477-.887V-5.9a1.489,1.489,0,0,0-1.461-.887Q40.051-6.789,40.051-4.128ZM-21.859,9.547l.07.945a2.971,2.971,0,0,1,2.43-1.1,2.255,2.255,0,0,1,2.242,1.289,2.9,2.9,0,0,1,2.539-1.289,2.521,2.521,0,0,1,2.047.8,3.681,3.681,0,0,1,.672,2.41V18h-2.266V12.6a1.616,1.616,0,0,0-.281-1.053,1.245,1.245,0,0,0-.992-.333,1.409,1.409,0,0,0-1.406.971L-16.8,18h-2.258V12.6a1.6,1.6,0,0,0-.289-1.065,1.257,1.257,0,0,0-.984-.329,1.463,1.463,0,0,0-1.391.8V18h-2.258V9.547Zm15.625,8.609a4.15,4.15,0,0,1-3.027-1.141,4.054,4.054,0,0,1-1.168-3.039v-.219a5.106,5.106,0,0,1,.492-2.277A3.612,3.612,0,0,1-8.543,9.934a3.914,3.914,0,0,1,2.059-.543,3.508,3.508,0,0,1,2.73,1.094,4.444,4.444,0,0,1,1,3.1v.922H-8.141a2.1,2.1,0,0,0,.66,1.328,2,2,0,0,0,1.395.5,2.437,2.437,0,0,0,2.039-.945l1.109,1.242a3.389,3.389,0,0,1-1.375,1.121A4.511,4.511,0,0,1-6.234,18.156Zm-.258-6.945a1.411,1.411,0,0,0-1.09.455,2.357,2.357,0,0,0-.535,1.3h3.141v-.181a1.681,1.681,0,0,0-.406-1.165A1.456,1.456,0,0,0-6.492,11.211ZM.6,9.547l.07.977A2.951,2.951,0,0,1,3.1,9.391a2.453,2.453,0,0,1,2,.789,3.682,3.682,0,0,1,.672,2.359V18H3.516V12.581A1.47,1.47,0,0,0,3.2,11.536a1.4,1.4,0,0,0-1.039-.325,1.553,1.553,0,0,0-1.43.814V18H-1.523V9.547Zm9.586-2.078V9.547h1.445V11.2H10.188v4.219a1.007,1.007,0,0,0,.18.672.9.9,0,0,0,.688.2,3.6,3.6,0,0,0,.664-.055v1.711a4.648,4.648,0,0,1-1.367.2,2.156,2.156,0,0,1-2.422-2.4V11.2H6.7V9.547H7.93V7.469ZM17.789,18a2.507,2.507,0,0,1-.227-.758,2.732,2.732,0,0,1-2.133.914,3,3,0,0,1-2.059-.719,2.312,2.312,0,0,1-.816-1.812,2.389,2.389,0,0,1,1-2.062,4.915,4.915,0,0,1,2.879-.727h1.039v-.484a1.393,1.393,0,0,0-.3-.937,1.183,1.183,0,0,0-.949-.352,1.345,1.345,0,0,0-.895.273.929.929,0,0,0-.324.75H12.742a2.268,2.268,0,0,1,.453-1.359,3,3,0,0,1,1.281-.98,4.669,4.669,0,0,1,1.859-.355,3.689,3.689,0,0,1,2.48.785,2.747,2.747,0,0,1,.918,2.207v3.664a4.041,4.041,0,0,0,.336,1.82V18Zm-1.867-1.57a1.945,1.945,0,0,0,.922-.223,1.462,1.462,0,0,0,.625-.6V14.156h-.844q-1.7,0-1.8,1.172l-.008.133a.9.9,0,0,0,.3.7A1.153,1.153,0,0,0,15.922,16.43ZM23.852,18H21.586V6h2.266Z" transform="translate(1375 4652)" fill="#12263f"/>
    <g id="Rectángulo_346535" data-name="Rectángulo 346535" transform="translate(677 4529)" fill="none" stroke="#e8e8e8" stroke-width="1">
      <path d="M25,0h92a25,25,0,0,1,25,25V154a0,0,0,0,1,0,0H0a0,0,0,0,1,0,0V25A25,25,0,0,1,25,0Z" stroke="none"/>
      <path d="M25,.5h92A24.5,24.5,0,0,1,141.5,25V153.5a0,0,0,0,1,0,0H.5a0,0,0,0,1,0,0V25A24.5,24.5,0,0,1,25,.5Z" fill="none"/>
    </g>
    <g id="Rectángulo_346537" data-name="Rectángulo 346537" transform="translate(885 4529)" fill="none" stroke="#e8e8e8" stroke-width="1">
      <path d="M25,0h92a25,25,0,0,1,25,25V154a0,0,0,0,1,0,0H0a0,0,0,0,1,0,0V25A25,25,0,0,1,25,0Z" stroke="none"/>
      <path d="M25,.5h92A24.5,24.5,0,0,1,141.5,25V153.5a0,0,0,0,1,0,0H.5a0,0,0,0,1,0,0V25A24.5,24.5,0,0,1,25,.5Z" fill="none"/>
    </g>
    <g id="Rectángulo_346540" data-name="Rectángulo 346540" transform="translate(1094 4529)" fill="none" stroke="#e8e8e8" stroke-width="1">
      <path d="M25,0h92a25,25,0,0,1,25,25V154a0,0,0,0,1,0,0H0a0,0,0,0,1,0,0V25A25,25,0,0,1,25,0Z" stroke="none"/>
      <path d="M25,.5h92A24.5,24.5,0,0,1,141.5,25V153.5a0,0,0,0,1,0,0H.5a0,0,0,0,1,0,0V25A24.5,24.5,0,0,1,25,.5Z" fill="none"/>
    </g>
    <g id="Rectángulo_346542" data-name="Rectángulo 346542" transform="translate(1303 4529)" fill="none" stroke="#e8e8e8" stroke-width="1">
      <path d="M25,0h92a25,25,0,0,1,25,25V154a0,0,0,0,1,0,0H0a0,0,0,0,1,0,0V25A25,25,0,0,1,25,0Z" stroke="none"/>
      <path d="M25,.5h92A24.5,24.5,0,0,1,141.5,25V153.5a0,0,0,0,1,0,0H.5a0,0,0,0,1,0,0V25A24.5,24.5,0,0,1,25,.5Z" fill="none"/>
    </g>
    <g id="Grupo_1002469" data-name="Grupo 1002469" transform="translate(38.469 279.469)">
      <circle id="Elipse_8330-2" data-name="Elipse 8330" cx="33" cy="33" r="33" transform="translate(676.531 4212.531)" fill="#4db1f0"/>
      <g id="Elipse_8331-2" data-name="Elipse 8331" transform="translate(684.531 4220.531)" fill="#fafdff" stroke="#12263f" stroke-width="1">
        <circle cx="25" cy="25" r="25" stroke="none"/>
        <circle cx="25" cy="25" r="24.5" fill="none"/>
      </g>
    </g>
    <g id="Grupo_1002471" data-name="Grupo 1002471" transform="translate(246.469 279.469)">
      <circle id="Elipse_8330-3" data-name="Elipse 8330" cx="33" cy="33" r="33" transform="translate(676.531 4212.531)" fill="#ffa031"/>
      <g id="Elipse_8331-3" data-name="Elipse 8331" transform="translate(684.531 4220.531)" fill="#fafdff" stroke="#12263f" stroke-width="1">
        <circle cx="25" cy="25" r="25" stroke="none"/>
        <circle cx="25" cy="25" r="24.5" fill="none"/>
      </g>
    </g>
    <g id="Grupo_1002474" data-name="Grupo 1002474" transform="translate(455.469 279.469)">
      <circle id="Elipse_8330-4" data-name="Elipse 8330" cx="33" cy="33" r="33" transform="translate(676.531 4212.531)" fill="#008b8a"/>
      <g id="Elipse_8331-4" data-name="Elipse 8331" transform="translate(684.531 4220.531)" fill="#fafdff" stroke="#12263f" stroke-width="1">
        <circle cx="25" cy="25" r="25" stroke="none"/>
        <circle cx="25" cy="25" r="24.5" fill="none"/>
      </g>
    </g>
    <g id="Grupo_1002476" data-name="Grupo 1002476" transform="translate(664.469 279.469)">
      <circle id="Elipse_8330-5" data-name="Elipse 8330" cx="33" cy="33" r="33" transform="translate(676.531 4212.531)" fill="#12263f"/>
      <g id="Elipse_8331-5" data-name="Elipse 8331" transform="translate(684.531 4220.531)" fill="#fafdff" stroke="#12263f" stroke-width="1">
        <circle cx="25" cy="25" r="25" stroke="none"/>
        <circle cx="25" cy="25" r="24.5" fill="none"/>
      </g>
    </g>
    <path id="Trazado_711929" data-name="Trazado 711929" d="M11.591-6.467A7.923,7.923,0,0,1,10.248-1.5,4.687,4.687,0,0,1,6.316.215a4.72,4.72,0,0,1-3.91-1.687A7.691,7.691,0,0,1,1.021-6.306V-9.185a7.819,7.819,0,0,1,1.359-4.974,4.722,4.722,0,0,1,3.916-1.7,4.726,4.726,0,0,1,3.91,1.681,7.668,7.668,0,0,1,1.386,4.829Zm-3.1-3.165a5.727,5.727,0,0,0-.532-2.833,1.8,1.8,0,0,0-1.66-.887,1.765,1.765,0,0,0-1.617.844,5.36,5.36,0,0,0-.553,2.64v3.806a6.012,6.012,0,0,0,.521,2.844,1.773,1.773,0,0,0,1.67.93A1.743,1.743,0,0,0,7.96-3.181a5.868,5.868,0,0,0,.526-2.731ZM21.227,0h-3.1V-11.983l-3.706,1.144v-2.5l6.478-2.32h.333Z" transform="translate(736 4531)" fill="#12263f"/>
    <path id="Trazado_711930" data-name="Trazado 711930" d="M11.591-6.467A7.923,7.923,0,0,1,10.248-1.5,4.687,4.687,0,0,1,6.316.215a4.72,4.72,0,0,1-3.91-1.687A7.691,7.691,0,0,1,1.021-6.306V-9.185a7.819,7.819,0,0,1,1.359-4.974,4.722,4.722,0,0,1,3.916-1.7,4.726,4.726,0,0,1,3.91,1.681,7.668,7.668,0,0,1,1.386,4.829Zm-3.1-3.165a5.727,5.727,0,0,0-.532-2.833,1.8,1.8,0,0,0-1.66-.887,1.765,1.765,0,0,0-1.617.844,5.36,5.36,0,0,0-.553,2.64v3.806a6.012,6.012,0,0,0,.521,2.844,1.773,1.773,0,0,0,1.67.93A1.743,1.743,0,0,0,7.96-3.181a5.868,5.868,0,0,0,.526-2.731ZM24.406,0H13.686V-2.127l5.06-5.393a12.482,12.482,0,0,0,1.542-1.987,3.193,3.193,0,0,0,.5-1.611,2.389,2.389,0,0,0-.526-1.638,1.9,1.9,0,0,0-1.5-.6,2.049,2.049,0,0,0-1.66.725,2.872,2.872,0,0,0-.607,1.907H13.374a5.128,5.128,0,0,1,.682-2.61,4.808,4.808,0,0,1,1.928-1.853,5.861,5.861,0,0,1,2.825-.671,5.549,5.549,0,0,1,3.754,1.16A4.1,4.1,0,0,1,23.9-11.419a5.259,5.259,0,0,1-.6,2.363,13.133,13.133,0,0,1-2.062,2.8L17.682-2.5h6.725Z" transform="translate(944 4531)" fill="#12263f"/>
    <path id="Trazado_711931" data-name="Trazado 711931" d="M11.591-6.467A7.923,7.923,0,0,1,10.248-1.5,4.687,4.687,0,0,1,6.316.215a4.72,4.72,0,0,1-3.91-1.687A7.691,7.691,0,0,1,1.021-6.306V-9.185a7.819,7.819,0,0,1,1.359-4.974,4.722,4.722,0,0,1,3.916-1.7,4.726,4.726,0,0,1,3.91,1.681,7.668,7.668,0,0,1,1.386,4.829Zm-3.1-3.165a5.727,5.727,0,0,0-.532-2.833,1.8,1.8,0,0,0-1.66-.887,1.765,1.765,0,0,0-1.617.844,5.36,5.36,0,0,0-.553,2.64v3.806a6.012,6.012,0,0,0,.521,2.844,1.773,1.773,0,0,0,1.67.93A1.743,1.743,0,0,0,7.96-3.181a5.868,5.868,0,0,0,.526-2.731Zm8.357.437H18.5a2.331,2.331,0,0,0,1.751-.591,2.165,2.165,0,0,0,.569-1.568,1.914,1.914,0,0,0-.564-1.472,2.186,2.186,0,0,0-1.552-.526,2.291,2.291,0,0,0-1.493.489,1.563,1.563,0,0,0-.6,1.273H13.5a3.818,3.818,0,0,1,.661-2.2,4.4,4.4,0,0,1,1.848-1.52,6.166,6.166,0,0,1,2.616-.548,5.848,5.848,0,0,1,3.889,1.187A4.05,4.05,0,0,1,23.923-11.4a3.291,3.291,0,0,1-.655,1.977,4.257,4.257,0,0,1-1.719,1.386A3.886,3.886,0,0,1,23.52-6.617a3.846,3.846,0,0,1,.65,2.234,4.117,4.117,0,0,1-1.52,3.341A6.112,6.112,0,0,1,18.627.215,5.8,5.8,0,0,1,14.8-1.021,4.034,4.034,0,0,1,13.31-4.286h3.1a1.8,1.8,0,0,0,.661,1.439,2.434,2.434,0,0,0,1.627.559,2.446,2.446,0,0,0,1.735-.585,2.021,2.021,0,0,0,.628-1.552q0-2.342-2.578-2.342H16.844Z" transform="translate(1153 4531)" fill="#12263f"/>
    <path id="Trazado_711932" data-name="Trazado 711932" d="M11.591-6.467A7.923,7.923,0,0,1,10.248-1.5,4.687,4.687,0,0,1,6.316.215a4.72,4.72,0,0,1-3.91-1.687A7.691,7.691,0,0,1,1.021-6.306V-9.185a7.819,7.819,0,0,1,1.359-4.974,4.722,4.722,0,0,1,3.916-1.7,4.726,4.726,0,0,1,3.91,1.681,7.668,7.668,0,0,1,1.386,4.829Zm-3.1-3.165a5.727,5.727,0,0,0-.532-2.833,1.8,1.8,0,0,0-1.66-.887,1.765,1.765,0,0,0-1.617.844,5.36,5.36,0,0,0-.553,2.64v3.806a6.012,6.012,0,0,0,.521,2.844,1.773,1.773,0,0,0,1.67.93A1.743,1.743,0,0,0,7.96-3.181a5.868,5.868,0,0,0,.526-2.731ZM22.87-5.887h1.772v2.5H22.87V0h-3.1V-3.384H13.353l-.14-1.955,6.521-10.3H22.87Zm-6.563,0h3.459v-5.521l-.2.354Z" transform="translate(1362 4531)" fill="#12263f"/>
    <g id="Grupo_1002472" data-name="Grupo 1002472" transform="translate(945 4571.248)">
      <g id="Grupo_1002472-2" data-name="Grupo 1002472" clip-path="url(#clip-path-3)">
        <path id="Trazado_711310" data-name="Trazado 711310" d="M32.242,20.5c-1.022,10.23-5.437,20.245-15.85,26.841a11.664,11.664,0,0,1-9.909,1.575C2.8,47.8-.432,43.073.047,39.292a2.046,2.046,0,0,1,1.336-1.354c.391-.082,1.184.585,1.4,1.088.374.873.347,1.908.649,2.821,1.235,3.732,4.174,5.325,7.989,4.41,3.857-.926,6.8-3.272,9.323-6.167a33.919,33.919,0,0,0,8.558-20c.684-8.514-4.049-14.957-12.36-16.868-5.023-1.155-9.126.861-11.633,5.97a43.451,43.451,0,0,0-2.16,6.158c-.313.994-.6,1.978-1.883,1.711C.07,16.814.057,15.831.259,14.852a23.68,23.68,0,0,1,4.121-9.7C7.9.492,13.078-1.066,18.94.721c8.6,2.623,13.288,9.013,13.3,19.782" fill="#12263f"/>
        <path id="Trazado_711311" data-name="Trazado 711311" d="M26.773,22.222a34.14,34.14,0,0,1-7.8,16.392,12.135,12.135,0,0,1-6.261,4.313,5.792,5.792,0,0,1-5.245-.982,1.951,1.951,0,0,1-.48-1.82,1.874,1.874,0,0,1,1.766-.582c2.731,1.53,4.827.306,6.69-1.482,4.339-4.165,6.7-9.462,8.283-15.15a12.207,12.207,0,0,0-.524-7.868,9.38,9.38,0,0,0-5.139-5.667,5.984,5.984,0,0,0-6.6,1.354C9.772,12.224,8.553,14,9.355,16.351A15.635,15.635,0,0,0,11.3,19.732c.614.929,1.441,1.722,2.01,2.673.968,1.617.321,2.953-1.533,3.351a6.648,6.648,0,0,0-1.434.19,11.4,11.4,0,0,0-2.761,1.649c-.684.624-1.237,1.153-2.111.566a1.358,1.358,0,0,1-.3-2.16,18.065,18.065,0,0,1,2.958-2.448,7.806,7.806,0,0,1,1.917-.658c-.63-.816-1.176-1.486-1.682-2.184C5.247,16.4,5.495,12.448,9.1,8.95c3.7-3.6,8.647-3.99,12.54-.817a14.194,14.194,0,0,1,5.137,14.089" fill="#12263f"/>
      </g>
    </g>
    <g id="Grupo_1002477" data-name="Grupo 1002477" transform="translate(1148.486 4570.579)">
      <g id="Grupo_1002477-2" data-name="Grupo 1002477" clip-path="url(#clip-path-4)">
        <path id="Trazado_711314" data-name="Trazado 711314" d="M19.688,50.08H1.592C.243,50.08,0,49.847,0,48.5Q0,30.351,0,12.2c0-1.335.194-1.538,1.517-1.539q8.845-.009,17.692,0c1.2,0,1.415.218,1.424,1.416.01,1.449.019,2.9,0,4.347a3.026,3.026,0,0,1-4.164,3.045A1.766,1.766,0,0,0,14.292,20a1.53,1.53,0,0,0-.035,1.885,1.664,1.664,0,0,0,1.947.676c2.846-.673,4.429.579,4.435,3.485,0,.842.022,1.685-.009,2.527-.022.584.151.874.792.852,1.01-.035,2.023.019,3.033-.016,1.29-.044,1.648-.592,1.277-1.862a3.577,3.577,0,1,1,6.886-.667c-.044.232-.109.459-.166.688-.3,1.178.163,1.814,1.4,1.841,1.381.03,2.764,0,4.145.013,1.2.014,1.413.228,1.414,1.429q.007,8.9,0,17.793c0,1.175-.246,1.424-1.422,1.425q-9.15.007-18.3,0ZM37.364,48.1c.063-.111.125-.169.125-.228.015-5.32.033-10.641.006-15.961,0-.208-.419-.573-.664-.592-.938-.07-1.884-.026-2.827-.031-2.7-.013-4.04-1.707-3.356-4.3a1.741,1.741,0,0,0-.6-2.067,1.542,1.542,0,0,0-1.967.051,1.8,1.8,0,0,0-.518,2.1,4.494,4.494,0,0,1,.14,1.865c-.34,1.657-1.5,2.336-3.693,2.356-1.07.01-2.525-.328-3.1.225-.559.538-.243,2.012-.261,3.077-.028,1.691.523,2.108,2.16,1.694a3.582,3.582,0,1,1-.124,6.873c-1.459-.357-2.02.065-2.042,1.553-.012.809.039,1.62-.016,2.425-.053.789.221,1.035,1.027,1.029,4.984-.035,9.969-.017,14.954-.02.264,0,.528-.034.759-.05M1.908,29.421c1.353,0,2.592-.023,3.83.005a3.043,3.043,0,0,1,3.069,4.233c-.273.88-.219,1.71.61,2.1a2.41,2.41,0,0,0,1.855-.014c.847-.414.813-1.282.561-2.13a3.03,3.03,0,0,1,3.017-4.192c1.044-.028,2.089-.034,3.133,0,.624.018.828-.237.806-.836-.033-.909.009-1.82-.01-2.729-.03-1.406-.65-1.862-2.024-1.467a3.529,3.529,0,0,1-2.916-.335A3.58,3.58,0,0,1,16.8,17.579c1.417.4,1.964.01,1.983-1.441.012-.943-.015-1.887.008-2.83.013-.545-.172-.79-.753-.788q-7.682.018-15.362,0c-.562,0-.772.2-.771.767.012,5.32.008,10.64.008,16.138M18.608,48.1c.073-.128.133-.184.133-.242.02-1.279.009-2.56.052-3.838a3.023,3.023,0,0,1,3.947-2.848c.226.065.477.253.666.2a3.373,3.373,0,0,0,1.652-.665,1.8,1.8,0,0,0,.174-1.642,2.775,2.775,0,0,0-1.5-.938c-.291-.1-.7.133-1.062.222a3.032,3.032,0,0,1-3.885-2.937c-.027-1.01-.049-2.024.008-3.032.046-.808-.18-1.184-1.057-1.1-.7.069-1.414.014-2.122.016-1.91,0-2.246.435-1.8,2.314a3.542,3.542,0,0,1-2.408,4.217,3.415,3.415,0,0,1-4.351-2.088,6.524,6.524,0,0,1-.039-2.644c.118-.959-.144-1.685-1.008-1.745-1.328-.092-2.666-.024-4.048-.024V48.1Z"/>
        <path id="Trazado_711315" data-name="Trazado 711315" d="M24.079,3.791a15.594,15.594,0,0,1,2.34,1.215c1.249.933,1.873.842,2.571-.584.563-1.148,1.121-2.3,1.692-3.443.536-1.075.847-1.2,1.9-.688,5.381,2.63,10.754,5.278,16.137,7.9a1.1,1.1,0,0,1,.6,1.709q-3.982,8.109-7.946,16.228a1.133,1.133,0,0,1-1.788.6c-1.281-.672-2.6-1.269-3.9-1.916a3.067,3.067,0,0,1-.932-5.215,1.654,1.654,0,0,0,.319-2.267,1.424,1.424,0,0,0-1.93-.6,2.349,2.349,0,0,0-1.058,1.317c-.761,2.889-2.519,3.755-5.208,2.456-1.182-.57-2.345-1.181-3.534-1.735a1.077,1.077,0,0,1-.589-1.643c.567-1.184,1.16-2.354,1.735-3.534.839-1.72.632-2.134-1.246-2.523A3.528,3.528,0,0,1,20.435,7.12a3.966,3.966,0,0,1,3.644-3.329m.761,13.427c.11.15.137.226.19.253.932.469,1.863.942,2.8,1.393,1.419.682,2.017.363,2.332-1.171A3.592,3.592,0,0,1,36.457,16a3.534,3.534,0,0,1-.274,4.849c-.766.838-.832,1.587-.046,2.037,1.188.68,2.449,1.234,3.775,1.889L47.33,9.638,32.2,2.221C31.613,3.4,31.1,4.453,30.569,5.5a3.134,3.134,0,0,1-5.245,1.022c-.685-.6-1.464-.921-2.175-.346a2.383,2.383,0,0,0-.783,1.687c.023.911.761,1.315,1.673,1.426a3.018,3.018,0,0,1,2.48,4.458c-.541,1.159-1.113,2.3-1.679,3.469"/>
      </g>
    </g>
    <g id="Grupo_1002478" data-name="Grupo 1002478" transform="translate(1349.418 4568.745)">
      <g id="Grupo_1002478-2" data-name="Grupo 1002478" clip-path="url(#clip-path-5)">
        <path id="Trazado_711316" data-name="Trazado 711316" d="M13.389,33.1c-2.76-1.932-3.737-4.271-2.723-6.746a8.224,8.224,0,0,1,1.827-2.491,1.241,1.241,0,0,1,1.981.117A1.361,1.361,0,0,1,14.1,25.9c-1.277,1.106-1.578,2.584-.646,3.784a4.051,4.051,0,0,0,1.525,1.084,1.515,1.515,0,0,1,1.09,1.59A5.106,5.106,0,0,0,22.159,37.6a1.589,1.589,0,0,1,1.642.547,3.646,3.646,0,0,0,5.433.352,1.514,1.514,0,0,1,1.91-.224c3.5,1.9,6.91.755,8.539-2.854.3-.66.76-1.16,1.459-.942.438.136.8.652,1.086,1.074.119.176-.014.567-.111.832-.167.46-.4.9-.6,1.337,2.347,2.142,6.615,2.373,9.689.541a8.825,8.825,0,0,0,3.1-12.061c-.764-1.3-.726-1.514.3-2.566a6.959,6.959,0,0,0,1.871-7.167,6.786,6.786,0,0,0-5.33-5.006A2.108,2.108,0,0,1,49.4,9.908,7.174,7.174,0,0,0,38.132,6.449c-1.223.93-1.725.845-2.629-.444A8.586,8.586,0,0,0,31.108,2.7c-.166-.056-.335-.107-.494-.179a1.288,1.288,0,0,1-.779-1.64,1.261,1.261,0,0,1,1.612-.82A10.881,10.881,0,0,1,36.18,2.765c.338.321.686.631,1.1,1.007.114-.053.323-.136.519-.242A9.876,9.876,0,0,1,51.632,8.251a1.636,1.636,0,0,0,.875.8,9.863,9.863,0,0,1,4.767,15.521,1.127,1.127,0,0,0-.159,1.381,11.386,11.386,0,0,1-4.778,14.685,1.619,1.619,0,0,0-.945,1.285,8.084,8.084,0,0,1-13.171,4.808,7.262,7.262,0,0,0-2.063-.741c.127.548.175.821.253,1.084.346,1.143.7,2.283,1.052,3.426.848,2.784-.543,4.327-3.428,3.821-1.119-.2-2.246-.357-3.368-.542a4.215,4.215,0,0,1-3.416-2.785c-1.23-3.055-2.485-6.1-3.732-9.147a2.112,2.112,0,0,0-2.231-1.5,7.68,7.68,0,0,1-6.729-3.731c-.156-.243-.291-.5-.36-.619a27.662,27.662,0,0,1-4.07,1.065,8.629,8.629,0,0,1-8.4-3.831,9,9,0,0,1-.807-9.3A2.061,2.061,0,0,0,1,22.558,10.4,10.4,0,0,1,7.4,9.223a1.347,1.347,0,0,0,.928-.9A8.921,8.921,0,0,1,19.357,2.9a1.231,1.231,0,0,0,1.227-.273A35.127,35.127,0,0,1,24.279.343,1.3,1.3,0,0,1,26.19.96a1.323,1.323,0,0,1-.928,1.786A9.1,9.1,0,0,0,21.527,5.41a1.461,1.461,0,0,1-1.943.4A6.32,6.32,0,0,0,10.5,10.177a1.611,1.611,0,0,1-1.276,1.265C4,12.8,1.669,17.635,3.9,22.534a1.954,1.954,0,0,1-.3,2.026,6.578,6.578,0,0,0,8.448,9.333c.437-.207.837-.492,1.344-.8m13.226,9.337c0-.139-.026-.043,0,.031,1.048,2.587,2.082,5.179,3.175,7.747a1.575,1.575,0,0,0,.918.841c1.406.32,2.839.52,4.424.792-1.068-3.462-2.074-6.761-3.11-10.051-.159-.506-1.434-.846-1.933-.647-1.094.434-2.206.82-3.477,1.287m22.029-.453a11.54,11.54,0,0,1-8.629-1.977l-5.1,2.075c.24,1.122.987,1.733,2.458,1.534a2.6,2.6,0,0,1,2.376.889,5.364,5.364,0,0,0,8.894-2.521"/>
        <path id="Trazado_711317" data-name="Trazado 711317" d="M30.528,13.487c2.564-2.231,5.384-2.926,8.511-1.708A7.8,7.8,0,0,1,41.93,24.416c-.415.45-.848.885-1.289,1.31a1.36,1.36,0,0,1-2.011.134,1.378,1.378,0,0,1,.192-2.011c.444-.464.919-.9,1.335-1.387a5.074,5.074,0,0,0-.743-7.444A5.231,5.231,0,0,0,32,15.833a4.731,4.731,0,0,1-.738.855c-.654.5-1.366.256-2.048-.645a5.261,5.261,0,0,0-6.628-1.668,5.175,5.175,0,0,0-1.443,8.368c2.86,2.877,5.75,5.724,8.6,8.612.59.6,1.019.6,1.588-.006.9-.959,1.843-1.871,2.78-2.791.709-.7,1.418-.757,2-.2.606.578.555,1.329-.172,2.068q-1.5,1.529-3.036,3.031a3.176,3.176,0,0,1-4.748-.005q-4.443-4.41-8.861-8.845a7.7,7.7,0,0,1-.3-10.74,7.926,7.926,0,0,1,10.9-.913c.2.164.4.332.642.531"/>
      </g>
    </g>
  </g>
</svg>
